Signika-Semibold.ufo
<glyph name="exclam" format="2">
  <advance width="597"/>
  <unicode hex="0021"/>
  <outline>
    <contour>
      <point x="192" y="404" type="curve"/>
      <point x="225" y="394"/>
      <point x="267" y="392"/>
      <point x="292" y="392" type="curve" smooth="yes"/>
      <point x="320" y="392"/>
      <point x="357" y="394"/>
      <point x="391" y="404" type="curve"/>
      <point x="408" y="665"/>
      <point x="439" y="924"/>
      <point x="439" y="1185" type="curve" smooth="yes"/>
      <point x="439" y="1364" type="line"/>
      <point x="366" y="1385"/>
      <point x="218" y="1385"/>
      <point x="146" y="1365" type="curve"/>
      <point x="146" y="1188" type="line" smooth="yes"/>
      <point x="146" y="924"/>
      <point x="173" y="665"/>
    </contour>
    <contour>
      <point x="292" y="250" type="curve" smooth="yes"/>
      <point x="244" y="250"/>
      <point x="194" y="239"/>
      <point x="161" y="221" type="curve"/>
      <point x="149" y="199"/>
      <point x="141" y="146"/>
      <point x="141" y="114" type="curve" smooth="yes"/>
      <point x="141" y="82"/>
      <point x="149" y="30"/>
      <point x="161" y="9" type="curve"/>
      <point x="194" y="-10"/>
      <point x="244" y="-20"/>
      <point x="292" y="-20" type="curve" smooth="yes"/>
      <point x="340" y="-20"/>
      <point x="391" y="-10"/>
      <point x="423" y="9" type="curve"/>
      <point x="436" y="30"/>
      <point x="443" y="82"/>
      <point x="443" y="114" type="curve" smooth="yes"/>
      <point x="443" y="146"/>
      <point x="436" y="199"/>
      <point x="423" y="221" type="curve"/>
      <point x="391" y="239"/>
      <point x="340" y="250"/>
    </contour>
  </outline>
</glyph>
<glyph name="numbersign" format="2">
  <advance width="1366"/>
  <unicode hex="0023"/>
  <outline>
    <contour>
      <point x="195" y="25" type="curve"/>
      <point x="479" y="1291" type="line"/>
      <point x="508" y="1303"/>
      <point x="552" y="1309"/>
      <point x="596" y="1309" type="curve" smooth="yes"/>
      <point x="640" y="1309"/>
      <point x="683" y="1303"/>
      <point x="710" y="1291" type="curve"/>
      <point x="426" y="25" type="line"/>
      <point x="398" y="13"/>
      <point x="353" y="6"/>
      <point x="309" y="6" type="curve" smooth="yes"/>
      <point x="265" y="6"/>
      <point x="221" y="13"/>
    </contour>
    <contour>
      <point x="670" y="25" type="curve"/>
      <point x="954" y="1291" type="line"/>
      <point x="983" y="1303"/>
      <point x="1027" y="1309"/>
      <point x="1071" y="1309" type="curve" smooth="yes"/>
      <point x="1115" y="1309"/>
      <point x="1158" y="1303"/>
      <point x="1185" y="1291" type="curve"/>
      <point x="901" y="25" type="line"/>
      <point x="873" y="13"/>
      <point x="829" y="6"/>
      <point x="784" y="6" type="curve" smooth="yes"/>
      <point x="740" y="6"/>
      <point x="696" y="13"/>
    </contour>
    <contour>
      <point x="1215" y="286" type="curve"/>
      <point x="57" y="286" type="line"/>
      <point x="46" y="316"/>
      <point x="41" y="354"/>
      <point x="41" y="391" type="curve" smooth="yes"/>
      <point x="41" y="429"/>
      <point x="46" y="466"/>
      <point x="57" y="496" type="curve"/>
      <point x="1215" y="496" type="line"/>
      <point x="1225" y="466"/>
      <point x="1231" y="429"/>
      <point x="1231" y="391" type="curve" smooth="yes"/>
      <point x="1231" y="354"/>
      <point x="1225" y="316"/>
    </contour>
    <contour>
      <point x="1316" y="820" type="curve"/>
      <point x="158" y="820" type="line"/>
      <point x="147" y="850"/>
      <point x="142" y="888"/>
      <point x="142" y="925" type="curve" smooth="yes"/>
      <point x="142" y="963"/>
      <point x="147" y="1000"/>
      <point x="158" y="1030" type="curve"/>
      <point x="1316" y="1030" type="line"/>
      <point x="1326" y="1000"/>
      <point x="1332" y="963"/>
      <point x="1332" y="925" type="curve" smooth="yes"/>
      <point x="1332" y="888"/>
      <point x="1326" y="850"/>
    </contour>
  </outline>
</glyph>
<glyph name="dollar" format="2">
  <advance width="1080"/>
  <unicode hex="0024"/>
  <outline>
    <contour>
      <point x="514" y="47" type="curve" smooth="yes"/>
      <point x="768" y="47"/>
      <point x="939" y="183"/>
      <point x="939" y="385" type="curve" smooth="yes"/>
      <point x="939" y="558"/>
      <point x="835" y="668"/>
      <point x="679" y="726" type="curve" smooth="yes"/>
      <point x="506" y="791" type="line" smooth="yes"/>
      <point x="432" y="818"/>
      <point x="387" y="845"/>
      <point x="387" y="909" type="curve" smooth="yes"/>
      <point x="387" y="972"/>
      <point x="440" y="1012"/>
      <point x="530" y="1012" type="curve" smooth="yes"/>
      <point x="616" y="1012"/>
      <point x="716" y="983"/>
      <point x="814" y="933" type="curve"/>
      <point x="867" y="979"/>
      <point x="905" y="1060"/>
      <point x="905" y="1133" type="curve"/>
      <point x="801" y="1186"/>
      <point x="671" y="1226"/>
      <point x="503" y="1226" type="curve" smooth="yes"/>
      <point x="283" y="1226"/>
      <point x="117" y="1085"/>
      <point x="117" y="881" type="curve" smooth="yes"/>
      <point x="117" y="725"/>
      <point x="223" y="630"/>
      <point x="367" y="577" type="curve" smooth="yes"/>
      <point x="548" y="512" type="line" smooth="yes"/>
      <point x="636" y="480"/>
      <point x="667" y="429"/>
      <point x="666" y="374" type="curve" smooth="yes"/>
      <point x="666" y="302"/>
      <point x="602" y="259"/>
      <point x="508" y="260" type="curve" smooth="yes"/>
      <point x="403" y="260"/>
      <point x="276" y="311"/>
      <point x="183" y="370" type="curve"/>
      <point x="131" y="337"/>
      <point x="86" y="239"/>
      <point x="84" y="171" type="curve"/>
      <point x="166" y="115"/>
      <point x="342" y="47"/>
    </contour>
    <contour>
      <point x="502" y="-126" type="curve" smooth="yes"/>
      <point x="539" y="-126"/>
      <point x="575" y="-123"/>
      <point x="599" y="-116" type="curve"/>
      <point x="599" y="130" type="line"/>
      <point x="403" y="130" type="line"/>
      <point x="403" y="-116" type="line"/>
      <point x="429" y="-123"/>
      <point x="465" y="-126"/>
    </contour>
    <contour>
      <point x="423" y="1139" type="line"/>
      <point x="619" y="1139" type="line"/>
      <point x="619" y="1389" type="line"/>
      <point x="593" y="1395"/>
      <point x="555" y="1399"/>
      <point x="521" y="1399" type="curve" smooth="yes"/>
      <point x="487" y="1399"/>
      <point x="450" y="1395"/>
      <point x="423" y="1389" type="curve"/>
    </contour>
  </outline>
</glyph>
<glyph name="ampersand" format="2">
  <advance width="1280"/>
  <unicode hex="0026"/>
  <outline>
    <contour>
      <point x="1024" y="832" type="curve" smooth="yes"/>
      <point x="646" y="832" type="line" smooth="yes"/>
      <point x="493" y="832"/>
      <point x="423" y="897"/>
      <point x="423" y="1013" type="curve" smooth="yes"/>
      <point x="423" y="1112"/>
      <point x="489" y="1185"/>
      <point x="613" y="1185" type="curve" smooth="yes"/>
      <point x="717" y="1185"/>
      <point x="814" y="1160"/>
      <point x="903" y="1131" type="curve" smooth="yes"/>
      <point x="949" y="1180"/>
      <point x="974" y="1264"/>
      <point x="972" y="1331" type="curve"/>
      <point x="871" y="1366"/>
      <point x="722" y="1394"/>
      <point x="575" y="1394" type="curve" smooth="yes"/>
      <point x="310" y="1394"/>
      <point x="148" y="1242"/>
      <point x="148" y="1033" type="curve" smooth="yes"/>
      <point x="148" y="857"/>
      <point x="275" y="719"/>
      <point x="437" y="714" type="curve"/>
      <point x="437" y="745" type="line"/>
      <point x="267" y="743"/>
      <point x="89" y="586"/>
      <point x="89" y="359" type="curve" smooth="yes"/>
      <point x="89" y="145"/>
      <point x="223" y="-28"/>
      <point x="476" y="-28" type="curve" smooth="yes"/>
      <point x="597" y="-28"/>
      <point x="711" y="16"/>
      <point x="792" y="82" type="curve"/>
      <point x="811" y="-3" type="line"/>
      <point x="840" y="-10"/>
      <point x="886" y="-15"/>
      <point x="931" y="-15" type="curve" smooth="yes"/>
      <point x="978" y="-15"/>
      <point x="1021" y="-10"/>
      <point x="1052" y="0" type="curve"/>
      <point x="1044" y="93"/>
      <point x="1039" y="221"/>
      <point x="1039" y="312" type="curve" smooth="yes"/>
      <point x="1039" y="485" type="line" smooth="yes"/>
      <point x="1039" y="548"/>
      <point x="1037" y="650"/>
      <point x="1031" y="731" type="curve"/>
      <point x="788" y="731" type="line"/>
      <point x="782" y="650"/>
      <point x="780" y="549"/>
      <point x="780" y="485" type="curve" smooth="yes"/>
      <point x="780" y="263" type="line"/>
      <point x="731" y="221"/>
      <point x="648" y="179"/>
      <point x="547" y="179" type="curve" smooth="yes"/>
      <point x="441" y="179"/>
      <point x="365" y="246"/>
      <point x="365" y="380" type="curve" smooth="yes"/>
      <point x="365" y="510"/>
      <point x="446" y="609"/>
      <point x="624" y="609" type="curve" smooth="yes"/>
      <point x="1090" y="609" type="line" smooth="yes"/>
      <point x="1194" y="609"/>
      <point x="1260" y="648"/>
      <point x="1260" y="743" type="curve" smooth="yes"/>
      <point x="1260" y="790"/>
      <point x="1247" y="840"/>
      <point x="1226" y="867" type="curve"/>
      <point x="1173" y="844"/>
      <point x="1098" y="832"/>
    </contour>
  </outline>
</glyph>
<glyph name="quotesingle" format="2">
  <advance width="454"/>
  <unicode hex="0027"/>
  <outline>
    <contour>
      <point x="87" y="1422" type="curve" smooth="yes"/>
      <point x="87" y="1383"/>
      <point x="120" y="1178"/>
      <point x="154" y="982" type="curve"/>
      <point x="184" y="964"/>
      <point x="253" y="964"/>
      <point x="282" y="982" type="curve"/>
      <point x="316" y="1177"/>
      <point x="348" y="1383"/>
      <point x="348" y="1422" type="curve" smooth="yes"/>
      <point x="348" y="1460"/>
      <point x="343" y="1496"/>
      <point x="336" y="1530" type="curve"/>
      <point x="304" y="1550"/>
      <point x="263" y="1561"/>
      <point x="218" y="1561" type="curve" smooth="yes"/>
      <point x="171" y="1561"/>
      <point x="133" y="1550"/>
      <point x="100" y="1530" type="curve"/>
      <point x="92" y="1496"/>
      <point x="87" y="1460"/>
    </contour>
  </outline>
</glyph>
<glyph name="parenleft" format="2">
  <advance width="708"/>
  <unicode hex="0028"/>
  <outline>
    <contour>
      <point x="397" y="547" type="curve" smooth="yes"/>
      <point x="397" y="846"/>
      <point x="483" y="1177"/>
      <point x="673" y="1434" type="curve"/>
      <point x="640" y="1506"/>
      <point x="581" y="1552"/>
      <point x="520" y="1573" type="curve"/>
      <point x="257" y="1320"/>
      <point x="121" y="900"/>
      <point x="121" y="547" type="curve" smooth="yes"/>
      <point x="121" y="194"/>
      <point x="257" y="-226"/>
      <point x="520" y="-479" type="curve"/>
      <point x="581" y="-458"/>
      <point x="640" y="-412"/>
      <point x="673" y="-340" type="curve"/>
      <point x="483" y="-84"/>
      <point x="397" y="248"/>
    </contour>
  </outline>
</glyph>
<glyph name="parenright" format="2">
  <advance width="708"/>
  <unicode hex="0029"/>
  <outline>
    <contour>
      <point x="312" y="547" type="curve" smooth="yes"/>
      <point x="312" y="846"/>
      <point x="225" y="1177"/>
      <point x="35" y="1434" type="curve"/>
      <point x="68" y="1506"/>
      <point x="127" y="1552"/>
      <point x="188" y="1573" type="curve"/>
      <point x="451" y="1320"/>
      <point x="587" y="900"/>
      <point x="587" y="547" type="curve" smooth="yes"/>
      <point x="587" y="194"/>
      <point x="451" y="-226"/>
      <point x="188" y="-479" type="curve"/>
      <point x="127" y="-458"/>
      <point x="68" y="-412"/>
      <point x="35" y="-340" type="curve"/>
      <point x="225" y="-84"/>
      <point x="312" y="248"/>
    </contour>
  </outline>
</glyph>
<glyph name="asterisk" format="2">
  <advance width="1026"/>
  <unicode hex="002A"/>
  <outline>
    <contour>
      <point x="404" y="1461" type="curve"/>
      <point x="408" y="1340" type="line" smooth="yes"/>
      <point x="412" y="1249"/>
      <point x="445" y="1150"/>
      <point x="469" y="1063" type="curve"/>
      <point x="481" y="1049"/>
      <point x="497" y="1041"/>
      <point x="512" y="1041" type="curve" smooth="yes"/>
      <point x="527" y="1041"/>
      <point x="543" y="1049"/>
      <point x="555" y="1063" type="curve"/>
      <point x="578" y="1150"/>
      <point x="613" y="1249"/>
      <point x="616" y="1340" type="curve" smooth="yes"/>
      <point x="621" y="1461" type="line"/>
      <point x="569" y="1482"/>
      <point x="454" y="1482"/>
    </contour>
    <contour>
      <point x="81" y="1068" type="curve"/>
      <point x="197" y="1036" type="line" smooth="yes"/>
      <point x="283" y="1010"/>
      <point x="389" y="1011"/>
      <point x="478" y="1008" type="curve"/>
      <point x="496" y="1014"/>
      <point x="507" y="1026"/>
      <point x="512" y="1041" type="curve" smooth="yes"/>
      <point x="518" y="1057"/>
      <point x="515" y="1073"/>
      <point x="505" y="1089" type="curve"/>
      <point x="430" y="1138"/>
      <point x="346" y="1203"/>
      <point x="260" y="1233" type="curve" smooth="yes"/>
      <point x="148" y="1274" type="line"/>
      <point x="111" y="1231"/>
      <point x="75" y="1122"/>
    </contour>
    <contour>
      <point x="353" y="640" type="curve"/>
      <point x="420" y="740" type="line" smooth="yes"/>
      <point x="471" y="815"/>
      <point x="503" y="914"/>
      <point x="534" y="999" type="curve"/>
      <point x="533" y="1017"/>
      <point x="525" y="1032"/>
      <point x="512" y="1041" type="curve" smooth="yes"/>
      <point x="499" y="1051"/>
      <point x="482" y="1053"/>
      <point x="464" y="1049" type="curve"/>
      <point x="395" y="994"/>
      <point x="308" y="933"/>
      <point x="252" y="861" type="curve" smooth="yes"/>
      <point x="178" y="767" type="line"/>
      <point x="208" y="718"/>
      <point x="300" y="652"/>
    </contour>
    <contour>
      <point x="844" y="766" type="curve"/>
      <point x="771" y="860" type="line" smooth="yes"/>
      <point x="715" y="932"/>
      <point x="631" y="994"/>
      <point x="560" y="1049" type="curve"/>
      <point x="542" y="1054"/>
      <point x="525" y="1051"/>
      <point x="512" y="1041" type="curve" smooth="yes"/>
      <point x="499" y="1032"/>
      <point x="492" y="1017"/>
      <point x="490" y="998" type="curve"/>
      <point x="522" y="915"/>
      <point x="552" y="814"/>
      <point x="604" y="739" type="curve" smooth="yes"/>
      <point x="671" y="639" type="line"/>
      <point x="727" y="652"/>
      <point x="817" y="720"/>
    </contour>
    <contour>
      <point x="877" y="1272" type="curve"/>
      <point x="764" y="1231" type="line" smooth="yes"/>
      <point x="679" y="1199"/>
      <point x="594" y="1140"/>
      <point x="520" y="1089" type="curve"/>
      <point x="510" y="1073"/>
      <point x="507" y="1057"/>
      <point x="512" y="1041" type="curve" smooth="yes"/>
      <point x="518" y="1026"/>
      <point x="529" y="1014"/>
      <point x="548" y="1008" type="curve"/>
      <point x="635" y="1012"/>
      <point x="741" y="1009"/>
      <point x="828" y="1034" type="curve" smooth="yes"/>
      <point x="945" y="1068" type="line"/>
      <point x="949" y="1125"/>
      <point x="912" y="1233"/>
    </contour>
  </outline>
</glyph>
<glyph name="plus" format="2">
  <advance width="1080"/>
  <unicode hex="002B"/>
  <outline>
    <contour>
      <point x="119" y="741" type="curve"/>
      <point x="310" y="741" type="line" smooth="yes"/>
      <point x="354" y="741"/>
      <point x="394" y="739"/>
      <point x="436" y="739" type="curve" smooth="yes"/>
      <point x="644" y="739" type="line" smooth="yes"/>
      <point x="686" y="739"/>
      <point x="726" y="741"/>
      <point x="770" y="741" type="curve" smooth="yes"/>
      <point x="961" y="741" type="line"/>
      <point x="969" y="702"/>
      <point x="972" y="673"/>
      <point x="972" y="633" type="curve" smooth="yes"/>
      <point x="972" y="594"/>
      <point x="969" y="559"/>
      <point x="961" y="525" type="curve"/>
      <point x="770" y="525" type="line" smooth="yes"/>
      <point x="726" y="525"/>
      <point x="686" y="527"/>
      <point x="644" y="527" type="curve" smooth="yes"/>
      <point x="436" y="527" type="line" smooth="yes"/>
      <point x="394" y="527"/>
      <point x="354" y="525"/>
      <point x="310" y="525" type="curve" smooth="yes"/>
      <point x="119" y="525" type="line"/>
      <point x="111" y="558"/>
      <point x="108" y="594"/>
      <point x="108" y="633" type="curve" smooth="yes"/>
      <point x="108" y="673"/>
      <point x="111" y="706"/>
    </contour>
    <contour>
      <point x="426" y="857" type="curve" smooth="yes"/>
      <point x="426" y="1064" type="line"/>
      <point x="464" y="1072"/>
      <point x="500" y="1074"/>
      <point x="540" y="1074" type="curve" smooth="yes"/>
      <point x="579" y="1074"/>
      <point x="617" y="1072"/>
      <point x="654" y="1064" type="curve"/>
      <point x="654" y="857" type="line" smooth="yes"/>
      <point x="654" y="814"/>
      <point x="652" y="774"/>
      <point x="652" y="732" type="curve" smooth="yes"/>
      <point x="652" y="535" type="line" smooth="yes"/>
      <point x="652" y="493"/>
      <point x="654" y="455"/>
      <point x="654" y="411" type="curve" smooth="yes"/>
      <point x="654" y="204" type="line"/>
      <point x="617" y="196"/>
      <point x="582" y="194"/>
      <point x="543" y="194" type="curve" smooth="yes"/>
      <point x="503" y="194"/>
      <point x="464" y="196"/>
      <point x="426" y="204" type="curve"/>
      <point x="426" y="411" type="line" smooth="yes"/>
      <point x="426" y="455"/>
      <point x="428" y="493"/>
      <point x="428" y="535" type="curve" smooth="yes"/>
      <point x="428" y="732" type="line" smooth="yes"/>
      <point x="428" y="774"/>
      <point x="426" y="814"/>
    </contour>
  </outline>
</glyph>
<glyph name="comma" format="2">
  <advance width="565"/>
  <unicode hex="002C"/>
  <outline>
    <contour>
      <point x="423" y="233" type="curve"/>
      <point x="394" y="251"/>
      <point x="332" y="264"/>
      <point x="286" y="264" type="curve" smooth="yes"/>
      <point x="239" y="264"/>
      <point x="178" y="250"/>
      <point x="148" y="233" type="curve"/>
      <point x="135" y="211"/>
      <point x="126" y="156"/>
      <point x="126" y="120" type="curve" smooth="yes"/>
      <point x="126" y="83"/>
      <point x="136" y="35"/>
      <point x="148" y="13" type="curve"/>
      <point x="166" y="-1"/>
      <point x="202" y="-11"/>
      <point x="231" y="-17" type="curve"/>
      <point x="221" y="-107"/>
      <point x="147" y="-181"/>
      <point x="55" y="-217" type="curve"/>
      <point x="50" y="-265"/>
      <point x="74" y="-319"/>
      <point x="119" y="-342" type="curve"/>
      <point x="337" y="-272"/>
      <point x="447" y="-92"/>
      <point x="447" y="87" type="curve" smooth="yes"/>
      <point x="447" y="139"/>
      <point x="440" y="188"/>
    </contour>
  </outline>
</glyph>
<glyph name="hyphen" format="2">
  <advance width="727"/>
  <unicode hex="002D"/>
  <outline>
    <contour>
      <point x="98" y="429" type="curve"/>
      <point x="629" y="429" type="line"/>
      <point x="638" y="464"/>
      <point x="640" y="509"/>
      <point x="640" y="536" type="curve" smooth="yes"/>
      <point x="640" y="564"/>
      <point x="638" y="609"/>
      <point x="629" y="644" type="curve"/>
      <point x="98" y="644" type="line"/>
      <point x="89" y="609"/>
      <point x="87" y="564"/>
      <point x="87" y="536" type="curve" smooth="yes"/>
      <point x="87" y="509"/>
      <point x="89" y="464"/>
    </contour>
  </outline>
</glyph>
<glyph name="period" format="2">
  <advance width="551"/>
  <unicode hex="002E"/>
  <outline>
    <contour>
      <point x="114" y="123" type="curve" smooth="yes"/>
      <point x="114" y="99"/>
      <point x="120" y="43"/>
      <point x="135" y="13" type="curve"/>
      <point x="169" y="-8"/>
      <point x="228" y="-19"/>
      <point x="275" y="-19" type="curve" smooth="yes"/>
      <point x="322" y="-19"/>
      <point x="383" y="-8"/>
      <point x="416" y="13" type="curve"/>
      <point x="431" y="43"/>
      <point x="437" y="99"/>
      <point x="437" y="123" type="curve" smooth="yes"/>
      <point x="437" y="147"/>
      <point x="431" y="204"/>
      <point x="416" y="234" type="curve"/>
      <point x="383" y="253"/>
      <point x="322" y="266"/>
      <point x="275" y="266" type="curve" smooth="yes"/>
      <point x="228" y="266"/>
      <point x="169" y="253"/>
      <point x="135" y="234" type="curve"/>
      <point x="120" y="204"/>
      <point x="114" y="147"/>
    </contour>
  </outline>
</glyph>
<glyph name="slash" format="2">
  <advance width="874"/>
  <unicode hex="002F"/>
  <outline>
    <contour>
      <point x="638" y="1430" type="curve"/>
      <point x="8" y="-246" type="line"/>
      <point x="72" y="-296"/>
      <point x="155" y="-323"/>
      <point x="232" y="-331" type="curve"/>
      <point x="862" y="1345" type="line"/>
      <point x="798" y="1394"/>
      <point x="714" y="1421"/>
    </contour>
  </outline>
</glyph>
<glyph name="zero" format="2">
  <advance width="1080"/>
  <unicode hex="0030"/>
  <outline>
    <contour>
      <point x="86" y="633" type="curve" smooth="yes"/>
      <point x="86" y="405"/>
      <point x="107" y="225"/>
      <point x="229" y="92" type="curve" smooth="yes"/>
      <point x="303" y="22"/>
      <point x="389" y="-28"/>
      <point x="540" y="-28" type="curve" smooth="yes"/>
      <point x="692" y="-28"/>
      <point x="777" y="22"/>
      <point x="851" y="92" type="curve" smooth="yes"/>
      <point x="974" y="225"/>
      <point x="994" y="405"/>
      <point x="994" y="633" type="curve" smooth="yes"/>
      <point x="994" y="861"/>
      <point x="974" y="1041"/>
      <point x="851" y="1174" type="curve" smooth="yes"/>
      <point x="777" y="1245"/>
      <point x="693" y="1294"/>
      <point x="541" y="1294" type="curve" smooth="yes"/>
      <point x="389" y="1294"/>
      <point x="302" y="1245"/>
      <point x="229" y="1174" type="curve" smooth="yes"/>
      <point x="106" y="1041"/>
      <point x="86" y="861"/>
    </contour>
    <contour>
      <point x="356" y="633" type="curve" smooth="yes"/>
      <point x="356" y="835"/>
      <point x="373" y="957"/>
      <point x="411" y="1021" type="curve" smooth="yes"/>
      <point x="438" y="1070"/>
      <point x="485" y="1092"/>
      <point x="540" y="1092" type="curve" smooth="yes"/>
      <point x="596" y="1092"/>
      <point x="642" y="1070"/>
      <point x="669" y="1021" type="curve" smooth="yes"/>
      <point x="707" y="957"/>
      <point x="724" y="835"/>
      <point x="724" y="633" type="curve" smooth="yes"/>
      <point x="724" y="433"/>
      <point x="707" y="310"/>
      <point x="669" y="245" type="curve" smooth="yes"/>
      <point x="643" y="195"/>
      <point x="596" y="174"/>
      <point x="540" y="174" type="curve" smooth="yes"/>
      <point x="485" y="174"/>
      <point x="438" y="196"/>
      <point x="411" y="245" type="curve" smooth="yes"/>
      <point x="372" y="309"/>
      <point x="356" y="433"/>
    </contour>
  </outline>
</glyph>
<glyph name="one" format="2">
  <advance width="1080"/>
  <unicode hex="0031"/>
  <outline>
    <contour>
      <point x="726" y="356" type="curve" smooth="yes"/>
      <point x="726" y="1266" type="line"/>
      <point x="680" y="1275"/>
      <point x="640" y="1277"/>
      <point x="603" y="1277" type="curve" smooth="yes"/>
      <point x="566" y="1277"/>
      <point x="525" y="1275"/>
      <point x="479" y="1266" type="curve"/>
      <point x="485" y="1006" type="line" smooth="yes"/>
      <point x="487" y="922"/>
      <point x="471" y="755"/>
      <point x="471" y="681" type="curve" smooth="yes"/>
      <point x="471" y="356" type="line" smooth="yes"/>
      <point x="471" y="302"/>
      <point x="473" y="251"/>
      <point x="473" y="195" type="curve" smooth="yes"/>
      <point x="473" y="104" type="line"/>
      <point x="724" y="104" type="line"/>
      <point x="724" y="195" type="line" smooth="yes"/>
      <point x="724" y="251"/>
      <point x="726" y="302"/>
    </contour>
    <contour>
      <point x="351" y="216" type="curve" smooth="yes"/>
      <point x="179" y="216" type="line"/>
      <point x="171" y="183"/>
      <point x="166" y="144"/>
      <point x="166" y="108" type="curve" smooth="yes"/>
      <point x="166" y="73"/>
      <point x="171" y="35"/>
      <point x="179" y="0" type="curve"/>
      <point x="973" y="0" type="line"/>
      <point x="981" y="34"/>
      <point x="986" y="73"/>
      <point x="986" y="108" type="curve" smooth="yes"/>
      <point x="986" y="144"/>
      <point x="981" y="183"/>
      <point x="973" y="216" type="curve"/>
      <point x="851" y="216" type="line" smooth="yes"/>
      <point x="823" y="216"/>
      <point x="749" y="214"/>
      <point x="720" y="214" type="curve" smooth="yes"/>
      <point x="477" y="214" type="line" smooth="yes"/>
      <point x="448" y="214"/>
      <point x="380" y="216"/>
    </contour>
    <contour>
      <point x="96" y="871" type="curve"/>
      <point x="107" y="806"/>
      <point x="153" y="744"/>
      <point x="206" y="718" type="curve"/>
      <point x="349" y="780"/>
      <point x="513" y="907"/>
      <point x="571" y="1063" type="curve"/>
      <point x="479" y="1266" type="line"/>
      <point x="415" y="1128"/>
      <point x="293" y="994"/>
    </contour>
  </outline>
</glyph>
<glyph name="two" format="2">
  <advance width="1080"/>
  <unicode hex="0032"/>
  <outline>
    <contour>
      <point x="115" y="979" type="curve"/>
      <point x="148" y="927"/>
      <point x="238" y="898"/>
      <point x="302" y="897" type="curve"/>
      <point x="334" y="993"/>
      <point x="405" y="1080"/>
      <point x="508" y="1080" type="curve" smooth="yes"/>
      <point x="608" y="1080"/>
      <point x="673" y="1011"/>
      <point x="673" y="914" type="curve" smooth="yes"/>
      <point x="673" y="824"/>
      <point x="621" y="759"/>
      <point x="546" y="694" type="curve" smooth="yes"/>
      <point x="340" y="518" type="line" smooth="yes"/>
      <point x="213" y="406"/>
      <point x="100" y="282"/>
      <point x="100" y="170" type="curve" smooth="yes"/>
      <point x="100" y="105"/>
      <point x="147" y="53"/>
      <point x="196" y="-1" type="curve"/>
      <point x="354" y="-1" type="line"/>
      <point x="362" y="180" type="line" smooth="yes"/>
      <point x="363" y="228"/>
      <point x="457" y="313"/>
      <point x="548" y="390" type="curve" smooth="yes"/>
      <point x="696" y="509" type="line" smooth="yes"/>
      <point x="826" y="619"/>
      <point x="941" y="727"/>
      <point x="941" y="908" type="curve" smooth="yes"/>
      <point x="941" y="1139"/>
      <point x="781" y="1294"/>
      <point x="534" y="1294" type="curve" smooth="yes"/>
      <point x="318" y="1294"/>
      <point x="169" y="1150"/>
    </contour>
    <contour>
      <point x="973" y="224" type="curve"/>
      <point x="654" y="224" type="line" smooth="yes"/>
      <point x="520" y="224"/>
      <point x="277" y="205"/>
      <point x="140" y="160" type="curve"/>
      <point x="212" y="-1" type="line"/>
      <point x="804" y="-1" type="line" smooth="yes"/>
      <point x="926" y="-1"/>
      <point x="973" y="51"/>
    </contour>
  </outline>
</glyph>
<glyph name="three" format="2">
  <advance width="1080"/>
  <unicode hex="0033"/>
  <outline>
    <contour>
      <point x="707" y="404" type="curve" smooth="yes"/>
      <point x="707" y="263"/>
      <point x="611" y="184"/>
      <point x="475" y="184" type="curve" smooth="yes"/>
      <point x="369" y="184"/>
      <point x="279" y="227"/>
      <point x="206" y="283" type="curve"/>
      <point x="153" y="241"/>
      <point x="107" y="172"/>
      <point x="95" y="111" type="curve"/>
      <point x="185" y="32"/>
      <point x="331" y="-28"/>
      <point x="509" y="-28" type="curve" smooth="yes"/>
      <point x="751" y="-28"/>
      <point x="977" y="119"/>
      <point x="977" y="394" type="curve" smooth="yes"/>
      <point x="977" y="641"/>
      <point x="801" y="765"/>
      <point x="582" y="765" type="curve" smooth="yes"/>
      <point x="449" y="765"/>
      <point x="364" y="740"/>
      <point x="285" y="708" type="curve"/>
      <point x="296" y="654"/>
      <point x="339" y="594"/>
      <point x="386" y="567" type="curve"/>
      <point x="423" y="586"/>
      <point x="467" y="596"/>
      <point x="507" y="596" type="curve" smooth="yes"/>
      <point x="624" y="596"/>
      <point x="707" y="526"/>
    </contour>
    <contour>
      <point x="694" y="818" type="curve" smooth="yes"/>
      <point x="875" y="997" type="line" smooth="yes"/>
      <point x="912" y="1036"/>
      <point x="927" y="1069"/>
      <point x="927" y="1108" type="curve" smooth="yes"/>
      <point x="927" y="1144"/>
      <point x="913" y="1192"/>
      <point x="873" y="1266" type="curve"/>
      <point x="162" y="1266" type="line"/>
      <point x="144" y="1223"/>
      <point x="140" y="1177"/>
      <point x="140" y="1142" type="curve" smooth="yes"/>
      <point x="140" y="1119"/>
      <point x="142" y="1083"/>
      <point x="156" y="1044" type="curve"/>
      <point x="418" y="1044" type="line" smooth="yes"/>
      <point x="496" y="1044"/>
      <point x="583" y="1053"/>
      <point x="631" y="1066" type="curve"/>
      <point x="638" y="1054" type="line"/>
      <point x="605" y="1028"/>
      <point x="536" y="962"/>
      <point x="502" y="928" type="curve" smooth="yes"/>
      <point x="285" y="708" type="line"/>
      <point x="429" y="652" type="line"/>
      <point x="497" y="679"/>
      <point x="618" y="741"/>
    </contour>
  </outline>
</glyph>
<glyph name="four" format="2">
  <advance width="1080"/>
  <unicode hex="0034"/>
  <outline>
    <contour>
      <point x="126" y="249" type="curve"/>
      <point x="449" y="249" type="line" smooth="yes"/>
      <point x="493" y="249"/>
      <point x="535" y="252"/>
      <point x="577" y="252" type="curve" smooth="yes"/>
      <point x="827" y="252" type="line" smooth="yes"/>
      <point x="869" y="252"/>
      <point x="888" y="251"/>
      <point x="931" y="251" type="curve" smooth="yes"/>
      <point x="1000" y="251" type="line"/>
      <point x="1012" y="292"/>
      <point x="1017" y="340"/>
      <point x="1017" y="374" type="curve" smooth="yes"/>
      <point x="1017" y="404"/>
      <point x="1015" y="437"/>
      <point x="1010" y="470" type="curve"/>
      <point x="931" y="470" type="line" smooth="yes"/>
      <point x="888" y="470"/>
      <point x="869" y="468"/>
      <point x="827" y="468" type="curve" smooth="yes"/>
      <point x="569" y="468" type="line" smooth="yes"/>
      <point x="532" y="468"/>
      <point x="401" y="464"/>
      <point x="322" y="456" type="curve"/>
      <point x="316" y="464" type="line"/>
      <point x="377" y="552"/>
      <point x="458" y="731"/>
      <point x="501" y="828" type="curve" smooth="yes"/>
      <point x="682" y="1228" type="line"/>
      <point x="638" y="1273"/>
      <point x="515" y="1295"/>
      <point x="441" y="1280" type="curve"/>
      <point x="107" y="537" type="line" smooth="yes"/>
      <point x="88" y="496"/>
      <point x="68" y="447"/>
      <point x="68" y="410" type="curve" smooth="yes"/>
      <point x="68" y="362"/>
      <point x="92" y="301"/>
    </contour>
    <contour>
      <point x="575" y="126" type="curve" smooth="yes"/>
      <point x="575" y="0" type="line"/>
      <point x="619" y="-8"/>
      <point x="663" y="-10"/>
      <point x="702" y="-10" type="curve" smooth="yes"/>
      <point x="742" y="-10"/>
      <point x="784" y="-8"/>
      <point x="829" y="0" type="curve"/>
      <point x="829" y="126" type="line" smooth="yes"/>
      <point x="829" y="169"/>
      <point x="827" y="210"/>
      <point x="827" y="252" type="curve" smooth="yes"/>
      <point x="827" y="468" type="line" smooth="yes"/>
      <point x="827" y="510"/>
      <point x="829" y="550"/>
      <point x="829" y="594" type="curve" smooth="yes"/>
      <point x="829" y="822" type="line"/>
      <point x="818" y="833" type="line"/>
      <point x="754" y="833" type="line" smooth="yes"/>
      <point x="641" y="833"/>
      <point x="575" y="755"/>
      <point x="575" y="628" type="curve" smooth="yes"/>
      <point x="575" y="518" type="line" smooth="yes"/>
      <point x="575" y="501"/>
      <point x="577" y="449"/>
      <point x="577" y="433" type="curve" smooth="yes"/>
      <point x="577" y="252" type="line" smooth="yes"/>
      <point x="577" y="210"/>
      <point x="575" y="169"/>
    </contour>
  </outline>
</glyph>
<glyph name="five" format="2">
  <advance width="1080"/>
  <unicode hex="0035"/>
  <outline>
    <contour>
      <point x="416" y="864" type="curve" smooth="yes"/>
      <point x="424" y="971" type="line" smooth="yes"/>
      <point x="427" y="1023"/>
      <point x="423" y="1153"/>
      <point x="413" y="1212" type="curve"/>
      <point x="183" y="1251" type="line"/>
      <point x="150" y="658" type="line"/>
      <point x="232" y="663"/>
      <point x="315" y="675"/>
      <point x="383" y="700" type="curve"/>
      <point x="402" y="753"/>
      <point x="411" y="808"/>
    </contour>
    <contour>
      <point x="102" y="105" type="curve"/>
      <point x="194" y="24"/>
      <point x="334" y="-28"/>
      <point x="490" y="-28" type="curve" smooth="yes"/>
      <point x="729" y="-28"/>
      <point x="969" y="118"/>
      <point x="969" y="434" type="curve" smooth="yes"/>
      <point x="969" y="684"/>
      <point x="810" y="845"/>
      <point x="551" y="845" type="curve" smooth="yes"/>
      <point x="372" y="845"/>
      <point x="231" y="738"/>
      <point x="150" y="658" type="curve"/>
      <point x="175" y="618"/>
      <point x="233" y="577"/>
      <point x="280" y="568" type="curve"/>
      <point x="340" y="616"/>
      <point x="407" y="642"/>
      <point x="477" y="642" type="curve" smooth="yes"/>
      <point x="588" y="642"/>
      <point x="699" y="583"/>
      <point x="699" y="422" type="curve" smooth="yes"/>
      <point x="699" y="261"/>
      <point x="592" y="185"/>
      <point x="470" y="185" type="curve" smooth="yes"/>
      <point x="370" y="185"/>
      <point x="289" y="221"/>
      <point x="210" y="277" type="curve"/>
      <point x="158" y="240"/>
      <point x="112" y="156"/>
    </contour>
    <contour>
      <point x="901" y="1266" type="curve"/>
      <point x="197" y="1266" type="line"/>
      <point x="183" y="1251" type="line"/>
      <point x="192" y="1059" type="line"/>
      <point x="235" y="1054"/>
      <point x="370" y="1046"/>
      <point x="470" y="1046" type="curve" smooth="yes"/>
      <point x="806" y="1046" type="line" smooth="yes"/>
      <point x="878" y="1046"/>
      <point x="918" y="1085"/>
      <point x="918" y="1159" type="curve" smooth="yes"/>
      <point x="918" y="1185"/>
      <point x="916" y="1225"/>
    </contour>
  </outline>
</glyph>
<glyph name="six" format="2">
  <advance width="1080"/>
  <unicode hex="0036"/>
  <outline>
    <contour>
      <point x="553" y="-28" type="curve" smooth="yes"/>
      <point x="799" y="-28"/>
      <point x="994" y="143"/>
      <point x="994" y="423" type="curve" smooth="yes"/>
      <point x="994" y="719"/>
      <point x="847" y="849"/>
      <point x="631" y="849" type="curve" smooth="yes"/>
      <point x="448" y="849"/>
      <point x="309" y="731"/>
      <point x="248" y="606" type="curve"/>
      <point x="295" y="470" type="line"/>
      <point x="363" y="573"/>
      <point x="464" y="635"/>
      <point x="563" y="635" type="curve" smooth="yes"/>
      <point x="664" y="635"/>
      <point x="732" y="576"/>
      <point x="732" y="406" type="curve" smooth="yes"/>
      <point x="732" y="267"/>
      <point x="676" y="169"/>
      <point x="556" y="169" type="curve" smooth="yes"/>
      <point x="499" y="169"/>
      <point x="459" y="197"/>
      <point x="432" y="231" type="curve" smooth="yes"/>
      <point x="385" y="293"/>
      <point x="364" y="406"/>
      <point x="364" y="524" type="curve" smooth="yes"/>
      <point x="364" y="714" type="line" smooth="yes"/>
      <point x="364" y="930"/>
      <point x="441" y="1088"/>
      <point x="642" y="1088" type="curve" smooth="yes"/>
      <point x="725" y="1088"/>
      <point x="792" y="1067"/>
      <point x="844" y="1045" type="curve"/>
      <point x="895" y="1086"/>
      <point x="926" y="1160"/>
      <point x="932" y="1227" type="curve"/>
      <point x="855" y="1268"/>
      <point x="748" y="1294"/>
      <point x="623" y="1294" type="curve" smooth="yes"/>
      <point x="281" y="1294"/>
      <point x="91" y="1039"/>
      <point x="91" y="625" type="curve" smooth="yes"/>
      <point x="91" y="264"/>
      <point x="190" y="158"/>
      <point x="227" y="112" type="curve" smooth="yes"/>
      <point x="264" y="66"/>
      <point x="360" y="-28"/>
    </contour>
  </outline>
</glyph>
<glyph name="seven" format="2">
  <advance width="1080"/>
  <unicode hex="0037"/>
  <outline>
    <contour>
      <point x="944" y="1266" type="curve"/>
      <point x="137" y="1266" type="line"/>
      <point x="123" y="1228"/>
      <point x="114" y="1181"/>
      <point x="114" y="1134" type="curve" smooth="yes"/>
      <point x="114" y="1104"/>
      <point x="118" y="1070"/>
      <point x="126" y="1044" type="curve"/>
      <point x="448" y="1044" type="line" smooth="yes"/>
      <point x="502" y="1044"/>
      <point x="676" y="1051"/>
      <point x="738" y="1066" type="curve"/>
      <point x="747" y="1056" type="line"/>
      <point x="499" y="816"/>
      <point x="332" y="446"/>
      <point x="301" y="90" type="curve" smooth="yes"/>
      <point x="293" y="0" type="line"/>
      <point x="333" y="-7"/>
      <point x="381" y="-11"/>
      <point x="428" y="-11" type="curve" smooth="yes"/>
      <point x="478" y="-11"/>
      <point x="525" y="-7"/>
      <point x="560" y="0" type="curve"/>
      <point x="567" y="83" type="line" smooth="yes"/>
      <point x="599" y="435"/>
      <point x="695" y="657"/>
      <point x="951" y="1000" type="curve" smooth="yes"/>
      <point x="979" y="1037"/>
      <point x="992" y="1077"/>
      <point x="992" y="1105" type="curve" smooth="yes"/>
      <point x="992" y="1149"/>
      <point x="967" y="1218"/>
    </contour>
  </outline>
</glyph>
<glyph name="eight" format="2">
  <advance width="1080"/>
  <unicode hex="0038"/>
  <outline>
    <contour>
      <point x="79" y="321" type="curve" smooth="yes"/>
      <point x="79" y="101"/>
      <point x="258" y="-28"/>
      <point x="528" y="-28" type="curve" smooth="yes"/>
      <point x="787" y="-28"/>
      <point x="1000" y="108"/>
      <point x="1000" y="335" type="curve" smooth="yes"/>
      <point x="1000" y="559"/>
      <point x="830" y="680"/>
      <point x="610" y="755" type="curve" smooth="yes"/>
      <point x="568" y="771" type="line" smooth="yes"/>
      <point x="446" y="809"/>
      <point x="370" y="864"/>
      <point x="370" y="955" type="curve" smooth="yes"/>
      <point x="370" y="1044"/>
      <point x="443" y="1106"/>
      <point x="538" y="1106" type="curve" smooth="yes"/>
      <point x="639" y="1106"/>
      <point x="710" y="1043"/>
      <point x="710" y="949" type="curve" smooth="yes"/>
      <point x="710" y="849"/>
      <point x="639" y="764"/>
      <point x="508" y="720" type="curve"/>
      <point x="679" y="644" type="line"/>
      <point x="823" y="686"/>
      <point x="964" y="798"/>
      <point x="964" y="960" type="curve" smooth="yes"/>
      <point x="964" y="1155"/>
      <point x="796" y="1294"/>
      <point x="539" y="1294" type="curve" smooth="yes"/>
      <point x="294" y="1294"/>
      <point x="113" y="1148"/>
      <point x="113" y="953" type="curve" smooth="yes"/>
      <point x="113" y="758"/>
      <point x="258" y="654"/>
      <point x="482" y="573" type="curve" smooth="yes"/>
      <point x="526" y="557" type="line" smooth="yes"/>
      <point x="646" y="515"/>
      <point x="733" y="443"/>
      <point x="733" y="337" type="curve" smooth="yes"/>
      <point x="733" y="232"/>
      <point x="655" y="156"/>
      <point x="539" y="156" type="curve" smooth="yes"/>
      <point x="425" y="156"/>
      <point x="343" y="227"/>
      <point x="343" y="338" type="curve" smooth="yes"/>
      <point x="343" y="448"/>
      <point x="414" y="562"/>
      <point x="580" y="625" type="curve"/>
      <point x="402" y="698" type="line"/>
      <point x="242" y="645"/>
      <point x="79" y="507"/>
    </contour>
  </outline>
</glyph>
<glyph name="nine" format="2">
  <advance width="1080"/>
  <unicode hex="0039"/>
  <outline>
    <contour>
      <point x="527" y="1294" type="curve" smooth="yes"/>
      <point x="281" y="1294"/>
      <point x="86" y="1123"/>
      <point x="86" y="843" type="curve" smooth="yes"/>
      <point x="86" y="547"/>
      <point x="233" y="418"/>
      <point x="450" y="418" type="curve" smooth="yes"/>
      <point x="632" y="418"/>
      <point x="771" y="535"/>
      <point x="832" y="660" type="curve"/>
      <point x="785" y="796" type="line"/>
      <point x="717" y="693"/>
      <point x="616" y="631"/>
      <point x="517" y="631" type="curve" smooth="yes"/>
      <point x="416" y="631"/>
      <point x="348" y="690"/>
      <point x="348" y="860" type="curve" smooth="yes"/>
      <point x="348" y="999"/>
      <point x="404" y="1097"/>
      <point x="524" y="1097" type="curve" smooth="yes"/>
      <point x="581" y="1097"/>
      <point x="621" y="1069"/>
      <point x="648" y="1035" type="curve" smooth="yes"/>
      <point x="696" y="974"/>
      <point x="716" y="860"/>
      <point x="716" y="742" type="curve" smooth="yes"/>
      <point x="716" y="552" type="line" smooth="yes"/>
      <point x="716" y="336"/>
      <point x="639" y="179"/>
      <point x="438" y="179" type="curve" smooth="yes"/>
      <point x="355" y="179"/>
      <point x="288" y="199"/>
      <point x="236" y="221" type="curve"/>
      <point x="185" y="180"/>
      <point x="154" y="106"/>
      <point x="148" y="39" type="curve"/>
      <point x="225" y="-2"/>
      <point x="332" y="-28"/>
      <point x="457" y="-28" type="curve" smooth="yes"/>
      <point x="799" y="-28"/>
      <point x="989" y="228"/>
      <point x="989" y="641" type="curve" smooth="yes"/>
      <point x="989" y="1002"/>
      <point x="890" y="1108"/>
      <point x="853" y="1154" type="curve" smooth="yes"/>
      <point x="816" y="1201"/>
      <point x="720" y="1294"/>
    </contour>
  </outline>
</glyph>
<glyph name="less" format="2">
  <advance width="1080"/>
  <unicode hex="003C"/>
  <outline>
    <contour>
      <point x="839" y="1130" type="curve"/>
      <point x="115" y="733" type="line"/>
      <point x="97" y="671"/>
      <point x="100" y="590"/>
      <point x="115" y="531" type="curve"/>
      <point x="838" y="132" type="line"/>
      <point x="899" y="167"/>
      <point x="951" y="254"/>
      <point x="958" y="337" type="curve"/>
      <point x="539" y="555" type="line" smooth="yes"/>
      <point x="500" y="576"/>
      <point x="418" y="611"/>
      <point x="380" y="625" type="curve"/>
      <point x="380" y="640" type="line"/>
      <point x="418" y="654"/>
      <point x="500" y="689"/>
      <point x="539" y="710" type="curve" smooth="yes"/>
      <point x="958" y="927" type="line"/>
      <point x="954" y="1011"/>
      <point x="903" y="1094"/>
    </contour>
  </outline>
</glyph>
<glyph name="equal" format="2">
  <advance width="1080"/>
  <unicode hex="003D"/>
  <outline>
    <contour>
      <point x="119" y="317" type="curve"/>
      <point x="961" y="317" type="line"/>
      <point x="970" y="351"/>
      <point x="972" y="396"/>
      <point x="972" y="423" type="curve" smooth="yes"/>
      <point x="972" y="451"/>
      <point x="970" y="496"/>
      <point x="961" y="532" type="curve"/>
      <point x="119" y="532" type="line"/>
      <point x="110" y="496"/>
      <point x="108" y="451"/>
      <point x="108" y="423" type="curve" smooth="yes"/>
      <point x="108" y="396"/>
      <point x="110" y="351"/>
    </contour>
    <contour>
      <point x="119" y="739" type="curve"/>
      <point x="961" y="739" type="line"/>
      <point x="970" y="774"/>
      <point x="972" y="819"/>
      <point x="972" y="846" type="curve" smooth="yes"/>
      <point x="972" y="874"/>
      <point x="970" y="919"/>
      <point x="961" y="954" type="curve"/>
      <point x="119" y="954" type="line"/>
      <point x="110" y="919"/>
      <point x="108" y="874"/>
      <point x="108" y="846" type="curve" smooth="yes"/>
      <point x="108" y="819"/>
      <point x="110" y="774"/>
    </contour>
  </outline>
</glyph>
<glyph name="greater" format="2">
  <advance width="1073"/>
  <unicode hex="003E"/>
  <outline>
    <contour>
      <point x="238" y="135" type="curve"/>
      <point x="962" y="533" type="line"/>
      <point x="980" y="594"/>
      <point x="977" y="676"/>
      <point x="962" y="735" type="curve"/>
      <point x="239" y="1134" type="line"/>
      <point x="178" y="1099"/>
      <point x="126" y="1012"/>
      <point x="118" y="928" type="curve"/>
      <point x="537" y="710" type="line" smooth="yes"/>
      <point x="577" y="690"/>
      <point x="659" y="654"/>
      <point x="697" y="640" type="curve"/>
      <point x="697" y="626" type="line"/>
      <point x="659" y="612"/>
      <point x="577" y="576"/>
      <point x="537" y="556" type="curve" smooth="yes"/>
      <point x="118" y="338" type="line"/>
      <point x="123" y="254"/>
      <point x="174" y="171"/>
    </contour>
  </outline>
</glyph>
<glyph name="question" format="2">
  <advance width="817"/>
  <unicode hex="003F"/>
  <outline>
    <contour>
      <point x="12" y="1286" type="curve"/>
      <point x="16" y="1218"/>
      <point x="59" y="1133"/>
      <point x="107" y="1096" type="curve"/>
      <point x="181" y="1135"/>
      <point x="265" y="1168"/>
      <point x="350" y="1168" type="curve" smooth="yes"/>
      <point x="464" y="1168"/>
      <point x="527" y="1106"/>
      <point x="527" y="1014" type="curve" smooth="yes"/>
      <point x="527" y="911"/>
      <point x="438" y="840"/>
      <point x="313" y="780" type="curve" smooth="yes"/>
      <point x="209" y="730" type="line"/>
      <point x="188" y="703" type="line"/>
      <point x="202" y="405" type="line"/>
      <point x="234" y="395"/>
      <point x="273" y="392"/>
      <point x="304" y="392" type="curve" smooth="yes"/>
      <point x="337" y="392"/>
      <point x="370" y="395"/>
      <point x="400" y="405" type="curve"/>
      <point x="418" y="583" type="line"/>
      <point x="541" y="649" type="line" smooth="yes"/>
      <point x="689" y="729"/>
      <point x="802" y="848"/>
      <point x="802" y="1041" type="curve" smooth="yes"/>
      <point x="802" y="1250"/>
      <point x="660" y="1395"/>
      <point x="409" y="1395" type="curve" smooth="yes"/>
      <point x="260" y="1395"/>
      <point x="122" y="1349"/>
    </contour>
    <contour>
      <point x="304" y="246" type="curve" smooth="yes"/>
      <point x="255" y="246"/>
      <point x="205" y="235"/>
      <point x="172" y="217" type="curve"/>
      <point x="160" y="195"/>
      <point x="153" y="142"/>
      <point x="153" y="110" type="curve" smooth="yes"/>
      <point x="153" y="78"/>
      <point x="160" y="27"/>
      <point x="172" y="5" type="curve"/>
      <point x="205" y="-14"/>
      <point x="255" y="-24"/>
      <point x="304" y="-24" type="curve" smooth="yes"/>
      <point x="351" y="-24"/>
      <point x="403" y="-14"/>
      <point x="435" y="5" type="curve"/>
      <point x="448" y="27"/>
      <point x="455" y="78"/>
      <point x="455" y="110" type="curve" smooth="yes"/>
      <point x="455" y="142"/>
      <point x="448" y="195"/>
      <point x="435" y="217" type="curve"/>
      <point x="403" y="235"/>
      <point x="351" y="246"/>
    </contour>
  </outline>
</glyph>
<glyph name="at" format="2">
  <advance width="1930"/>
  <unicode hex="0040"/>
  <outline>
    <contour>
      <point x="1359" y="322" type="curve" smooth="yes"/>
      <point x="1359" y="823" type="line"/>
      <point x="1281" y="900"/>
      <point x="1140" y="968"/>
      <point x="991" y="968" type="curve" smooth="yes"/>
      <point x="720" y="968"/>
      <point x="571" y="749"/>
      <point x="571" y="453" type="curve" smooth="yes"/>
      <point x="571" y="184"/>
      <point x="686" y="2"/>
      <point x="894" y="2" type="curve" smooth="yes"/>
      <point x="1055" y="2"/>
      <point x="1209" y="140"/>
      <point x="1260" y="255" type="curve"/>
      <point x="1167" y="376" type="line"/>
      <point x="1131" y="287"/>
      <point x="1035" y="200"/>
      <point x="953" y="200" type="curve" smooth="yes"/>
      <point x="857" y="200"/>
      <point x="823" y="294"/>
      <point x="823" y="464" type="curve" smooth="yes"/>
      <point x="823" y="638"/>
      <point x="867" y="783"/>
      <point x="991" y="783" type="curve" smooth="yes"/>
      <point x="1043" y="783"/>
      <point x="1084" y="765"/>
      <point x="1115" y="737" type="curve"/>
      <point x="1115" y="303" type="line" smooth="yes"/>
      <point x="1115" y="138"/>
      <point x="1240" y="9"/>
      <point x="1429" y="9" type="curve" smooth="yes"/>
      <point x="1640" y="9"/>
      <point x="1857" y="192"/>
      <point x="1857" y="586" type="curve" smooth="yes"/>
      <point x="1857" y="1074"/>
      <point x="1492" y="1364"/>
      <point x="997" y="1364" type="curve" smooth="yes"/>
      <point x="470" y="1364"/>
      <point x="89" y="979"/>
      <point x="89" y="447" type="curve" smooth="yes"/>
      <point x="89" y="-120"/>
      <point x="431" y="-392"/>
      <point x="908" y="-392" type="curve" smooth="yes"/>
      <point x="1070" y="-392"/>
      <point x="1259" y="-352"/>
      <point x="1392" y="-297" type="curve"/>
      <point x="1392" y="-238"/>
      <point x="1368" y="-162"/>
      <point x="1325" y="-117" type="curve"/>
      <point x="1201" y="-165"/>
      <point x="1067" y="-191"/>
      <point x="927" y="-191" type="curve" smooth="yes"/>
      <point x="576" y="-191"/>
      <point x="350" y="21"/>
      <point x="350" y="447" type="curve" smooth="yes"/>
      <point x="350" y="866"/>
      <point x="606" y="1170"/>
      <point x="997" y="1170" type="curve" smooth="yes"/>
      <point x="1361" y="1170"/>
      <point x="1599" y="948"/>
      <point x="1599" y="594" type="curve" smooth="yes"/>
      <point x="1599" y="299"/>
      <point x="1519" y="202"/>
      <point x="1433" y="202" type="curve" smooth="yes"/>
      <point x="1381" y="202"/>
      <point x="1359" y="235"/>
    </contour>
  </outline>
</glyph>
<glyph name="B" format="2">
  <advance width="1220"/>
  <unicode hex="0042"/>
  <anchor x="595" y="0" name="bottom"/>
  <anchor x="573" y="1464" name="top"/>
  <outline>
    <contour>
      <point x="180" y="1369" type="curve"/>
      <point x="166" y="1355" type="line"/>
      <point x="166" y="11" type="line"/>
      <point x="180" y="-3" type="line"/>
      <point x="341" y="-6"/>
      <point x="489" y="-10"/>
      <point x="647" y="-10" type="curve" smooth="yes"/>
      <point x="966" y="-10"/>
      <point x="1137" y="135"/>
      <point x="1137" y="388" type="curve" smooth="yes"/>
      <point x="1137" y="582"/>
      <point x="983" y="742"/>
      <point x="819" y="748" type="curve"/>
      <point x="819" y="718" type="line"/>
      <point x="962" y="735"/>
      <point x="1072" y="864"/>
      <point x="1072" y="1013" type="curve" smooth="yes"/>
      <point x="1072" y="1253"/>
      <point x="905" y="1376"/>
      <point x="619" y="1376" type="curve" smooth="yes"/>
      <point x="481" y="1376"/>
      <point x="333" y="1372"/>
    </contour>
    <contour>
      <point x="431" y="183" type="curve"/>
      <point x="431" y="1182" type="line"/>
      <point x="488" y="1180"/>
      <point x="564" y="1180"/>
      <point x="609" y="1180" type="curve" smooth="yes"/>
      <point x="769" y="1180"/>
      <point x="807" y="1087"/>
      <point x="807" y="999" type="curve" smooth="yes"/>
      <point x="807" y="913"/>
      <point x="767" y="815"/>
      <point x="606" y="815" type="curve" smooth="yes"/>
      <point x="328" y="815" type="line"/>
      <point x="328" y="618" type="line"/>
      <point x="628" y="618" type="line" smooth="yes"/>
      <point x="815" y="618"/>
      <point x="865" y="494"/>
      <point x="865" y="400" type="curve" smooth="yes"/>
      <point x="865" y="308"/>
      <point x="824" y="185"/>
      <point x="635" y="185" type="curve" smooth="yes"/>
      <point x="577" y="185"/>
      <point x="505" y="184"/>
    </contour>
  </outline>
</glyph>
<glyph name="C" format="2">
  <advance width="1213"/>
  <unicode hex="0043"/>
  <anchor x="648" y="0" name="bottom"/>
  <anchor x="648" y="1466" name="top"/>
  <outline>
    <contour>
      <point x="892" y="857" type="curve"/>
      <point x="928" y="848"/>
      <point x="958" y="842"/>
      <point x="997" y="842" type="curve" smooth="yes"/>
      <point x="1098" y="842"/>
      <point x="1150" y="892"/>
      <point x="1150" y="991" type="curve" smooth="yes"/>
      <point x="1150" y="1210"/>
      <point x="955" y="1395"/>
      <point x="652" y="1395" type="curve" smooth="yes"/>
      <point x="344" y="1395"/>
      <point x="85" y="1178"/>
      <point x="85" y="677" type="curve" smooth="yes"/>
      <point x="85" y="328"/>
      <point x="218" y="-28"/>
      <point x="621" y="-28" type="curve" smooth="yes"/>
      <point x="835" y="-28"/>
      <point x="1031" y="67"/>
      <point x="1144" y="178" type="curve"/>
      <point x="1131" y="241"/>
      <point x="1071" y="315"/>
      <point x="1017" y="352" type="curve"/>
      <point x="913" y="270"/>
      <point x="800" y="206"/>
      <point x="669" y="206" type="curve" smooth="yes"/>
      <point x="478" y="206"/>
      <point x="367" y="369"/>
      <point x="367" y="676" type="curve" smooth="yes"/>
      <point x="367" y="1004"/>
      <point x="453" y="1180"/>
      <point x="644" y="1180" type="curve" smooth="yes"/>
      <point x="840" y="1180"/>
      <point x="895" y="1016"/>
    </contour>
  </outline>
</glyph>
<glyph name="D" format="2">
  <advance width="1316"/>
  <unicode hex="0044"/>
  <guideline x="629" y="493" angle="90.0"/>
  <anchor x="623" y="0" name="bottom"/>
  <anchor x="629" y="1464" name="top"/>
  <outline>
    <contour>
      <point x="1229" y="683" type="curve" smooth="yes"/>
      <point x="1229" y="915"/>
      <point x="1194" y="1127"/>
      <point x="1010" y="1275" type="curve" smooth="yes"/>
      <point x="921" y="1347"/>
      <point x="761" y="1376"/>
      <point x="652" y="1376" type="curve" smooth="yes"/>
      <point x="485" y="1376"/>
      <point x="352" y="1375"/>
      <point x="180" y="1369" type="curve"/>
      <point x="166" y="1355" type="line"/>
      <point x="166" y="11" type="line"/>
      <point x="180" y="-3" type="line"/>
      <point x="354" y="-7"/>
      <point x="485" y="-11"/>
      <point x="652" y="-11" type="curve" smooth="yes"/>
      <point x="761" y="-11"/>
      <point x="921" y="18"/>
      <point x="1010" y="90" type="curve" smooth="yes"/>
      <point x="1196" y="238"/>
      <point x="1229" y="449"/>
    </contour>
    <contour>
      <point x="952" y="683" type="curve" smooth="yes"/>
      <point x="952" y="464"/>
      <point x="914" y="201"/>
      <point x="652" y="201" type="curve" smooth="yes"/>
      <point x="576" y="201"/>
      <point x="514" y="202"/>
      <point x="434" y="201" type="curve"/>
      <point x="434" y="1166" type="line"/>
      <point x="514" y="1165"/>
      <point x="576" y="1164"/>
      <point x="652" y="1164" type="curve" smooth="yes"/>
      <point x="914" y="1164"/>
      <point x="952" y="904"/>
    </contour>
  </outline>
</glyph>
<glyph name="E" format="2">
  <advance width="1140"/>
  <unicode hex="0045"/>
  <anchor x="619" y="0" name="bottom"/>
  <anchor x="925" y="0" name="ogonek"/>
  <anchor x="598" y="1464" name="top"/>
  <outline>
    <contour>
      <point x="165" y="1353" type="line"/>
      <point x="165" y="156" type="line" smooth="yes"/>
      <point x="165" y="57"/>
      <point x="223" y="-4"/>
      <point x="318" y="-4" type="curve" smooth="yes"/>
      <point x="428" y="-4" type="line"/>
      <point x="428" y="219" type="line" smooth="yes"/>
      <point x="428" y="265"/>
      <point x="430" y="298"/>
      <point x="430" y="342" type="curve" smooth="yes"/>
      <point x="430" y="1003" type="line" smooth="yes"/>
      <point x="430" y="1057"/>
      <point x="428" y="1089"/>
      <point x="428" y="1145" type="curve" smooth="yes"/>
      <point x="428" y="1366" type="line"/>
      <point x="178" y="1366" type="line"/>
    </contour>
    <contour>
      <point x="899" y="798" type="curve"/>
      <point x="559" y="798" type="line" smooth="yes"/>
      <point x="512" y="798"/>
      <point x="399" y="796"/>
      <point x="337" y="795" type="curve"/>
      <point x="337" y="581" type="line"/>
      <point x="399" y="580"/>
      <point x="512" y="578"/>
      <point x="559" y="578" type="curve" smooth="yes"/>
      <point x="899" y="578" type="line"/>
      <point x="909" y="613"/>
      <point x="914" y="658"/>
      <point x="914" y="688" type="curve" smooth="yes"/>
      <point x="914" y="717"/>
      <point x="909" y="765"/>
    </contour>
    <contour>
      <point x="1013" y="1366" type="curve"/>
      <point x="337" y="1366" type="line"/>
      <point x="337" y="1144" type="line"/>
      <point x="399" y="1142"/>
      <point x="512" y="1141"/>
      <point x="559" y="1141" type="curve" smooth="yes"/>
      <point x="1000" y="1141" type="line"/>
      <point x="1015" y="1181"/>
      <point x="1022" y="1230"/>
      <point x="1022" y="1260" type="curve" smooth="yes"/>
      <point x="1022" y="1290"/>
      <point x="1020" y="1326"/>
    </contour>
    <contour>
      <point x="1058" y="222" type="curve"/>
      <point x="568" y="222" type="line" smooth="yes"/>
      <point x="478" y="222"/>
      <point x="413" y="217"/>
      <point x="337" y="213" type="curve"/>
      <point x="337" y="-4" type="line"/>
      <point x="881" y="-4" type="line" smooth="yes"/>
      <point x="1020" y="-4"/>
      <point x="1058" y="68"/>
    </contour>
  </outline>
</glyph>
<glyph name="F" format="2">
  <advance width="1057"/>
  <unicode hex="0046"/>
  <anchor x="593" y="1464" name="top"/>
  <outline>
    <contour>
      <point x="435" y="0" type="curve"/>
      <point x="435" y="944" type="line" smooth="yes"/>
      <point x="435" y="1047"/>
      <point x="433" y="1159"/>
      <point x="433" y="1266" type="curve" smooth="yes"/>
      <point x="433" y="1366" type="line"/>
      <point x="180" y="1366" type="line"/>
      <point x="166" y="1354" type="line"/>
      <point x="166" y="0" type="line"/>
      <point x="210" y="-8"/>
      <point x="264" y="-10"/>
      <point x="303" y="-10" type="curve" smooth="yes"/>
      <point x="342" y="-10"/>
      <point x="390" y="-8"/>
    </contour>
    <contour>
      <point x="1004" y="1366" type="curve"/>
      <point x="325" y="1366" type="line"/>
      <point x="325" y="1141" type="line"/>
      <point x="407" y="1139"/>
      <point x="495" y="1137"/>
      <point x="599" y="1137" type="curve" smooth="yes"/>
      <point x="870" y="1137" type="line" smooth="yes"/>
      <point x="969" y="1137"/>
      <point x="1017" y="1174"/>
      <point x="1017" y="1262" type="curve" smooth="yes"/>
      <point x="1017" y="1294"/>
      <point x="1013" y="1336"/>
    </contour>
    <contour>
      <point x="890" y="794" type="curve"/>
      <point x="496" y="794" type="line" smooth="yes"/>
      <point x="443" y="794"/>
      <point x="378" y="792"/>
      <point x="333" y="791" type="curve"/>
      <point x="333" y="576" type="line"/>
      <point x="378" y="575"/>
      <point x="443" y="573"/>
      <point x="496" y="573" type="curve" smooth="yes"/>
      <point x="890" y="573" type="line"/>
      <point x="899" y="607"/>
      <point x="904" y="654"/>
      <point x="904" y="684" type="curve" smooth="yes"/>
      <point x="904" y="713"/>
      <point x="899" y="762"/>
    </contour>
  </outline>
</glyph>
<glyph name="G" format="2">
  <advance width="1298"/>
  <unicode hex="0047"/>
  <anchor x="683" y="0" name="bottom"/>
  <anchor x="695" y="1464" name="top"/>
  <outline>
    <contour>
      <point x="1180" y="1249" type="curve"/>
      <point x="1053" y="1336"/>
      <point x="878" y="1394"/>
      <point x="703" y="1394" type="curve" smooth="yes"/>
      <point x="390" y="1394"/>
      <point x="85" y="1170"/>
      <point x="85" y="674" type="curve" smooth="yes"/>
      <point x="85" y="270"/>
      <point x="258" y="-28"/>
      <point x="678" y="-28" type="curve" smooth="yes"/>
      <point x="875" y="-28"/>
      <point x="1065" y="14"/>
      <point x="1183" y="56" type="curve"/>
      <point x="1044" y="246" type="line"/>
      <point x="978" y="223"/>
      <point x="859" y="187"/>
      <point x="724" y="187" type="curve" smooth="yes"/>
      <point x="486" y="187"/>
      <point x="360" y="339"/>
      <point x="360" y="671" type="curve" smooth="yes"/>
      <point x="360" y="1028"/>
      <point x="506" y="1169"/>
      <point x="714" y="1169" type="curve" smooth="yes"/>
      <point x="834" y="1169"/>
      <point x="960" y="1122"/>
      <point x="1057" y="1054" type="curve"/>
      <point x="1111" y="1090"/>
      <point x="1172" y="1171"/>
    </contour>
    <contour>
      <point x="930" y="389" type="curve" smooth="yes"/>
      <point x="930" y="52" type="line"/>
      <point x="1183" y="56" type="line"/>
      <point x="1183" y="579" type="line"/>
      <point x="954" y="657" type="line"/>
      <point x="934" y="580"/>
      <point x="930" y="482"/>
    </contour>
    <contour>
      <point x="1000" y="748" type="curve" smooth="yes"/>
      <point x="690" y="748" type="line"/>
      <point x="679" y="716"/>
      <point x="670" y="672"/>
      <point x="670" y="636" type="curve" smooth="yes"/>
      <point x="670" y="546"/>
      <point x="722" y="522"/>
      <point x="800" y="522" type="curve" smooth="yes"/>
      <point x="1183" y="522" type="line"/>
      <point x="1183" y="579" type="line" smooth="yes"/>
      <point x="1183" y="682"/>
      <point x="1138" y="748"/>
    </contour>
  </outline>
</glyph>
<glyph name="H" format="2">
  <advance width="1361"/>
  <unicode hex="0048"/>
  <anchor x="681" y="0" name="bottom"/>
  <anchor x="680" y="1465" name="top"/>
  <outline>
    <contour>
      <point x="539" y="591" type="curve" smooth="yes"/>
      <point x="822" y="591" type="line"/>
      <point x="846" y="591"/>
      <point x="904" y="593"/>
      <point x="928" y="593" type="curve" smooth="yes"/>
      <point x="981" y="593"/>
      <point x="1036" y="591"/>
      <point x="1089" y="591" type="curve"/>
      <point x="1089" y="818" type="line"/>
      <point x="1036" y="818"/>
      <point x="981" y="816"/>
      <point x="928" y="816" type="curve" smooth="yes"/>
      <point x="904" y="816"/>
      <point x="846" y="818"/>
      <point x="822" y="818" type="curve" smooth="yes"/>
      <point x="539" y="818" type="line" smooth="yes"/>
      <point x="516" y="818"/>
      <point x="457" y="816"/>
      <point x="433" y="816" type="curve" smooth="yes"/>
      <point x="380" y="816"/>
      <point x="325" y="818"/>
      <point x="272" y="818" type="curve"/>
      <point x="272" y="591" type="line"/>
      <point x="325" y="591"/>
      <point x="380" y="593"/>
      <point x="433" y="593" type="curve" smooth="yes"/>
      <point x="457" y="593"/>
      <point x="516" y="591"/>
    </contour>
    <contour>
      <point x="435" y="0" type="curve"/>
      <point x="435" y="445" type="line" smooth="yes"/>
      <point x="435" y="501"/>
      <point x="433" y="539"/>
      <point x="433" y="593" type="curve" smooth="yes"/>
      <point x="433" y="816" type="line" smooth="yes"/>
      <point x="433" y="870"/>
      <point x="435" y="908"/>
      <point x="435" y="964" type="curve" smooth="yes"/>
      <point x="435" y="1366" type="line"/>
      <point x="392" y="1374"/>
      <point x="338" y="1376"/>
      <point x="300" y="1376" type="curve" smooth="yes"/>
      <point x="265" y="1376"/>
      <point x="208" y="1374"/>
      <point x="166" y="1366" type="curve"/>
      <point x="166" y="0" type="line"/>
      <point x="208" y="-8"/>
      <point x="265" y="-10"/>
      <point x="300" y="-10" type="curve" smooth="yes"/>
      <point x="338" y="-10"/>
      <point x="392" y="-8"/>
    </contour>
    <contour>
      <point x="926" y="445" type="curve" smooth="yes"/>
      <point x="926" y="0" type="line"/>
      <point x="970" y="-8"/>
      <point x="1024" y="-10"/>
      <point x="1063" y="-10" type="curve" smooth="yes"/>
      <point x="1102" y="-10"/>
      <point x="1150" y="-8"/>
      <point x="1195" y="0" type="curve"/>
      <point x="1195" y="1366" type="line"/>
      <point x="1153" y="1374"/>
      <point x="1096" y="1376"/>
      <point x="1060" y="1376" type="curve" smooth="yes"/>
      <point x="1022" y="1376"/>
      <point x="969" y="1374"/>
      <point x="926" y="1366" type="curve"/>
      <point x="926" y="964" type="line" smooth="yes"/>
      <point x="926" y="908"/>
      <point x="928" y="870"/>
      <point x="928" y="816" type="curve" smooth="yes"/>
      <point x="928" y="593" type="line" smooth="yes"/>
      <point x="928" y="539"/>
      <point x="926" y="501"/>
    </contour>
  </outline>
</glyph>
<glyph name="I" format="2">
  <advance width="612"/>
  <unicode hex="0049"/>
  <anchor x="305" y="0" name="bottom"/>
  <anchor x="440" y="0" name="ogonek"/>
  <anchor x="306" y="1465" name="top"/>
  <outline>
    <contour>
      <point x="172" y="1366" type="curve"/>
      <point x="172" y="0" type="line"/>
      <point x="213" y="-8"/>
      <point x="270" y="-10"/>
      <point x="305" y="-10" type="curve" smooth="yes"/>
      <point x="344" y="-10"/>
      <point x="397" y="-8"/>
      <point x="440" y="0" type="curve"/>
      <point x="440" y="1366" type="line"/>
      <point x="397" y="1374"/>
      <point x="344" y="1376"/>
      <point x="305" y="1376" type="curve" smooth="yes"/>
      <point x="270" y="1376"/>
      <point x="213" y="1374"/>
    </contour>
  </outline>
</glyph>
<glyph name="J" format="2">
  <advance width="920"/>
  <unicode hex="004A"/>
  <anchor x="643" y="1464" name="top"/>
  <outline>
    <contour>
      <point x="115" y="266" type="curve"/>
      <point x="66" y="211"/>
      <point x="31" y="136"/>
      <point x="20" y="66" type="curve"/>
      <point x="111" y="9"/>
      <point x="234" y="-20"/>
      <point x="339" y="-20" type="curve" smooth="yes"/>
      <point x="701" y="-20"/>
      <point x="777" y="207"/>
      <point x="777" y="511" type="curve" smooth="yes"/>
      <point x="777" y="1366" type="line"/>
      <point x="734" y="1374"/>
      <point x="681" y="1376"/>
      <point x="643" y="1376" type="curve" smooth="yes"/>
      <point x="607" y="1376"/>
      <point x="550" y="1374"/>
      <point x="508" y="1366" type="curve"/>
      <point x="508" y="481" type="line" smooth="yes"/>
      <point x="508" y="296"/>
      <point x="466" y="203"/>
      <point x="312" y="203" type="curve" smooth="yes"/>
      <point x="244" y="203"/>
      <point x="173" y="230"/>
    </contour>
  </outline>
</glyph>
<glyph name="K" format="2">
  <advance width="1218"/>
  <unicode hex="004B"/>
  <anchor x="642" y="0" name="bottom"/>
  <anchor x="635" y="1464" name="top"/>
  <outline>
    <contour>
      <point x="166" y="1366" type="curve"/>
      <point x="166" y="0" type="line"/>
      <point x="208" y="-8"/>
      <point x="265" y="-10"/>
      <point x="300" y="-10" type="curve" smooth="yes"/>
      <point x="338" y="-10"/>
      <point x="392" y="-8"/>
      <point x="435" y="0" type="curve"/>
      <point x="435" y="1366" type="line"/>
      <point x="392" y="1374"/>
      <point x="338" y="1376"/>
      <point x="300" y="1376" type="curve" smooth="yes"/>
      <point x="265" y="1376"/>
      <point x="208" y="1374"/>
    </contour>
    <contour>
      <point x="1195" y="67" type="curve"/>
      <point x="1154" y="104"/>
      <point x="1134" y="134"/>
      <point x="1098" y="235" type="curve" smooth="yes"/>
      <point x="1004" y="503" type="line" smooth="yes"/>
      <point x="951" y="650"/>
      <point x="885" y="748"/>
      <point x="670" y="748" type="curve" smooth="yes"/>
      <point x="298" y="748" type="line"/>
      <point x="298" y="579" type="line"/>
      <point x="409" y="588"/>
      <point x="494" y="593"/>
      <point x="545" y="593" type="curve" smooth="yes"/>
      <point x="652" y="593"/>
      <point x="709" y="542"/>
      <point x="757" y="404" type="curve" smooth="yes"/>
      <point x="848" y="142" type="line" smooth="yes"/>
      <point x="882" y="37"/>
      <point x="916" y="-15"/>
      <point x="1016" y="-15" type="curve" smooth="yes"/>
      <point x="1086" y="-15"/>
      <point x="1160" y="15"/>
    </contour>
    <contour>
      <point x="820" y="1276" type="curve" smooth="yes"/>
      <point x="598" y="881" type="line" smooth="yes"/>
      <point x="573" y="833"/>
      <point x="561" y="819"/>
      <point x="515" y="819" type="curve" smooth="yes"/>
      <point x="447" y="818"/>
      <point x="367" y="816"/>
      <point x="298" y="814" type="curve"/>
      <point x="298" y="662" type="line"/>
      <point x="538" y="662" type="line" smooth="yes"/>
      <point x="705" y="662"/>
      <point x="802" y="738"/>
      <point x="869" y="862" type="curve" smooth="yes"/>
      <point x="1141" y="1347" type="line"/>
      <point x="1125" y="1367" type="line"/>
      <point x="1073" y="1372"/>
      <point x="1012" y="1375"/>
      <point x="967" y="1375" type="curve" smooth="yes"/>
      <point x="885" y="1375"/>
      <point x="856" y="1343"/>
    </contour>
  </outline>
</glyph>
<glyph name="L" format="2">
  <advance width="1035"/>
  <unicode hex="004C"/>
  <anchor x="573" y="0" name="bottom"/>
  <anchor x="1034" y="786" name="periodcentered"/>
  <anchor x="297" y="1458" name="top"/>
  <anchor x="496" y="888" name="topright"/>
  <outline>
    <contour>
      <point x="434" y="-4" type="line"/>
      <point x="434" y="1207" type="line" smooth="yes"/>
      <point x="434" y="1326"/>
      <point x="383" y="1377"/>
      <point x="278" y="1377" type="curve" smooth="yes"/>
      <point x="178" y="1377" type="line"/>
      <point x="165" y="1364" type="line"/>
      <point x="165" y="157" type="line" smooth="yes"/>
      <point x="165" y="55"/>
      <point x="226" y="-4"/>
      <point x="320" y="-4" type="curve" smooth="yes"/>
    </contour>
    <contour>
      <point x="988" y="228" type="curve"/>
      <point x="616" y="228" type="line" smooth="yes"/>
      <point x="490" y="228"/>
      <point x="329" y="217"/>
      <point x="179" y="191" type="curve"/>
      <point x="320" y="-4" type="line"/>
      <point x="806" y="-4" type="line" smooth="yes"/>
      <point x="937" y="-4"/>
      <point x="988" y="54"/>
    </contour>
  </outline>
</glyph>
<glyph name="M" format="2">
  <advance width="1642"/>
  <unicode hex="004D"/>
  <anchor x="821" y="0" name="bottom"/>
  <anchor x="821" y="1464" name="top"/>
  <outline>
    <contour>
      <point x="234" y="1365" type="curve"/>
      <point x="128" y="3" type="line"/>
      <point x="165" y="-7"/>
      <point x="219" y="-11"/>
      <point x="263" y="-11" type="curve" smooth="yes"/>
      <point x="304" y="-11"/>
      <point x="343" y="-9"/>
      <point x="382" y="-2" type="curve"/>
      <point x="421" y="639" type="line" smooth="yes"/>
      <point x="428" y="765"/>
      <point x="435" y="949"/>
      <point x="437" y="1074" type="curve"/>
      <point x="449" y="1074" type="line"/>
      <point x="684" y="205" type="line"/>
      <point x="723" y="198"/>
      <point x="784" y="195"/>
      <point x="820" y="195" type="curve" smooth="yes"/>
      <point x="858" y="195"/>
      <point x="918" y="198"/>
      <point x="958" y="205" type="curve"/>
      <point x="1193" y="1074" type="line"/>
      <point x="1205" y="1074" type="line"/>
      <point x="1207" y="949"/>
      <point x="1214" y="765"/>
      <point x="1221" y="639" type="curve" smooth="yes"/>
      <point x="1260" y="-2" type="line"/>
      <point x="1299" y="-9"/>
      <point x="1337" y="-11"/>
      <point x="1378" y="-11" type="curve" smooth="yes"/>
      <point x="1421" y="-11"/>
      <point x="1476" y="-7"/>
      <point x="1514" y="3" type="curve"/>
      <point x="1408" y="1365" type="line"/>
      <point x="1349" y="1375"/>
      <point x="1273" y="1377"/>
      <point x="1227" y="1377" type="curve" smooth="yes"/>
      <point x="1180" y="1377"/>
      <point x="1116" y="1375"/>
      <point x="1057" y="1365" type="curve"/>
      <point x="904" y="809" type="line" smooth="yes"/>
      <point x="889" y="755"/>
      <point x="840" y="547"/>
      <point x="827" y="468" type="curve"/>
      <point x="815" y="468" type="line"/>
      <point x="802" y="547"/>
      <point x="753" y="755"/>
      <point x="738" y="809" type="curve" smooth="yes"/>
      <point x="585" y="1365" type="line"/>
      <point x="528" y="1375"/>
      <point x="462" y="1377"/>
      <point x="415" y="1377" type="curve" smooth="yes"/>
      <point x="368" y="1377"/>
      <point x="292" y="1375"/>
    </contour>
  </outline>
</glyph>
<glyph name="N" format="2">
  <advance width="1376"/>
  <unicode hex="004E"/>
  <anchor x="688" y="0" name="bottom"/>
  <anchor x="695" y="1464" name="top"/>
  <outline>
    <contour>
      <point x="166" y="1362" type="curve"/>
      <point x="166" y="0" type="line"/>
      <point x="208" y="-8"/>
      <point x="260" y="-10"/>
      <point x="293" y="-10" type="curve" smooth="yes"/>
      <point x="328" y="-10"/>
      <point x="372" y="-8"/>
      <point x="416" y="0" type="curve"/>
      <point x="416" y="507" type="line" smooth="yes"/>
      <point x="416" y="665"/>
      <point x="407" y="898"/>
      <point x="395" y="1053" type="curve"/>
      <point x="414" y="1058" type="line"/>
      <point x="483" y="1366" type="line"/>
      <point x="426" y="1374"/>
      <point x="363" y="1376"/>
      <point x="325" y="1376" type="curve" smooth="yes"/>
      <point x="289" y="1376"/>
      <point x="208" y="1371"/>
    </contour>
    <contour>
      <point x="522" y="775" type="curve" smooth="yes"/>
      <point x="891" y="0" type="line"/>
      <point x="1110" y="151" type="line"/>
      <point x="976" y="295" type="line"/>
      <point x="942" y="373"/>
      <point x="897" y="481"/>
      <point x="846" y="592" type="curve" smooth="yes"/>
      <point x="483" y="1366" type="line"/>
      <point x="277" y="1202" type="line"/>
      <point x="402" y="1056" type="line"/>
      <point x="434" y="975"/>
      <point x="475" y="876"/>
    </contour>
    <contour>
      <point x="1210" y="1365" type="line"/>
      <point x="1197" y="1377" type="line"/>
      <point x="1110" y="1377" type="line" smooth="yes"/>
      <point x="1004" y="1377"/>
      <point x="962" y="1332"/>
      <point x="962" y="1213" type="curve" smooth="yes"/>
      <point x="962" y="846" type="line" smooth="yes"/>
      <point x="962" y="708"/>
      <point x="969" y="472"/>
      <point x="983" y="298" type="curve"/>
      <point x="962" y="293" type="line"/>
      <point x="891" y="0" type="line"/>
      <point x="947" y="-8"/>
      <point x="1008" y="-10"/>
      <point x="1048" y="-10" type="curve" smooth="yes"/>
      <point x="1089" y="-10"/>
      <point x="1167" y="-5"/>
      <point x="1210" y="4" type="curve"/>
    </contour>
  </outline>
</glyph>
<glyph name="O" format="2">
  <advance width="1325"/>
  <unicode hex="004F"/>
  <anchor x="662" y="0" name="bottom"/>
  <anchor x="863" y="3" name="ogonek"/>
  <anchor x="662" y="1464" name="top"/>
  <anchor x="1071" y="1340" name="topright"/>
  <outline>
    <contour>
      <point x="366" y="684" type="curve" smooth="yes"/>
      <point x="366" y="910"/>
      <point x="408" y="1185"/>
      <point x="662" y="1185" type="curve" smooth="yes"/>
      <point x="917" y="1185"/>
      <point x="959" y="910"/>
      <point x="959" y="684" type="curve" smooth="yes"/>
      <point x="959" y="458"/>
      <point x="917" y="181"/>
      <point x="662" y="181" type="curve" smooth="yes"/>
      <point x="408" y="181"/>
      <point x="366" y="458"/>
    </contour>
    <contour>
      <point x="85" y="684" type="curve" smooth="yes"/>
      <point x="85" y="270"/>
      <point x="267" y="-28"/>
      <point x="662" y="-28" type="curve" smooth="yes"/>
      <point x="1055" y="-28"/>
      <point x="1240" y="266"/>
      <point x="1240" y="684" type="curve" smooth="yes"/>
      <point x="1240" y="1097"/>
      <point x="1057" y="1394"/>
      <point x="662" y="1394" type="curve" smooth="yes"/>
      <point x="270" y="1394"/>
      <point x="85" y="1101"/>
    </contour>
  </outline>
</glyph>
<glyph name="P" format="2">
  <advance width="1157"/>
  <unicode hex="0050"/>
  <anchor x="593" y="1464" name="top"/>
  <outline>
    <contour>
      <point x="1093" y="915" type="curve" smooth="yes"/>
      <point x="1093" y="1227"/>
      <point x="893" y="1376"/>
      <point x="619" y="1376" type="curve" smooth="yes"/>
      <point x="474" y="1376"/>
      <point x="341" y="1372"/>
      <point x="180" y="1369" type="curve"/>
      <point x="166" y="1355" type="line"/>
      <point x="166" y="0" type="line"/>
      <point x="208" y="-8"/>
      <point x="265" y="-10"/>
      <point x="300" y="-10" type="curve" smooth="yes"/>
      <point x="338" y="-10"/>
      <point x="392" y="-8"/>
      <point x="435" y="0" type="curve"/>
      <point x="435" y="1169" type="line"/>
      <point x="495" y="1167"/>
      <point x="553" y="1167"/>
      <point x="601" y="1167" type="curve" smooth="yes"/>
      <point x="780" y="1167"/>
      <point x="817" y="1022"/>
      <point x="817" y="915" type="curve" smooth="yes"/>
      <point x="817" y="807"/>
      <point x="780" y="662"/>
      <point x="601" y="662" type="curve" smooth="yes"/>
      <point x="553" y="662"/>
      <point x="381" y="658"/>
      <point x="322" y="655" type="curve"/>
      <point x="322" y="454" type="line"/>
      <point x="619" y="454" type="line" smooth="yes"/>
      <point x="895" y="454"/>
      <point x="1093" y="611"/>
    </contour>
  </outline>
</glyph>
<glyph name="Q" format="2">
  <advance width="1322"/>
  <unicode hex="0051"/>
  <outline>
    <contour>
      <point x="362" y="684" type="curve" smooth="yes"/>
      <point x="362" y="912"/>
      <point x="405" y="1185"/>
      <point x="661" y="1185" type="curve" smooth="yes"/>
      <point x="916" y="1185"/>
      <point x="958" y="912"/>
      <point x="958" y="684" type="curve" smooth="yes"/>
      <point x="958" y="457"/>
      <point x="916" y="183"/>
      <point x="661" y="183" type="curve" smooth="yes"/>
      <point x="405" y="183"/>
      <point x="362" y="457"/>
    </contour>
    <contour>
      <point x="85" y="684" type="curve" smooth="yes"/>
      <point x="85" y="271"/>
      <point x="262" y="-28"/>
      <point x="664" y="-28" type="curve" smooth="yes"/>
      <point x="730" y="-28"/>
      <point x="775" y="0"/>
      <point x="819" y="31" type="curve" smooth="yes"/>
      <point x="1111" y="34"/>
      <point x="1237" y="356"/>
      <point x="1237" y="683" type="curve" smooth="yes"/>
      <point x="1237" y="1095"/>
      <point x="1060" y="1394"/>
      <point x="661" y="1394" type="curve" smooth="yes"/>
      <point x="263" y="1394"/>
      <point x="85" y="1098"/>
    </contour>
    <contour>
      <point x="573" y="56" type="line"/>
      <point x="888" y="-205" type="line" smooth="yes"/>
      <point x="937" y="-246"/>
      <point x="993" y="-273"/>
      <point x="1073" y="-273" type="curve" smooth="yes"/>
      <point x="1162" y="-273"/>
      <point x="1243" y="-203"/>
      <point x="1246" y="-80" type="curve"/>
      <point x="1170" y="-80"/>
      <point x="1109" y="-60"/>
      <point x="994" y="22" type="curve" smooth="yes"/>
      <point x="828" y="140" type="line"/>
    </contour>
  </outline>
</glyph>
<glyph name="R" format="2">
  <advance width="1216"/>
  <unicode hex="0052"/>
  <anchor x="637" y="0" name="bottom"/>
  <anchor x="600" y="1464" name="top"/>
  <outline>
    <contour>
      <point x="1106" y="953" type="curve" smooth="yes"/>
      <point x="1106" y="1238"/>
      <point x="913" y="1376"/>
      <point x="635" y="1376" type="curve" smooth="yes"/>
      <point x="491" y="1376"/>
      <point x="341" y="1372"/>
      <point x="180" y="1369" type="curve"/>
      <point x="166" y="1355" type="line"/>
      <point x="166" y="0" type="line"/>
      <point x="208" y="-8"/>
      <point x="264" y="-10"/>
      <point x="299" y="-10" type="curve" smooth="yes"/>
      <point x="337" y="-10"/>
      <point x="389" y="-8"/>
      <point x="432" y="0" type="curve"/>
      <point x="432" y="1171" type="line"/>
      <point x="495" y="1169"/>
      <point x="567" y="1169"/>
      <point x="616" y="1169" type="curve" smooth="yes"/>
      <point x="789" y="1169"/>
      <point x="831" y="1066"/>
      <point x="831" y="953" type="curve" smooth="yes"/>
      <point x="831" y="845"/>
      <point x="789" y="737"/>
      <point x="616" y="737" type="curve" smooth="yes"/>
      <point x="556" y="737"/>
      <point x="405" y="733"/>
      <point x="323" y="729" type="curve"/>
      <point x="323" y="524" type="line"/>
      <point x="554" y="524" type="line" smooth="yes"/>
      <point x="669" y="524"/>
      <point x="711" y="461"/>
      <point x="739" y="381" type="curve" smooth="yes"/>
      <point x="825" y="143" type="line" smooth="yes"/>
      <point x="862" y="38"/>
      <point x="895" y="-16"/>
      <point x="994" y="-16" type="curve" smooth="yes"/>
      <point x="1063" y="-16"/>
      <point x="1139" y="16"/>
      <point x="1173" y="65" type="curve"/>
      <point x="1133" y="95"/>
      <point x="1104" y="140"/>
      <point x="1079" y="211" type="curve" smooth="yes"/>
      <point x="1005" y="411" type="line" smooth="yes"/>
      <point x="975" y="494"/>
      <point x="927" y="563"/>
      <point x="857" y="588" type="curve"/>
      <point x="986" y="633"/>
      <point x="1106" y="764"/>
    </contour>
  </outline>
</glyph>
<glyph name="S" format="2">
  <advance width="1113"/>
  <unicode hex="0053"/>
  <anchor x="552" y="0" name="bottom"/>
  <anchor x="565" y="1464" name="top"/>
  <outline>
    <contour>
      <point x="45" y="121" type="curve"/>
      <point x="186" y="27"/>
      <point x="374" y="-28"/>
      <point x="538" y="-28" type="curve" smooth="yes"/>
      <point x="878" y="-28"/>
      <point x="1046" y="151"/>
      <point x="1046" y="387" type="curve" smooth="yes"/>
      <point x="1046" y="564"/>
      <point x="928" y="697"/>
      <point x="746" y="772" type="curve" smooth="yes"/>
      <point x="503" y="873" type="line" smooth="yes"/>
      <point x="410" y="911"/>
      <point x="363" y="956"/>
      <point x="363" y="1025" type="curve" smooth="yes"/>
      <point x="363" y="1103"/>
      <point x="429" y="1176"/>
      <point x="560" y="1176" type="curve" smooth="yes"/>
      <point x="665" y="1176"/>
      <point x="809" y="1131"/>
      <point x="912" y="1080" type="curve"/>
      <point x="966" y="1129"/>
      <point x="1002" y="1208"/>
      <point x="1005" y="1285" type="curve"/>
      <point x="901" y="1338"/>
      <point x="736" y="1394"/>
      <point x="558" y="1394" type="curve" smooth="yes"/>
      <point x="288" y="1394"/>
      <point x="88" y="1225"/>
      <point x="88" y="991" type="curve" smooth="yes"/>
      <point x="88" y="809"/>
      <point x="202" y="702"/>
      <point x="369" y="632" type="curve" smooth="yes"/>
      <point x="610" y="531" type="line" smooth="yes"/>
      <point x="724" y="484"/>
      <point x="763" y="418"/>
      <point x="763" y="350" type="curve" smooth="yes"/>
      <point x="763" y="263"/>
      <point x="694" y="191"/>
      <point x="556" y="191" type="curve" smooth="yes"/>
      <point x="415" y="191"/>
      <point x="266" y="252"/>
      <point x="152" y="324" type="curve"/>
      <point x="99" y="279"/>
      <point x="52" y="197"/>
    </contour>
  </outline>
</glyph>
<glyph name="T" format="2">
  <advance width="1002"/>
  <unicode hex="0054"/>
  <anchor x="503" y="0" name="bottom"/>
  <anchor x="502" y="1464" name="top"/>
  <outline>
    <contour>
      <point x="26" y="1142" type="curve"/>
      <point x="248" y="1142" type="line" smooth="yes"/>
      <point x="276" y="1142"/>
      <point x="340" y="1144"/>
      <point x="369" y="1144" type="curve" smooth="yes"/>
      <point x="638" y="1144" type="line" smooth="yes"/>
      <point x="666" y="1144"/>
      <point x="731" y="1142"/>
      <point x="759" y="1142" type="curve" smooth="yes"/>
      <point x="852" y="1142" type="line" smooth="yes"/>
      <point x="951" y="1142"/>
      <point x="996" y="1174"/>
      <point x="996" y="1262" type="curve" smooth="yes"/>
      <point x="996" y="1296"/>
      <point x="991" y="1338"/>
      <point x="982" y="1366" type="curve"/>
      <point x="26" y="1366" type="line"/>
      <point x="18" y="1326"/>
      <point x="16" y="1285"/>
      <point x="16" y="1253" type="curve" smooth="yes"/>
      <point x="16" y="1222"/>
      <point x="18" y="1181"/>
    </contour>
    <contour>
      <point x="369" y="996" type="curve" smooth="yes"/>
      <point x="369" y="0" type="line"/>
      <point x="413" y="-8"/>
      <point x="465" y="-10"/>
      <point x="503" y="-10" type="curve" smooth="yes"/>
      <point x="541" y="-10"/>
      <point x="593" y="-8"/>
      <point x="638" y="0" type="curve"/>
      <point x="638" y="996" type="line" smooth="yes"/>
      <point x="638" y="1050"/>
      <point x="636" y="1088"/>
      <point x="636" y="1144" type="curve" smooth="yes"/>
      <point x="636" y="1255" type="line"/>
      <point x="370" y="1255" type="line"/>
      <point x="370" y="1144" type="line" smooth="yes"/>
      <point x="370" y="1088"/>
      <point x="369" y="1050"/>
    </contour>
  </outline>
</glyph>
<glyph name="U" format="2">
  <advance width="1342"/>
  <unicode hex="0055"/>
  <anchor x="671" y="0" name="bottom"/>
  <anchor x="894" y="8" name="ogonek"/>
  <anchor x="667" y="1464" name="top"/>
  <anchor x="1195" y="1366" name="topright"/>
  <outline>
    <contour>
      <point x="1195" y="493" type="curve" smooth="yes"/>
      <point x="1195" y="1366" type="line"/>
      <point x="1153" y="1374"/>
      <point x="1093" y="1376"/>
      <point x="1057" y="1376" type="curve" smooth="yes"/>
      <point x="1019" y="1376"/>
      <point x="969" y="1374"/>
      <point x="926" y="1366" type="curve"/>
      <point x="926" y="491" type="line" smooth="yes"/>
      <point x="926" y="290"/>
      <point x="847" y="187"/>
      <point x="671" y="187" type="curve" smooth="yes"/>
      <point x="496" y="187"/>
      <point x="416" y="290"/>
      <point x="416" y="491" type="curve" smooth="yes"/>
      <point x="416" y="1207" type="line" smooth="yes"/>
      <point x="416" y="1326"/>
      <point x="366" y="1377"/>
      <point x="261" y="1377" type="curve" smooth="yes"/>
      <point x="161" y="1377" type="line"/>
      <point x="148" y="1364" type="line"/>
      <point x="148" y="493" type="line" smooth="yes"/>
      <point x="148" y="158"/>
      <point x="344" y="-28"/>
      <point x="671" y="-28" type="curve" smooth="yes"/>
      <point x="998" y="-28"/>
      <point x="1195" y="158"/>
    </contour>
  </outline>
</glyph>
<glyph name="V" format="2">
  <advance width="1182"/>
  <unicode hex="0056"/>
  <anchor x="591" y="0" name="bottom"/>
  <anchor x="598" y="1464" name="top"/>
  <outline>
    <contour>
      <point x="907" y="1366" type="curve"/>
      <point x="617" y="230" type="line"/>
      <point x="606" y="230"/>
      <point x="601" y="234"/>
      <point x="597" y="253" type="curve" smooth="yes"/>
      <point x="576" y="364"/>
      <point x="546" y="499"/>
      <point x="516" y="607" type="curve" smooth="yes"/>
      <point x="337" y="1250" type="line" smooth="yes"/>
      <point x="311" y="1343"/>
      <point x="269" y="1382"/>
      <point x="192" y="1382" type="curve" smooth="yes"/>
      <point x="133" y="1382"/>
      <point x="78" y="1364"/>
      <point x="29" y="1342" type="curve"/>
      <point x="378" y="114" type="line" smooth="yes"/>
      <point x="406" y="17"/>
      <point x="459" y="-11"/>
      <point x="561" y="-11" type="curve" smooth="yes"/>
      <point x="630" y="-11"/>
      <point x="708" y="-7"/>
      <point x="772" y="-1" type="curve"/>
      <point x="1158" y="1343" type="line"/>
      <point x="1146" y="1359" type="line"/>
      <point x="1111" y="1371"/>
      <point x="1058" y="1376"/>
      <point x="1023" y="1376" type="curve" smooth="yes"/>
      <point x="986" y="1376"/>
      <point x="945" y="1375"/>
    </contour>
  </outline>
</glyph>
<glyph name="W" format="2">
  <advance width="1756"/>
  <unicode hex="0057"/>
  <anchor x="881" y="0" name="bottom"/>
  <anchor x="881" y="1464" name="top"/>
  <outline>
    <contour>
      <point x="45" y="1351" type="curve"/>
      <point x="288" y="115" type="line" smooth="yes"/>
      <point x="310" y="4"/>
      <point x="376" y="-11"/>
      <point x="462" y="-11" type="curve" smooth="yes"/>
      <point x="533" y="-11"/>
      <point x="624" y="-6"/>
      <point x="688" y="1" type="curve"/>
      <point x="795" y="597" type="line" smooth="yes"/>
      <point x="821" y="743"/>
      <point x="850" y="927"/>
      <point x="871" y="1075" type="curve"/>
      <point x="885" y="1075" type="line"/>
      <point x="903" y="927"/>
      <point x="931" y="741"/>
      <point x="954" y="597" type="curve" smooth="yes"/>
      <point x="1035" y="114" type="line" smooth="yes"/>
      <point x="1053" y="4"/>
      <point x="1119" y="-11"/>
      <point x="1200" y="-11" type="curve" smooth="yes"/>
      <point x="1269" y="-11"/>
      <point x="1370" y="-6"/>
      <point x="1432" y="2" type="curve"/>
      <point x="1708" y="1342" type="line"/>
      <point x="1695" y="1359" type="line"/>
      <point x="1658" y="1370"/>
      <point x="1609" y="1376"/>
      <point x="1567" y="1376" type="curve" smooth="yes"/>
      <point x="1530" y="1376"/>
      <point x="1486" y="1374"/>
      <point x="1447" y="1366" type="curve"/>
      <point x="1314" y="644" type="line" smooth="yes"/>
      <point x="1292" y="522"/>
      <point x="1263" y="339"/>
      <point x="1249" y="223" type="curve"/>
      <point x="1237" y="223"/>
      <point x="1233" y="224"/>
      <point x="1229" y="249" type="curve" smooth="yes"/>
      <point x="1053" y="1339" type="line"/>
      <point x="1005" y="1348"/>
      <point x="935" y="1351"/>
      <point x="881" y="1351" type="curve" smooth="yes"/>
      <point x="830" y="1351"/>
      <point x="761" y="1348"/>
      <point x="709" y="1339" type="curve"/>
      <point x="518" y="223" type="line"/>
      <point x="505" y="223"/>
      <point x="502" y="225"/>
      <point x="499" y="249" type="curve" smooth="yes"/>
      <point x="488" y="345"/>
      <point x="459" y="524"/>
      <point x="439" y="641" type="curve" smooth="yes"/>
      <point x="336" y="1236" type="line" smooth="yes"/>
      <point x="318" y="1348"/>
      <point x="281" y="1382"/>
      <point x="189" y="1382" type="curve" smooth="yes"/>
      <point x="141" y="1382"/>
      <point x="88" y="1370"/>
    </contour>
  </outline>
</glyph>
<glyph name="X" format="2">
  <advance width="1204"/>
  <unicode hex="0058"/>
  <anchor x="601" y="1464" name="top"/>
  <outline>
    <contour>
      <point x="66" y="1325" type="curve"/>
      <point x="831" y="90" type="line"/>
      <point x="882" y="9"/>
      <point x="930" y="-17"/>
      <point x="1002" y="-17" type="curve" smooth="yes"/>
      <point x="1058" y="-17"/>
      <point x="1124" y="5"/>
      <point x="1178" y="42" type="curve"/>
      <point x="411" y="1278" type="line" smooth="yes"/>
      <point x="361" y="1357"/>
      <point x="315" y="1383"/>
      <point x="242" y="1383" type="curve" smooth="yes"/>
      <point x="186" y="1383"/>
      <point x="120" y="1362"/>
    </contour>
    <contour>
      <point x="877" y="1366" type="curve"/>
      <point x="600" y="902" type="line"/>
      <point x="490" y="781" type="line"/>
      <point x="26" y="28" type="line"/>
      <point x="33" y="13" type="line"/>
      <point x="69" y="-1"/>
      <point x="124" y="-11"/>
      <point x="176" y="-11" type="curve" smooth="yes"/>
      <point x="221" y="-11"/>
      <point x="263" y="-7"/>
      <point x="290" y="0" type="curve"/>
      <point x="607" y="531" type="line"/>
      <point x="717" y="652" type="line"/>
      <point x="1137" y="1339" type="line"/>
      <point x="1130" y="1354" type="line"/>
      <point x="1096" y="1367"/>
      <point x="1042" y="1377"/>
      <point x="989" y="1377" type="curve" smooth="yes"/>
      <point x="945" y="1377"/>
      <point x="904" y="1373"/>
    </contour>
  </outline>
</glyph>
<glyph name="Y" format="2">
  <advance width="1047"/>
  <unicode hex="0059"/>
  <anchor x="525" y="0" name="bottom"/>
  <anchor x="530" y="1464" name="top"/>
  <outline>
    <contour>
      <point x="390" y="590" type="line"/>
      <point x="390" y="0" type="line"/>
      <point x="431" y="-8"/>
      <point x="490" y="-10"/>
      <point x="525" y="-10" type="curve" smooth="yes"/>
      <point x="563" y="-10"/>
      <point x="615" y="-8"/>
      <point x="659" y="0" type="curve"/>
      <point x="659" y="590" type="line"/>
    </contour>
    <contour>
      <point x="789" y="1366" type="curve"/>
      <point x="632" y="970" type="line" smooth="yes"/>
      <point x="602" y="895"/>
      <point x="562" y="784"/>
      <point x="538" y="693" type="curve"/>
      <point x="527" y="693" type="line"/>
      <point x="502" y="788"/>
      <point x="470" y="884"/>
      <point x="439" y="962" type="curve" smooth="yes"/>
      <point x="314" y="1271" type="line" smooth="yes"/>
      <point x="283" y="1348"/>
      <point x="247" y="1381"/>
      <point x="172" y="1381" type="curve" smooth="yes"/>
      <point x="116" y="1381"/>
      <point x="57" y="1364"/>
      <point x="6" y="1334" type="curve"/>
      <point x="410" y="388" type="line"/>
      <point x="642" y="388" type="line"/>
      <point x="1042" y="1342" type="line"/>
      <point x="1031" y="1358" type="line"/>
      <point x="995" y="1370"/>
      <point x="946" y="1377"/>
      <point x="900" y="1377" type="curve" smooth="yes"/>
      <point x="865" y="1377"/>
      <point x="826" y="1375"/>
    </contour>
  </outline>
</glyph>
<glyph name="Z" format="2">
  <advance width="1142"/>
  <unicode hex="005A"/>
  <anchor x="566" y="0" name="bottom"/>
  <anchor x="572" y="1464" name="top"/>
  <outline>
    <contour>
      <point x="592" y="951" type="curve" smooth="yes"/>
      <point x="118" y="270" type="line" smooth="yes"/>
      <point x="95" y="237"/>
      <point x="85" y="198"/>
      <point x="85" y="164" type="curve" smooth="yes"/>
      <point x="85" y="140"/>
      <point x="88" y="118"/>
      <point x="116" y="0" type="curve"/>
      <point x="878" y="0" type="line" smooth="yes"/>
      <point x="989" y="0"/>
      <point x="1058" y="48"/>
      <point x="1058" y="145" type="curve" smooth="yes"/>
      <point x="1058" y="187"/>
      <point x="1049" y="234"/>
      <point x="1039" y="269" type="curve"/>
      <point x="985" y="243"/>
      <point x="909" y="226"/>
      <point x="808" y="226" type="curve" smooth="yes"/>
      <point x="650" y="226" type="line" smooth="yes"/>
      <point x="576" y="226"/>
      <point x="464" y="220"/>
      <point x="378" y="214" type="curve"/>
      <point x="372" y="220" type="line"/>
      <point x="424" y="280"/>
      <point x="488" y="361"/>
      <point x="529" y="420" type="curve" smooth="yes"/>
      <point x="1002" y="1099" type="line" smooth="yes"/>
      <point x="1026" y="1134"/>
      <point x="1034" y="1167"/>
      <point x="1034" y="1198" type="curve" smooth="yes"/>
      <point x="1034" y="1220"/>
      <point x="1031" y="1242"/>
      <point x="996" y="1366" type="curve"/>
      <point x="140" y="1366" type="line"/>
      <point x="128" y="1321"/>
      <point x="122" y="1282"/>
      <point x="122" y="1235" type="curve" smooth="yes"/>
      <point x="122" y="1206"/>
      <point x="124" y="1176"/>
      <point x="132" y="1144" type="curve"/>
      <point x="435" y="1144" type="line" smooth="yes"/>
      <point x="507" y="1144"/>
      <point x="666" y="1150"/>
      <point x="745" y="1161" type="curve"/>
      <point x="751" y="1155" type="line"/>
      <point x="698" y="1091"/>
      <point x="632" y="1009"/>
    </contour>
  </outline>
</glyph>
<glyph name="bracketleft" format="2">
  <advance width="740"/>
  <unicode hex="005B"/>
  <outline>
    <contour>
      <point x="197" y="1529" type="line"/>
      <point x="197" y="-399" type="line"/>
      <point x="455" y="-330" type="line"/>
      <point x="455" y="1440" type="line"/>
    </contour>
    <contour>
      <point x="213" y="-414" type="line"/>
      <point x="667" y="-397" type="line"/>
      <point x="674" y="-379"/>
      <point x="676" y="-344"/>
      <point x="676" y="-323" type="curve" smooth="yes"/>
      <point x="676" y="-282"/>
      <point x="665" y="-237"/>
      <point x="657" y="-215" type="curve"/>
      <point x="219" y="-203" type="line"/>
      <point x="197" y="-399" type="line"/>
    </contour>
    <contour>
      <point x="667" y="1527" type="curve"/>
      <point x="213" y="1544" type="line"/>
      <point x="197" y="1529" type="line"/>
      <point x="219" y="1333" type="line"/>
      <point x="657" y="1345" type="line"/>
      <point x="665" y="1367"/>
      <point x="676" y="1413"/>
      <point x="676" y="1453" type="curve" smooth="yes"/>
      <point x="676" y="1474"/>
      <point x="674" y="1509"/>
    </contour>
  </outline>
</glyph>
<glyph name="backslash" format="2">
  <advance width="874"/>
  <unicode hex="005C"/>
  <outline>
    <contour>
      <point x="643" y="-331" type="curve"/>
      <point x="12" y="1345" type="line"/>
      <point x="77" y="1395"/>
      <point x="160" y="1422"/>
      <point x="237" y="1430" type="curve"/>
      <point x="867" y="-246" type="line"/>
      <point x="803" y="-295"/>
      <point x="718" y="-322"/>
    </contour>
  </outline>
</glyph>
<glyph name="bracketright" format="2">
  <advance width="740"/>
  <unicode hex="005D"/>
  <outline>
    <contour>
      <point x="543" y="1529" type="line"/>
      <point x="543" y="-399" type="line"/>
      <point x="286" y="-330" type="line"/>
      <point x="286" y="1440" type="line"/>
    </contour>
    <contour>
      <point x="527" y="-414" type="line"/>
      <point x="73" y="-397" type="line"/>
      <point x="67" y="-379"/>
      <point x="64" y="-344"/>
      <point x="64" y="-323" type="curve" smooth="yes"/>
      <point x="64" y="-282"/>
      <point x="75" y="-237"/>
      <point x="84" y="-215" type="curve"/>
      <point x="522" y="-203" type="line"/>
      <point x="543" y="-399" type="line"/>
    </contour>
    <contour>
      <point x="73" y="1527" type="curve"/>
      <point x="527" y="1544" type="line"/>
      <point x="543" y="1529" type="line"/>
      <point x="522" y="1333" type="line"/>
      <point x="84" y="1345" type="line"/>
      <point x="75" y="1367"/>
      <point x="64" y="1413"/>
      <point x="64" y="1453" type="curve" smooth="yes"/>
      <point x="64" y="1474"/>
      <point x="67" y="1509"/>
    </contour>
  </outline>
</glyph>
<glyph name="asciicircum" format="2">
  <advance width="1060"/>
  <unicode hex="005E"/>
  <outline>
    <contour>
      <point x="988" y="612" type="curve"/>
      <point x="670" y="1296" type="line"/>
      <point x="639" y="1304"/>
      <point x="586" y="1308"/>
      <point x="533" y="1308" type="curve" smooth="yes"/>
      <point x="477" y="1308"/>
      <point x="421" y="1304"/>
      <point x="390" y="1296" type="curve"/>
      <point x="72" y="612" type="line"/>
      <point x="103" y="604"/>
      <point x="152" y="600"/>
      <point x="200" y="600" type="curve" smooth="yes"/>
      <point x="246" y="600"/>
      <point x="292" y="603"/>
      <point x="324" y="612" type="curve"/>
      <point x="452" y="905" type="line" smooth="yes"/>
      <point x="471" y="950"/>
      <point x="507" y="1052"/>
      <point x="523" y="1097" type="curve"/>
      <point x="537" y="1097" type="line"/>
      <point x="553" y="1052"/>
      <point x="589" y="950"/>
      <point x="608" y="905" type="curve" smooth="yes"/>
      <point x="737" y="612" type="line"/>
      <point x="768" y="603"/>
      <point x="814" y="600"/>
      <point x="860" y="600" type="curve" smooth="yes"/>
      <point x="908" y="600"/>
      <point x="957" y="604"/>
    </contour>
  </outline>
</glyph>
<glyph name="underscore" format="2">
  <advance width="1096"/>
  <unicode hex="005F"/>
  <outline>
    <contour>
      <point x="-1" y="-333" type="curve"/>
      <point x="1097" y="-333" type="line"/>
      <point x="1105" y="-300"/>
      <point x="1108" y="-273"/>
      <point x="1108" y="-234" type="curve"/>
      <point x="1108" y="-194"/>
      <point x="1105" y="-168"/>
      <point x="1097" y="-133" type="curve"/>
      <point x="-1" y="-133" type="line"/>
      <point x="-10" y="-168"/>
      <point x="-12" y="-211"/>
      <point x="-12" y="-234" type="curve" smooth="yes"/>
      <point x="-12" y="-258"/>
      <point x="-10" y="-300"/>
    </contour>
  </outline>
</glyph>
<glyph name="a" format="2">
  <advance width="1020"/>
  <unicode hex="0061"/>
  <anchor x="505" y="0" name="bottom"/>
  <anchor x="859" y="-15" name="ogonek"/>
  <anchor x="495" y="1084" name="top"/>
  <outline>
    <contour>
      <point x="73" y="271" type="curve" smooth="yes"/>
      <point x="73" y="128"/>
      <point x="169" y="-28"/>
      <point x="373" y="-28" type="curve" smooth="yes"/>
      <point x="550" y="-28"/>
      <point x="662" y="83"/>
      <point x="738" y="172" type="curve"/>
      <point x="700" y="351" type="line"/>
      <point x="635" y="235"/>
      <point x="530" y="170"/>
      <point x="442" y="170" type="curve" smooth="yes"/>
      <point x="371" y="170"/>
      <point x="329" y="222"/>
      <point x="329" y="289" type="curve" smooth="yes"/>
      <point x="329" y="380"/>
      <point x="382" y="438"/>
      <point x="486" y="438" type="curve" smooth="yes"/>
      <point x="551" y="438"/>
      <point x="645" y="436"/>
      <point x="710" y="422" type="curve"/>
      <point x="710" y="591" type="line"/>
      <point x="633" y="608"/>
      <point x="530" y="611"/>
      <point x="462" y="611" type="curve" smooth="yes"/>
      <point x="251" y="611"/>
      <point x="73" y="506"/>
    </contour>
    <contour>
      <point x="945" y="119" type="curve"/>
      <point x="903" y="153"/>
      <point x="889" y="203"/>
      <point x="889" y="269" type="curve" smooth="yes"/>
      <point x="889" y="677" type="line" smooth="yes"/>
      <point x="889" y="918"/>
      <point x="733" y="1016"/>
      <point x="548" y="1016" type="curve" smooth="yes"/>
      <point x="415" y="1016"/>
      <point x="234" y="977"/>
      <point x="110" y="926" type="curve"/>
      <point x="115" y="860"/>
      <point x="139" y="783"/>
      <point x="178" y="740" type="curve"/>
      <point x="283" y="776"/>
      <point x="390" y="810"/>
      <point x="483" y="810" type="curve" smooth="yes"/>
      <point x="579" y="810"/>
      <point x="629" y="763"/>
      <point x="629" y="659" type="curve" smooth="yes"/>
      <point x="629" y="220" type="line"/>
      <point x="642" y="115"/>
      <point x="706" y="-2"/>
      <point x="859" y="-15" type="curve"/>
      <point x="895" y="10"/>
      <point x="934" y="72"/>
    </contour>
  </outline>
</glyph>
<glyph name="b" format="2">
  <advance width="1063"/>
  <unicode hex="0062"/>
  <anchor x="522" y="0" name="bottom"/>
  <anchor x="560" y="1520" name="top"/>
  <outline>
    <contour>
      <point x="393" y="50" type="line"/>
      <point x="393" y="1310" type="line" smooth="yes"/>
      <point x="393" y="1427"/>
      <point x="354" y="1471"/>
      <point x="249" y="1471" type="curve" smooth="yes"/>
      <point x="150" y="1471" type="line"/>
      <point x="137" y="1458" type="line"/>
      <point x="137" y="50" type="line"/>
    </contour>
    <contour>
      <point x="990" y="510" type="curve" smooth="yes"/>
      <point x="990" y="801"/>
      <point x="873" y="1012"/>
      <point x="640" y="1012" type="curve" smooth="yes"/>
      <point x="491" y="1012"/>
      <point x="384" y="933"/>
      <point x="313" y="855" type="curve"/>
      <point x="350" y="651" type="line"/>
      <point x="402" y="747"/>
      <point x="491" y="800"/>
      <point x="568" y="799" type="curve" smooth="yes"/>
      <point x="663" y="797"/>
      <point x="723" y="711"/>
      <point x="723" y="506" type="curve" smooth="yes"/>
      <point x="723" y="292"/>
      <point x="649" y="173"/>
      <point x="519" y="173" type="curve" smooth="yes"/>
      <point x="423" y="173"/>
      <point x="341" y="197"/>
      <point x="262" y="246" type="curve"/>
      <point x="137" y="50" type="line"/>
      <point x="246" y="8"/>
      <point x="378" y="-17"/>
      <point x="516" y="-17" type="curve" smooth="yes"/>
      <point x="792" y="-17"/>
      <point x="991" y="172"/>
    </contour>
  </outline>
</glyph>
<glyph name="c" format="2">
  <advance width="946"/>
  <unicode hex="0063"/>
  <anchor x="499" y="0" name="bottom"/>
  <anchor x="503" y="1084" name="top"/>
  <outline>
    <contour>
      <point x="647" y="580" type="curve"/>
      <point x="681" y="573"/>
      <point x="711" y="570"/>
      <point x="754" y="570" type="curve" smooth="yes"/>
      <point x="835" y="570"/>
      <point x="884" y="616"/>
      <point x="884" y="704" type="curve" smooth="yes"/>
      <point x="884" y="873"/>
      <point x="741" y="1021"/>
      <point x="507" y="1021" type="curve" smooth="yes"/>
      <point x="292" y="1021"/>
      <point x="74" y="872"/>
      <point x="74" y="492" type="curve" smooth="yes"/>
      <point x="74" y="194"/>
      <point x="212" y="-28"/>
      <point x="499" y="-28" type="curve" smooth="yes"/>
      <point x="644" y="-28"/>
      <point x="785" y="31"/>
      <point x="874" y="123" type="curve"/>
      <point x="863" y="176"/>
      <point x="815" y="247"/>
      <point x="771" y="272" type="curve"/>
      <point x="705" y="224"/>
      <point x="625" y="180"/>
      <point x="541" y="180" type="curve" smooth="yes"/>
      <point x="412" y="180"/>
      <point x="342" y="267"/>
      <point x="342" y="492" type="curve" smooth="yes"/>
      <point x="342" y="719"/>
      <point x="393" y="824"/>
      <point x="502" y="824" type="curve" smooth="yes"/>
      <point x="626" y="824"/>
      <point x="650" y="722"/>
    </contour>
  </outline>
</glyph>
<glyph name="e" format="2">
  <advance width="997"/>
  <unicode hex="0065"/>
  <anchor x="518" y="0" name="bottom"/>
  <anchor x="702" y="0" name="ogonek"/>
  <anchor x="510" y="1084" name="top"/>
  <outline>
    <contour>
      <point x="239" y="413" type="line"/>
      <point x="893" y="413" type="line"/>
      <point x="908" y="474"/>
      <point x="914" y="519"/>
      <point x="914" y="596" type="curve" smooth="yes"/>
      <point x="914" y="835"/>
      <point x="768" y="1021"/>
      <point x="507" y="1021" type="curve" smooth="yes"/>
      <point x="208" y="1021"/>
      <point x="74" y="792"/>
      <point x="74" y="492" type="curve" smooth="yes"/>
      <point x="74" y="225"/>
      <point x="168" y="-28"/>
      <point x="503" y="-28" type="curve" smooth="yes"/>
      <point x="643" y="-28"/>
      <point x="789" y="15"/>
      <point x="887" y="85" type="curve"/>
      <point x="879" y="138"/>
      <point x="854" y="205"/>
      <point x="813" y="245" type="curve"/>
      <point x="730" y="206"/>
      <point x="640" y="177"/>
      <point x="545" y="177" type="curve" smooth="yes"/>
      <point x="373" y="177"/>
      <point x="339" y="309"/>
      <point x="339" y="471" type="curve" smooth="yes"/>
      <point x="339" y="550" type="line" smooth="yes"/>
      <point x="339" y="733"/>
      <point x="389" y="832"/>
      <point x="505" y="832" type="curve" smooth="yes"/>
      <point x="623" y="832"/>
      <point x="669" y="736"/>
      <point x="669" y="620" type="curve" smooth="yes"/>
      <point x="669" y="596" type="line"/>
      <point x="239" y="596" type="line"/>
    </contour>
  </outline>
</glyph>
<glyph name="f" format="2">
  <advance width="692"/>
  <unicode hex="0066"/>
  <anchor x="460" y="1524" name="top"/>
  <outline>
    <contour>
      <point x="315" y="991" type="line"/>
      <point x="16" y="995" type="line"/>
      <point x="10" y="965"/>
      <point x="6" y="932"/>
      <point x="6" y="902" type="curve" smooth="yes"/>
      <point x="6" y="872"/>
      <point x="10" y="836"/>
      <point x="16" y="806" type="curve"/>
      <point x="313" y="812" type="line"/>
      <point x="697" y="806" type="line"/>
      <point x="704" y="836"/>
      <point x="707" y="872"/>
      <point x="707" y="902" type="curve" smooth="yes"/>
      <point x="707" y="932"/>
      <point x="704" y="965"/>
      <point x="697" y="995" type="curve"/>
    </contour>
    <contour>
      <point x="188" y="883" type="curve"/>
      <point x="188" y="0" type="line"/>
      <point x="228" y="-7"/>
      <point x="273" y="-10"/>
      <point x="315" y="-10" type="curve" smooth="yes"/>
      <point x="357" y="-10"/>
      <point x="404" y="-7"/>
      <point x="444" y="0" type="curve"/>
      <point x="444" y="880" type="line"/>
      <point x="432" y="962"/>
      <point x="414" y="1054"/>
      <point x="414" y="1131" type="curve" smooth="yes"/>
      <point x="414" y="1230"/>
      <point x="466" y="1282"/>
      <point x="555" y="1282" type="curve" smooth="yes"/>
      <point x="610" y="1282"/>
      <point x="672" y="1267"/>
      <point x="718" y="1254" type="curve"/>
      <point x="753" y="1291"/>
      <point x="777" y="1368"/>
      <point x="776" y="1428" type="curve"/>
      <point x="710" y="1453"/>
      <point x="602" y="1479"/>
      <point x="494" y="1479" type="curve" smooth="yes"/>
      <point x="291" y="1479"/>
      <point x="164" y="1336"/>
      <point x="164" y="1148" type="curve" smooth="yes"/>
      <point x="164" y="1062"/>
      <point x="180" y="974"/>
    </contour>
  </outline>
</glyph>
<glyph name="g" format="2">
  <advance width="1064"/>
  <unicode hex="0067"/>
  <anchor x="522" y="-418" name="bottom"/>
  <anchor x="543" y="1084" name="top"/>
  <outline>
    <contour>
      <point x="986" y="874" type="curve"/>
      <point x="978" y="921"/>
      <point x="936" y="983"/>
      <point x="900" y="1008" type="curve"/>
      <point x="746" y="994"/>
      <point x="676" y="874"/>
      <point x="676" y="725" type="curve"/>
      <point x="676" y="-5" type="line" smooth="yes"/>
      <point x="676" y="-142"/>
      <point x="627" y="-244"/>
      <point x="453" y="-244" type="curve" smooth="yes"/>
      <point x="369" y="-244"/>
      <point x="266" y="-221"/>
      <point x="182" y="-183" type="curve"/>
      <point x="144" y="-227"/>
      <point x="116" y="-312"/>
      <point x="116" y="-375" type="curve"/>
      <point x="214" y="-413"/>
      <point x="353" y="-441"/>
      <point x="477" y="-441" type="curve" smooth="yes"/>
      <point x="633" y="-441"/>
      <point x="759" y="-392"/>
      <point x="831" y="-302" type="curve" smooth="yes"/>
      <point x="894" y="-222"/>
      <point x="930" y="-107"/>
      <point x="930" y="149" type="curve" smooth="yes"/>
      <point x="930" y="708" type="line" smooth="yes"/>
      <point x="930" y="778"/>
      <point x="948" y="843"/>
    </contour>
    <contour>
      <point x="75" y="495" type="curve" smooth="yes"/>
      <point x="75" y="191"/>
      <point x="191" y="-19"/>
      <point x="430" y="-19" type="curve" smooth="yes"/>
      <point x="579" y="-19"/>
      <point x="708" y="77"/>
      <point x="769" y="179" type="curve"/>
      <point x="731" y="368" type="line"/>
      <point x="677" y="260"/>
      <point x="583" y="194"/>
      <point x="491" y="194" type="curve" smooth="yes"/>
      <point x="408" y="194"/>
      <point x="343" y="282"/>
      <point x="343" y="493" type="curve" smooth="yes"/>
      <point x="343" y="707"/>
      <point x="405" y="821"/>
      <point x="512" y="821" type="curve" smooth="yes"/>
      <point x="597" y="821"/>
      <point x="700" y="744"/>
      <point x="774" y="616" type="curve"/>
      <point x="814" y="833" type="line"/>
      <point x="755" y="919"/>
      <point x="653" y="1021"/>
      <point x="468" y="1021" type="curve" smooth="yes"/>
      <point x="264" y="1021"/>
      <point x="75" y="844"/>
    </contour>
  </outline>
</glyph>
<glyph name="h" format="2">
  <advance width="1087"/>
  <unicode hex="0068"/>
  <anchor x="560" y="0" name="bottom"/>
  <anchor x="547" y="1520" name="top"/>
  <outline>
    <contour>
      <point x="393" y="0" type="curve"/>
      <point x="393" y="1310" type="line" smooth="yes"/>
      <point x="393" y="1427"/>
      <point x="357" y="1471"/>
      <point x="251" y="1471" type="curve" smooth="yes"/>
      <point x="150" y="1471" type="line"/>
      <point x="137" y="1458" type="line"/>
      <point x="137" y="0" type="line"/>
      <point x="176" y="-7"/>
      <point x="220" y="-10"/>
      <point x="264" y="-10" type="curve" smooth="yes"/>
      <point x="310" y="-10"/>
      <point x="357" y="-7"/>
    </contour>
    <contour>
      <point x="956" y="232" type="curve" smooth="yes"/>
      <point x="956" y="668" type="line" smooth="yes"/>
      <point x="956" y="864"/>
      <point x="868" y="1010"/>
      <point x="684" y="1010" type="curve" smooth="yes"/>
      <point x="540" y="1010"/>
      <point x="420" y="926"/>
      <point x="329" y="829" type="curve"/>
      <point x="329" y="592" type="line"/>
      <point x="391" y="714"/>
      <point x="510" y="775"/>
      <point x="590" y="775" type="curve" smooth="yes"/>
      <point x="672" y="775"/>
      <point x="695" y="725"/>
      <point x="695" y="614" type="curve" smooth="yes"/>
      <point x="695" y="149" type="line" smooth="yes"/>
      <point x="695" y="43"/>
      <point x="731" y="-15"/>
      <point x="835" y="-15" type="curve" smooth="yes"/>
      <point x="899" y="-15"/>
      <point x="960" y="9"/>
      <point x="998" y="41" type="curve"/>
      <point x="967" y="91"/>
      <point x="956" y="157"/>
    </contour>
  </outline>
</glyph>
<glyph name="k" format="2">
  <advance width="1025"/>
  <unicode hex="006B"/>
  <anchor x="555" y="0" name="bottom"/>
  <anchor x="555" y="1084" name="top"/>
  <outline>
    <contour>
      <point x="393" y="0" type="curve"/>
      <point x="393" y="1310" type="line" smooth="yes"/>
      <point x="393" y="1427"/>
      <point x="357" y="1471"/>
      <point x="251" y="1471" type="curve" smooth="yes"/>
      <point x="150" y="1471" type="line"/>
      <point x="137" y="1458" type="line"/>
      <point x="137" y="0" type="line"/>
      <point x="175" y="-7"/>
      <point x="219" y="-10"/>
      <point x="264" y="-10" type="curve" smooth="yes"/>
      <point x="309" y="-10"/>
      <point x="357" y="-7"/>
    </contour>
    <contour>
      <point x="906" y="230" type="curve" smooth="yes"/>
      <point x="848" y="386" type="line" smooth="yes"/>
      <point x="796" y="523"/>
      <point x="697" y="580"/>
      <point x="552" y="580" type="curve" smooth="yes"/>
      <point x="260" y="580" type="line"/>
      <point x="260" y="396" type="line"/>
      <point x="337" y="405" type="line" smooth="yes"/>
      <point x="382" y="410"/>
      <point x="421" y="415"/>
      <point x="469" y="415" type="curve" smooth="yes"/>
      <point x="542" y="415"/>
      <point x="576" y="391"/>
      <point x="611" y="297" type="curve" smooth="yes"/>
      <point x="681" y="113" type="line" smooth="yes"/>
      <point x="712" y="24"/>
      <point x="744" y="-15"/>
      <point x="826" y="-15" type="curve" smooth="yes"/>
      <point x="894" y="-15"/>
      <point x="962" y="21"/>
      <point x="1002" y="66" type="curve"/>
      <point x="962" y="94"/>
      <point x="937" y="137"/>
    </contour>
    <contour>
      <point x="759" y="660" type="curve" smooth="yes"/>
      <point x="943" y="981" type="line"/>
      <point x="931" y="997" type="line"/>
      <point x="883" y="999"/>
      <point x="842" y="1000"/>
      <point x="788" y="1000" type="curve" smooth="yes"/>
      <point x="711" y="1000"/>
      <point x="668" y="965"/>
      <point x="632" y="899" type="curve" smooth="yes"/>
      <point x="494" y="662" type="line" smooth="yes"/>
      <point x="480" y="637"/>
      <point x="467" y="630"/>
      <point x="441" y="630" type="curve" smooth="yes"/>
      <point x="290" y="626" type="line"/>
      <point x="290" y="506" type="line"/>
      <point x="460" y="506" type="line" smooth="yes"/>
      <point x="605" y="506"/>
      <point x="701" y="554"/>
    </contour>
  </outline>
</glyph>
<glyph name="l" format="2">
  <advance width="608"/>
  <unicode hex="006C"/>
  <anchor x="349" y="0" name="bottom"/>
  <anchor x="608" y="786" name="periodcentered"/>
  <anchor x="255" y="1550" name="top"/>
  <anchor x="390" y="993" name="topright"/>
  <outline>
    <contour>
      <point x="537" y="193" type="curve"/>
      <point x="473" y="193" type="line"/>
      <point x="415" y="193"/>
      <point x="390" y="224"/>
      <point x="390" y="284" type="curve" smooth="yes"/>
      <point x="390" y="1310" type="line" smooth="yes"/>
      <point x="390" y="1427"/>
      <point x="354" y="1471"/>
      <point x="248" y="1471" type="curve" smooth="yes"/>
      <point x="148" y="1471" type="line"/>
      <point x="134" y="1458" type="line"/>
      <point x="134" y="234" type="line" smooth="yes"/>
      <point x="134" y="69"/>
      <point x="202" y="-9"/>
      <point x="358" y="-9" type="curve" smooth="yes"/>
      <point x="424" y="-9"/>
      <point x="499" y="-1"/>
      <point x="552" y="8" type="curve"/>
      <point x="557" y="25"/>
      <point x="558" y="47"/>
      <point x="558" y="66" type="curve" smooth="yes"/>
      <point x="558" y="109"/>
      <point x="550" y="156"/>
    </contour>
  </outline>
</glyph>
<glyph name="m" format="2">
  <advance width="1606"/>
  <unicode hex="006D"/>
  <anchor x="806" y="0" name="bottom"/>
  <anchor x="793" y="1084" name="top"/>
  <outline>
    <contour>
      <point x="248" y="1004" type="curve" smooth="yes"/>
      <point x="150" y="1004" type="line"/>
      <point x="137" y="990" type="line"/>
      <point x="137" y="0" type="line"/>
      <point x="175" y="-7"/>
      <point x="223" y="-10"/>
      <point x="268" y="-10" type="curve" smooth="yes"/>
      <point x="314" y="-10"/>
      <point x="362" y="-7"/>
      <point x="399" y="0" type="curve"/>
      <point x="399" y="816" type="line" smooth="yes"/>
      <point x="399" y="933"/>
      <point x="351" y="1004"/>
    </contour>
    <contour>
      <point x="675" y="613" type="curve" smooth="yes"/>
      <point x="675" y="0" type="line"/>
      <point x="713" y="-7"/>
      <point x="762" y="-10"/>
      <point x="806" y="-10" type="curve" smooth="yes"/>
      <point x="852" y="-10"/>
      <point x="901" y="-7"/>
      <point x="937" y="0" type="curve"/>
      <point x="937" y="698" type="line" smooth="yes"/>
      <point x="937" y="876"/>
      <point x="844" y="1011"/>
      <point x="670" y="1011" type="curve" smooth="yes"/>
      <point x="530" y="1011"/>
      <point x="403" y="908"/>
      <point x="312" y="793" type="curve"/>
      <point x="312" y="556" type="line"/>
      <point x="356" y="666"/>
      <point x="479" y="775"/>
      <point x="571" y="776" type="curve" smooth="yes"/>
      <point x="632" y="776"/>
      <point x="675" y="736"/>
    </contour>
    <contour>
      <point x="1214" y="615" type="curve"/>
      <point x="1214" y="149" type="line" smooth="yes"/>
      <point x="1214" y="43"/>
      <point x="1250" y="-15"/>
      <point x="1354" y="-15" type="curve" smooth="yes"/>
      <point x="1418" y="-15"/>
      <point x="1479" y="9"/>
      <point x="1517" y="41" type="curve"/>
      <point x="1486" y="91"/>
      <point x="1476" y="157"/>
      <point x="1476" y="232" type="curve" smooth="yes"/>
      <point x="1476" y="695" type="line" smooth="yes"/>
      <point x="1476" y="874"/>
      <point x="1389" y="1011"/>
      <point x="1214" y="1011" type="curve" smooth="yes"/>
      <point x="1077" y="1011"/>
      <point x="937" y="917"/>
      <point x="844" y="809" type="curve"/>
      <point x="844" y="548" type="line"/>
      <point x="900" y="668"/>
      <point x="1021" y="776"/>
      <point x="1107" y="776" type="curve" smooth="yes"/>
      <point x="1168" y="776"/>
      <point x="1214" y="738"/>
    </contour>
  </outline>
</glyph>
<glyph name="n" format="2">
  <advance width="1093"/>
  <unicode hex="006E"/>
  <anchor x="560" y="0" name="bottom"/>
  <anchor x="559" y="1084" name="top"/>
  <outline>
    <contour>
      <point x="249" y="1004" type="curve" smooth="yes"/>
      <point x="150" y="1004" type="line"/>
      <point x="137" y="991" type="line"/>
      <point x="137" y="0" type="line"/>
      <point x="175" y="-7"/>
      <point x="223" y="-10"/>
      <point x="268" y="-10" type="curve" smooth="yes"/>
      <point x="314" y="-10"/>
      <point x="362" y="-7"/>
      <point x="399" y="0" type="curve"/>
      <point x="399" y="816" type="line" smooth="yes"/>
      <point x="399" y="933"/>
      <point x="352" y="1004"/>
    </contour>
    <contour>
      <point x="962" y="232" type="curve" smooth="yes"/>
      <point x="962" y="669" type="line" smooth="yes"/>
      <point x="962" y="865"/>
      <point x="874" y="1011"/>
      <point x="689" y="1011" type="curve" smooth="yes"/>
      <point x="546" y="1011"/>
      <point x="426" y="927"/>
      <point x="335" y="830" type="curve"/>
      <point x="335" y="592" type="line"/>
      <point x="397" y="715"/>
      <point x="516" y="776"/>
      <point x="596" y="776" type="curve" smooth="yes"/>
      <point x="678" y="776"/>
      <point x="701" y="726"/>
      <point x="701" y="615" type="curve" smooth="yes"/>
      <point x="701" y="149" type="line" smooth="yes"/>
      <point x="701" y="43"/>
      <point x="736" y="-15"/>
      <point x="840" y="-15" type="curve" smooth="yes"/>
      <point x="905" y="-15"/>
      <point x="966" y="9"/>
      <point x="1004" y="41" type="curve"/>
      <point x="973" y="91"/>
      <point x="962" y="157"/>
    </contour>
  </outline>
</glyph>
<glyph name="o" format="2">
  <advance width="1042"/>
  <unicode hex="006F"/>
  <anchor x="521" y="0" name="bottom"/>
  <anchor x="689" y="0" name="ogonek"/>
  <anchor x="521" y="1084" name="top"/>
  <anchor x="836" y="967" name="topright"/>
  <outline>
    <contour>
      <point x="968" y="497" type="curve" smooth="yes"/>
      <point x="968" y="808"/>
      <point x="816" y="1021"/>
      <point x="521" y="1021" type="curve" smooth="yes"/>
      <point x="228" y="1021"/>
      <point x="74" y="810"/>
      <point x="74" y="497" type="curve" smooth="yes"/>
      <point x="74" y="185"/>
      <point x="225" y="-28"/>
      <point x="521" y="-28" type="curve" smooth="yes"/>
      <point x="814" y="-28"/>
      <point x="968" y="183"/>
    </contour>
    <contour>
      <point x="342" y="497" type="curve" smooth="yes"/>
      <point x="342" y="671"/>
      <point x="375" y="825"/>
      <point x="521" y="825" type="curve" smooth="yes"/>
      <point x="667" y="825"/>
      <point x="700" y="671"/>
      <point x="700" y="497" type="curve" smooth="yes"/>
      <point x="700" y="321"/>
      <point x="667" y="169"/>
      <point x="521" y="169" type="curve" smooth="yes"/>
      <point x="375" y="169"/>
      <point x="342" y="321"/>
    </contour>
  </outline>
</glyph>
<glyph name="p" format="2">
  <advance width="1068"/>
  <unicode hex="0070"/>
  <anchor x="524" y="1084" name="top"/>
  <outline>
    <contour>
      <point x="224" y="1004" type="curve" smooth="yes"/>
      <point x="150" y="1004" type="line"/>
      <point x="137" y="991" type="line"/>
      <point x="137" y="-418" type="line"/>
      <point x="150" y="-431" type="line"/>
      <point x="251" y="-431" type="line" smooth="yes"/>
      <point x="357" y="-431"/>
      <point x="394" y="-387"/>
      <point x="394" y="-270" type="curve" smooth="yes"/>
      <point x="394" y="790" type="line" smooth="yes"/>
      <point x="394" y="923"/>
      <point x="332" y="1004"/>
    </contour>
    <contour>
      <point x="993" y="509" type="curve" smooth="yes"/>
      <point x="993" y="810"/>
      <point x="877" y="1021"/>
      <point x="641" y="1021" type="curve" smooth="yes"/>
      <point x="448" y="1021"/>
      <point x="296" y="867"/>
      <point x="268" y="718" type="curve"/>
      <point x="325" y="552" type="line"/>
      <point x="377" y="749"/>
      <point x="495" y="808"/>
      <point x="576" y="808" type="curve" smooth="yes"/>
      <point x="658" y="808"/>
      <point x="725" y="721"/>
      <point x="725" y="510" type="curve" smooth="yes"/>
      <point x="725" y="297"/>
      <point x="662" y="181"/>
      <point x="558" y="181" type="curve" smooth="yes"/>
      <point x="476" y="181"/>
      <point x="386" y="241"/>
      <point x="309" y="303" type="curve"/>
      <point x="272" y="110" type="line"/>
      <point x="362" y="49"/>
      <point x="467" y="-19"/>
      <point x="600" y="-19" type="curve" smooth="yes"/>
      <point x="806" y="-19"/>
      <point x="993" y="158"/>
    </contour>
  </outline>
</glyph>
<glyph name="q" format="2">
  <advance width="1068"/>
  <unicode hex="0071"/>
  <outline>
    <contour>
      <point x="75" y="495" type="curve" smooth="yes"/>
      <point x="75" y="191"/>
      <point x="191" y="-19"/>
      <point x="430" y="-19" type="curve" smooth="yes"/>
      <point x="579" y="-19"/>
      <point x="708" y="75"/>
      <point x="769" y="177" type="curve"/>
      <point x="731" y="368" type="line"/>
      <point x="677" y="260"/>
      <point x="583" y="194"/>
      <point x="491" y="194" type="curve" smooth="yes"/>
      <point x="409" y="194"/>
      <point x="343" y="282"/>
      <point x="343" y="493" type="curve" smooth="yes"/>
      <point x="343" y="707"/>
      <point x="406" y="821"/>
      <point x="512" y="821" type="curve" smooth="yes"/>
      <point x="597" y="821"/>
      <point x="700" y="744"/>
      <point x="774" y="616" type="curve"/>
      <point x="814" y="834" type="line"/>
      <point x="755" y="920"/>
      <point x="653" y="1021"/>
      <point x="468" y="1021" type="curve" smooth="yes"/>
      <point x="264" y="1021"/>
      <point x="75" y="844"/>
    </contour>
    <contour>
      <point x="674" y="725" type="curve" smooth="yes"/>
      <point x="674" y="-270" type="line" smooth="yes"/>
      <point x="674" y="-387"/>
      <point x="710" y="-431"/>
      <point x="815" y="-431" type="curve" smooth="yes"/>
      <point x="916" y="-431" type="line"/>
      <point x="929" y="-418" type="line"/>
      <point x="929" y="708" type="line" smooth="yes"/>
      <point x="929" y="778"/>
      <point x="947" y="843"/>
      <point x="985" y="874" type="curve"/>
      <point x="974" y="921"/>
      <point x="935" y="983"/>
      <point x="898" y="1008" type="curve"/>
      <point x="744" y="994"/>
      <point x="674" y="874"/>
    </contour>
  </outline>
</glyph>
<glyph name="r" format="2">
  <advance width="766"/>
  <unicode hex="0072"/>
  <anchor x="285" y="0" name="bottom"/>
  <anchor x="411" y="1084" name="top"/>
  <outline>
    <contour>
      <point x="761" y="993" type="curve"/>
      <point x="721" y="1001"/>
      <point x="689" y="1007"/>
      <point x="641" y="1007" type="curve" smooth="yes"/>
      <point x="409" y="1007"/>
      <point x="342" y="773"/>
      <point x="332" y="568" type="curve"/>
      <point x="365" y="526" type="line"/>
      <point x="412" y="654"/>
      <point x="475" y="762"/>
      <point x="604" y="762" type="curve"/>
      <point x="635" y="760"/>
      <point x="665" y="757"/>
      <point x="696" y="747" type="curve"/>
      <point x="740" y="820"/>
      <point x="761" y="928"/>
    </contour>
    <contour>
      <point x="79" y="872" type="curve"/>
      <point x="113" y="845"/>
      <point x="154" y="778"/>
      <point x="154" y="665" type="curve" smooth="yes"/>
      <point x="154" y="0" type="line"/>
      <point x="191" y="-7"/>
      <point x="240" y="-10"/>
      <point x="285" y="-10" type="curve" smooth="yes"/>
      <point x="330" y="-10"/>
      <point x="379" y="-7"/>
      <point x="415" y="0" type="curve"/>
      <point x="415" y="686" type="line"/>
      <point x="401" y="866"/>
      <point x="324" y="987"/>
      <point x="165" y="1008" type="curve"/>
      <point x="129" y="982"/>
      <point x="90" y="919"/>
    </contour>
  </outline>
</glyph>
<glyph name="s" format="2">
  <advance width="881"/>
  <unicode hex="0073"/>
  <anchor x="440" y="0" name="bottom"/>
  <anchor x="441" y="1084" name="top"/>
  <outline>
    <contour>
      <point x="50" y="71" type="curve"/>
      <point x="140" y="18"/>
      <point x="269" y="-28"/>
      <point x="411" y="-28" type="curve" smooth="yes"/>
      <point x="664" y="-28"/>
      <point x="824" y="92"/>
      <point x="824" y="285" type="curve" smooth="yes"/>
      <point x="824" y="447"/>
      <point x="714" y="542"/>
      <point x="563" y="596" type="curve" smooth="yes"/>
      <point x="440" y="641" type="line" smooth="yes"/>
      <point x="371" y="666"/>
      <point x="340" y="693"/>
      <point x="340" y="739" type="curve" smooth="yes"/>
      <point x="340" y="790"/>
      <point x="382" y="828"/>
      <point x="453" y="828" type="curve" smooth="yes"/>
      <point x="549" y="828"/>
      <point x="649" y="792"/>
      <point x="726" y="757" type="curve"/>
      <point x="769" y="792"/>
      <point x="802" y="880"/>
      <point x="800" y="943" type="curve"/>
      <point x="714" y="984"/>
      <point x="569" y="1021"/>
      <point x="451" y="1021" type="curve" smooth="yes"/>
      <point x="232" y="1021"/>
      <point x="80" y="901"/>
      <point x="80" y="707" type="curve" smooth="yes"/>
      <point x="80" y="551"/>
      <point x="193" y="466"/>
      <point x="333" y="414" type="curve" smooth="yes"/>
      <point x="446" y="373" type="line" smooth="yes"/>
      <point x="519" y="346"/>
      <point x="553" y="308"/>
      <point x="553" y="260" type="curve" smooth="yes"/>
      <point x="553" y="204"/>
      <point x="499" y="164"/>
      <point x="407" y="164" type="curve" smooth="yes"/>
      <point x="311" y="164"/>
      <point x="214" y="204"/>
      <point x="128" y="250" type="curve"/>
      <point x="87" y="209"/>
      <point x="52" y="128"/>
    </contour>
  </outline>
</glyph>
<glyph name="t" format="2">
  <advance width="726"/>
  <unicode hex="0074"/>
  <anchor x="409" y="0" name="bottom"/>
  <anchor x="334" y="1367" name="top"/>
  <anchor x="432" y="993" name="topright"/>
  <outline>
    <contour>
      <point x="176" y="1136" type="curve" smooth="yes"/>
      <point x="176" y="234" type="line" smooth="yes"/>
      <point x="176" y="69"/>
      <point x="255" y="-9"/>
      <point x="415" y="-9" type="curve" smooth="yes"/>
      <point x="495" y="-9"/>
      <point x="587" y="-1"/>
      <point x="657" y="8" type="curve"/>
      <point x="662" y="25"/>
      <point x="663" y="47"/>
      <point x="663" y="66" type="curve" smooth="yes"/>
      <point x="663" y="108"/>
      <point x="655" y="156"/>
      <point x="642" y="193" type="curve"/>
      <point x="518" y="193" type="line" smooth="yes"/>
      <point x="456" y="193"/>
      <point x="432" y="227"/>
      <point x="432" y="284" type="curve" smooth="yes"/>
      <point x="432" y="1283" type="line"/>
      <point x="419" y="1297" type="line"/>
      <point x="318" y="1297" type="line" smooth="yes"/>
      <point x="212" y="1297"/>
      <point x="176" y="1252"/>
    </contour>
    <contour>
      <point x="674" y="995" type="curve"/>
      <point x="329" y="990" type="line"/>
      <point x="25" y="995" type="line"/>
      <point x="17" y="962"/>
      <point x="13" y="932"/>
      <point x="13" y="902" type="curve" smooth="yes"/>
      <point x="13" y="869"/>
      <point x="17" y="837"/>
      <point x="25" y="806" type="curve"/>
      <point x="323" y="812" type="line"/>
      <point x="674" y="806" type="line"/>
      <point x="682" y="837"/>
      <point x="685" y="869"/>
      <point x="685" y="902" type="curve" smooth="yes"/>
      <point x="685" y="932"/>
      <point x="682" y="962"/>
    </contour>
  </outline>
</glyph>
<glyph name="v" format="2">
  <advance width="936"/>
  <unicode hex="0076"/>
  <anchor x="473" y="0" name="bottom"/>
  <anchor x="467" y="1084" name="top"/>
  <outline>
    <contour>
      <point x="690" y="992" type="curve"/>
      <point x="486" y="204" type="line"/>
      <point x="474" y="204"/>
      <point x="469" y="205"/>
      <point x="467" y="220" type="curve" smooth="yes"/>
      <point x="455" y="281"/>
      <point x="431" y="398"/>
      <point x="406" y="486" type="curve" smooth="yes"/>
      <point x="295" y="891" type="line" smooth="yes"/>
      <point x="274" y="979"/>
      <point x="227" y="1010"/>
      <point x="148" y="1010" type="curve" smooth="yes"/>
      <point x="104" y="1010"/>
      <point x="51" y="995"/>
      <point x="1" y="973" type="curve"/>
      <point x="258" y="122" type="line" smooth="yes"/>
      <point x="292" y="10"/>
      <point x="342" y="-11"/>
      <point x="442" y="-11" type="curve" smooth="yes"/>
      <point x="508" y="-11"/>
      <point x="579" y="-8"/>
      <point x="636" y="0" type="curve"/>
      <point x="709" y="225"/>
      <point x="842" y="672"/>
      <point x="928" y="971" type="curve"/>
      <point x="920" y="982" type="line"/>
      <point x="880" y="997"/>
      <point x="832" y="1002"/>
      <point x="786" y="1002" type="curve" smooth="yes"/>
      <point x="754" y="1002"/>
      <point x="722" y="1000"/>
    </contour>
  </outline>
</glyph>
<glyph name="w" format="2">
  <advance width="1480"/>
  <unicode hex="0077"/>
  <anchor x="741" y="0" name="bottom"/>
  <anchor x="741" y="1084" name="top"/>
  <outline>
    <contour>
      <point x="26" y="977" type="curve"/>
      <point x="227" y="119" type="line" smooth="yes"/>
      <point x="252" y="11"/>
      <point x="304" y="-11"/>
      <point x="398" y="-11" type="curve" smooth="yes"/>
      <point x="462" y="-11"/>
      <point x="545" y="-7"/>
      <point x="600" y="0" type="curve"/>
      <point x="668" y="364" type="line" smooth="yes"/>
      <point x="687" y="467"/>
      <point x="714" y="618"/>
      <point x="735" y="758" type="curve"/>
      <point x="745" y="758" type="line"/>
      <point x="766" y="617"/>
      <point x="792" y="464"/>
      <point x="809" y="362" type="curve" smooth="yes"/>
      <point x="854" y="117" type="line" smooth="yes"/>
      <point x="872" y="6"/>
      <point x="925" y="-11"/>
      <point x="1025" y="-11" type="curve" smooth="yes"/>
      <point x="1086" y="-11"/>
      <point x="1167" y="-9"/>
      <point x="1219" y="-1" type="curve"/>
      <point x="1457" y="967" type="line"/>
      <point x="1449" y="982" type="line"/>
      <point x="1414" y="1000"/>
      <point x="1351" y="1004"/>
      <point x="1314" y="1004" type="curve" smooth="yes"/>
      <point x="1280" y="1004"/>
      <point x="1238" y="1000"/>
      <point x="1209" y="992" type="curve"/>
      <point x="1111" y="532" type="line" smooth="yes"/>
      <point x="1085" y="411"/>
      <point x="1066" y="297"/>
      <point x="1048" y="194" type="curve"/>
      <point x="1036" y="194"/>
      <point x="1034" y="197"/>
      <point x="1032" y="210" type="curve" smooth="yes"/>
      <point x="895" y="985" type="line"/>
      <point x="856" y="994"/>
      <point x="775" y="998"/>
      <point x="739" y="998" type="curve" smooth="yes"/>
      <point x="706" y="998"/>
      <point x="628" y="994"/>
      <point x="587" y="985" type="curve"/>
      <point x="449" y="194" type="line"/>
      <point x="438" y="194"/>
      <point x="435" y="197"/>
      <point x="433" y="210" type="curve" smooth="yes"/>
      <point x="422" y="283"/>
      <point x="401" y="405"/>
      <point x="374" y="532" type="curve" smooth="yes"/>
      <point x="299" y="900" type="line" smooth="yes"/>
      <point x="283" y="973"/>
      <point x="253" y="1010"/>
      <point x="175" y="1010" type="curve" smooth="yes"/>
      <point x="129" y="1010"/>
      <point x="80" y="999"/>
    </contour>
  </outline>
</glyph>
<glyph name="x" format="2">
  <advance width="942"/>
  <unicode hex="0078"/>
  <anchor x="468" y="1084" name="top"/>
  <outline>
    <contour>
      <point x="40" y="953" type="curve"/>
      <point x="616" y="62" type="line"/>
      <point x="650" y="10"/>
      <point x="687" y="-17"/>
      <point x="753" y="-17" type="curve" smooth="yes"/>
      <point x="812" y="-17"/>
      <point x="881" y="8"/>
      <point x="931" y="42" type="curve"/>
      <point x="351" y="931" type="line" smooth="yes"/>
      <point x="316" y="984"/>
      <point x="283" y="1012"/>
      <point x="218" y="1012" type="curve" smooth="yes"/>
      <point x="163" y="1012"/>
      <point x="95" y="992"/>
    </contour>
    <contour>
      <point x="654" y="993" type="curve"/>
      <point x="441" y="642" type="line"/>
      <point x="370" y="576" type="line"/>
      <point x="16" y="26" type="line"/>
      <point x="25" y="9" type="line"/>
      <point x="62" y="-5"/>
      <point x="110" y="-11"/>
      <point x="161" y="-11" type="curve" smooth="yes"/>
      <point x="199" y="-11"/>
      <point x="240" y="-9"/>
      <point x="265" y="-1" type="curve"/>
      <point x="505" y="398" type="line"/>
      <point x="570" y="463" type="line"/>
      <point x="895" y="967" type="line"/>
      <point x="888" y="985" type="line"/>
      <point x="851" y="996"/>
      <point x="808" y="1004"/>
      <point x="759" y="1004" type="curve" smooth="yes"/>
      <point x="722" y="1004"/>
      <point x="681" y="1000"/>
    </contour>
  </outline>
</glyph>
<glyph name="y" format="2">
  <advance width="966"/>
  <unicode hex="0079"/>
  <anchor x="820" y="-56" name="bottom"/>
  <anchor x="481" y="1084" name="top"/>
  <outline>
    <contour>
      <point x="694" y="29" type="curve" smooth="yes"/>
      <point x="949" y="968" type="line"/>
      <point x="940" y="985" type="line"/>
      <point x="895" y="1000"/>
      <point x="847" y="1004"/>
      <point x="802" y="1004" type="curve" smooth="yes"/>
      <point x="768" y="1004"/>
      <point x="726" y="1000"/>
      <point x="696" y="992" type="curve"/>
      <point x="500" y="183" type="line"/>
      <point x="490" y="183"/>
      <point x="485" y="185"/>
      <point x="482" y="197" type="curve" smooth="yes"/>
      <point x="469" y="267"/>
      <point x="446" y="395"/>
      <point x="423" y="475" type="curve" smooth="yes"/>
      <point x="309" y="896" type="line" smooth="yes"/>
      <point x="287" y="984"/>
      <point x="244" y="1010"/>
      <point x="181" y="1010" type="curve" smooth="yes"/>
      <point x="138" y="1010"/>
      <point x="76" y="998"/>
      <point x="21" y="973" type="curve"/>
      <point x="268" y="105" type="line" smooth="yes"/>
      <point x="293" y="17"/>
      <point x="354" y="-10"/>
      <point x="450" y="-12" type="curve"/>
      <point x="443" y="-38" type="line" smooth="yes"/>
      <point x="405" y="-164"/>
      <point x="342" y="-242"/>
      <point x="225" y="-242" type="curve" smooth="yes"/>
      <point x="166" y="-242"/>
      <point x="99" y="-226"/>
      <point x="61" y="-214" type="curve"/>
      <point x="26" y="-254"/>
      <point x="1" y="-341"/>
      <point x="7" y="-401" type="curve"/>
      <point x="55" y="-418"/>
      <point x="153" y="-437"/>
      <point x="225" y="-437" type="curve" smooth="yes"/>
      <point x="514" y="-437"/>
      <point x="615" y="-259"/>
    </contour>
  </outline>
</glyph>
<glyph name="z" format="2">
  <advance width="896"/>
  <unicode hex="007A"/>
  <anchor x="449" y="0" name="bottom"/>
  <anchor x="449" y="1084" name="top"/>
  <outline>
    <contour>
      <point x="378" y="610" type="curve" smooth="yes"/>
      <point x="98" y="233" type="line" smooth="yes"/>
      <point x="69" y="195"/>
      <point x="59" y="163"/>
      <point x="59" y="134" type="curve" smooth="yes"/>
      <point x="59" y="101"/>
      <point x="68" y="67"/>
      <point x="91" y="0" type="curve"/>
      <point x="691" y="0" type="line" smooth="yes"/>
      <point x="803" y="0"/>
      <point x="840" y="47"/>
      <point x="840" y="119" type="curve" smooth="yes"/>
      <point x="840" y="155"/>
      <point x="832" y="186"/>
      <point x="814" y="230" type="curve"/>
      <point x="761" y="205"/>
      <point x="688" y="199"/>
      <point x="613" y="199" type="curve" smooth="yes"/>
      <point x="531" y="199" type="line" smooth="yes"/>
      <point x="482" y="199"/>
      <point x="421" y="196"/>
      <point x="360" y="189" type="curve"/>
      <point x="354" y="198" type="line"/>
      <point x="404" y="253"/>
      <point x="463" y="325"/>
      <point x="507" y="385" type="curve" smooth="yes"/>
      <point x="791" y="764" type="line" smooth="yes"/>
      <point x="810" y="789"/>
      <point x="819" y="821"/>
      <point x="819" y="846" type="curve" smooth="yes"/>
      <point x="819" y="883"/>
      <point x="806" y="926"/>
      <point x="783" y="993" type="curve"/>
      <point x="99" y="993" type="line"/>
      <point x="91" y="956"/>
      <point x="85" y="914"/>
      <point x="85" y="878" type="curve" smooth="yes"/>
      <point x="85" y="853"/>
      <point x="87" y="822"/>
      <point x="94" y="796" type="curve"/>
      <point x="275" y="796" type="line" smooth="yes"/>
      <point x="353" y="796"/>
      <point x="466" y="802"/>
      <point x="532" y="810" type="curve"/>
      <point x="538" y="801" type="line"/>
      <point x="491" y="747"/>
      <point x="424" y="673"/>
    </contour>
  </outline>
</glyph>
<glyph name="braceleft" format="2">
  <advance width="747"/>
  <unicode hex="007B"/>
  <outline>
    <contour>
      <point x="87" y="638" type="curve"/>
      <point x="71" y="596"/>
      <point x="71" y="510"/>
      <point x="87" y="469" type="curve"/>
      <point x="183" y="446"/>
      <point x="254" y="353"/>
      <point x="254" y="242" type="curve" smooth="yes"/>
      <point x="254" y="-88" type="line" smooth="yes"/>
      <point x="254" y="-289"/>
      <point x="382" y="-401"/>
      <point x="558" y="-430" type="curve" smooth="yes"/>
      <point x="676" y="-449" type="line"/>
      <point x="712" y="-410"/>
      <point x="736" y="-320"/>
      <point x="725" y="-276" type="curve"/>
      <point x="614" y="-240" type="line" smooth="yes"/>
      <point x="559" y="-222"/>
      <point x="517" y="-169"/>
      <point x="517" y="-86" type="curve" smooth="yes"/>
      <point x="517" y="238" type="line" smooth="yes"/>
      <point x="517" y="370"/>
      <point x="450" y="499"/>
      <point x="346" y="545" type="curve"/>
      <point x="346" y="561" type="line"/>
      <point x="450" y="608"/>
      <point x="517" y="736"/>
      <point x="517" y="868" type="curve" smooth="yes"/>
      <point x="517" y="1192" type="line" smooth="yes"/>
      <point x="517" y="1275"/>
      <point x="559" y="1328"/>
      <point x="614" y="1346" type="curve" smooth="yes"/>
      <point x="725" y="1382" type="line"/>
      <point x="736" y="1426"/>
      <point x="712" y="1516"/>
      <point x="676" y="1555" type="curve"/>
      <point x="558" y="1536" type="line" smooth="yes"/>
      <point x="382" y="1507"/>
      <point x="254" y="1395"/>
      <point x="254" y="1194" type="curve" smooth="yes"/>
      <point x="254" y="864" type="line" smooth="yes"/>
      <point x="254" y="753"/>
      <point x="183" y="661"/>
    </contour>
  </outline>
</glyph>
<glyph name="bar" format="2">
  <advance width="526"/>
  <unicode hex="007C"/>
  <outline>
    <contour>
      <point x="141" y="1547" type="curve"/>
      <point x="141" y="-283" type="line"/>
      <point x="179" y="-292"/>
      <point x="235" y="-294"/>
      <point x="265" y="-294" type="curve" smooth="yes"/>
      <point x="299" y="-294"/>
      <point x="345" y="-292"/>
      <point x="385" y="-283" type="curve"/>
      <point x="385" y="1547" type="line"/>
      <point x="345" y="1557"/>
      <point x="299" y="1559"/>
      <point x="265" y="1559" type="curve" smooth="yes"/>
      <point x="235" y="1559"/>
      <point x="179" y="1557"/>
    </contour>
  </outline>
</glyph>
<glyph name="braceright" format="2">
  <advance width="747"/>
  <unicode hex="007D"/>
  <outline>
    <contour>
      <point x="660" y="638" type="curve"/>
      <point x="676" y="596"/>
      <point x="676" y="510"/>
      <point x="660" y="469" type="curve"/>
      <point x="564" y="446"/>
      <point x="493" y="353"/>
      <point x="493" y="242" type="curve" smooth="yes"/>
      <point x="493" y="-88" type="line" smooth="yes"/>
      <point x="493" y="-289"/>
      <point x="365" y="-401"/>
      <point x="189" y="-430" type="curve" smooth="yes"/>
      <point x="71" y="-449" type="line"/>
      <point x="35" y="-410"/>
      <point x="11" y="-320"/>
      <point x="22" y="-276" type="curve"/>
      <point x="133" y="-240" type="line" smooth="yes"/>
      <point x="188" y="-222"/>
      <point x="230" y="-169"/>
      <point x="230" y="-86" type="curve" smooth="yes"/>
      <point x="230" y="238" type="line" smooth="yes"/>
      <point x="230" y="370"/>
      <point x="297" y="499"/>
      <point x="401" y="545" type="curve"/>
      <point x="401" y="561" type="line"/>
      <point x="297" y="608"/>
      <point x="230" y="736"/>
      <point x="230" y="868" type="curve" smooth="yes"/>
      <point x="230" y="1192" type="line" smooth="yes"/>
      <point x="230" y="1275"/>
      <point x="188" y="1328"/>
      <point x="133" y="1346" type="curve" smooth="yes"/>
      <point x="22" y="1382" type="line"/>
      <point x="11" y="1426"/>
      <point x="35" y="1516"/>
      <point x="71" y="1555" type="curve"/>
      <point x="189" y="1536" type="line" smooth="yes"/>
      <point x="365" y="1507"/>
      <point x="493" y="1395"/>
      <point x="493" y="1194" type="curve" smooth="yes"/>
      <point x="493" y="864" type="line" smooth="yes"/>
      <point x="493" y="753"/>
      <point x="564" y="661"/>
    </contour>
  </outline>
</glyph>
<glyph name="asciitilde" format="2">
  <advance width="1220"/>
  <unicode hex="007E"/>
  <outline>
    <contour>
      <point x="740" y="668" type="curve" smooth="yes"/>
      <point x="578" y="742" type="line" smooth="yes"/>
      <point x="518" y="768"/>
      <point x="459" y="783"/>
      <point x="403" y="783" type="curve" smooth="yes"/>
      <point x="274" y="783"/>
      <point x="172" y="710"/>
      <point x="104" y="592" type="curve" smooth="yes"/>
      <point x="71" y="534" type="line"/>
      <point x="96" y="476"/>
      <point x="171" y="438"/>
      <point x="225" y="434" type="curve"/>
      <point x="270" y="482" type="line" smooth="yes"/>
      <point x="302" y="520"/>
      <point x="340" y="541"/>
      <point x="385" y="541" type="curve" smooth="yes"/>
      <point x="414" y="541"/>
      <point x="446" y="532"/>
      <point x="480" y="518" type="curve" smooth="yes"/>
      <point x="642" y="444" type="line" smooth="yes"/>
      <point x="702" y="418"/>
      <point x="761" y="403"/>
      <point x="817" y="403" type="curve" smooth="yes"/>
      <point x="946" y="403"/>
      <point x="1048" y="476"/>
      <point x="1116" y="594" type="curve" smooth="yes"/>
      <point x="1149" y="652" type="line"/>
      <point x="1124" y="710"/>
      <point x="1049" y="748"/>
      <point x="995" y="752" type="curve"/>
      <point x="950" y="704" type="line" smooth="yes"/>
      <point x="918" y="667"/>
      <point x="880" y="645"/>
      <point x="835" y="645" type="curve" smooth="yes"/>
      <point x="806" y="645"/>
      <point x="774" y="654"/>
    </contour>
  </outline>
</glyph>
<glyph name="cent" format="2">
  <advance width="1080"/>
  <unicode hex="00A2"/>
  <outline>
    <contour>
      <point x="564" y="-53" type="curve" smooth="yes"/>
      <point x="596" y="-53"/>
      <point x="636" y="-50"/>
      <point x="662" y="-43" type="curve"/>
      <point x="662" y="262" type="line"/>
      <point x="466" y="262" type="line"/>
      <point x="466" y="-43" type="line"/>
      <point x="492" y="-50"/>
      <point x="532" y="-53"/>
    </contour>
    <contour>
      <point x="472" y="994" type="line"/>
      <point x="668" y="994" type="line"/>
      <point x="668" y="1309" type="line"/>
      <point x="642" y="1316"/>
      <point x="603" y="1319"/>
      <point x="570" y="1319" type="curve" smooth="yes"/>
      <point x="537" y="1319"/>
      <point x="498" y="1316"/>
      <point x="472" y="1309" type="curve"/>
    </contour>
    <contour>
      <point x="572" y="132" type="curve" smooth="yes"/>
      <point x="717" y="132"/>
      <point x="881" y="200"/>
      <point x="964" y="297" type="curve"/>
      <point x="948" y="351"/>
      <point x="899" y="415"/>
      <point x="854" y="443" type="curve"/>
      <point x="790" y="387"/>
      <point x="697" y="343"/>
      <point x="612" y="343" type="curve" smooth="yes"/>
      <point x="470" y="343"/>
      <point x="378" y="427"/>
      <point x="378" y="630" type="curve" smooth="yes"/>
      <point x="378" y="829"/>
      <point x="442" y="936"/>
      <point x="571" y="936" type="curve" smooth="yes"/>
      <point x="700" y="936"/>
      <point x="740" y="813"/>
      <point x="738" y="693" type="curve"/>
      <point x="766" y="686"/>
      <point x="801" y="682"/>
      <point x="830" y="682" type="curve" smooth="yes"/>
      <point x="924" y="682"/>
      <point x="969" y="729"/>
      <point x="969" y="828" type="curve" smooth="yes"/>
      <point x="969" y="983"/>
      <point x="821" y="1134"/>
      <point x="577" y="1134" type="curve" smooth="yes"/>
      <point x="342" y="1134"/>
      <point x="114" y="986"/>
      <point x="114" y="630" type="curve" smooth="yes"/>
      <point x="114" y="399"/>
      <point x="219" y="132"/>
    </contour>
  </outline>
</glyph>
<glyph name="sterling" format="2">
  <advance width="1080"/>
  <unicode hex="00A3"/>
  <guideline x="137" y="142" angle="90.0"/>
  <outline>
    <contour>
      <point x="170" y="0" type="curve"/>
      <point x="814" y="0" type="line" smooth="yes"/>
      <point x="933" y="0"/>
      <point x="987" y="49"/>
      <point x="987" y="216" type="curve"/>
      <point x="755" y="216" type="line" smooth="yes"/>
      <point x="624" y="216"/>
      <point x="503" y="214"/>
      <point x="405" y="203" type="curve"/>
      <point x="399" y="208" type="line"/>
      <point x="488" y="291"/>
      <point x="552" y="398"/>
      <point x="552" y="514" type="curve" smooth="yes"/>
      <point x="552" y="673"/>
      <point x="484" y="789"/>
      <point x="484" y="905" type="curve" smooth="yes"/>
      <point x="484" y="1032"/>
      <point x="566" y="1080"/>
      <point x="652" y="1080" type="curve" smooth="yes"/>
      <point x="722" y="1080"/>
      <point x="793" y="1042"/>
      <point x="850" y="992" type="curve"/>
      <point x="909" y="1024"/>
      <point x="959" y="1099"/>
      <point x="973" y="1163" type="curve"/>
      <point x="889" y="1238"/>
      <point x="771" y="1297"/>
      <point x="631" y="1297" type="curve" smooth="yes"/>
      <point x="381" y="1297"/>
      <point x="224" y="1126"/>
      <point x="224" y="925" type="curve" smooth="yes"/>
      <point x="224" y="764"/>
      <point x="315" y="656"/>
      <point x="315" y="494" type="curve" smooth="yes"/>
      <point x="315" y="404"/>
      <point x="273" y="343"/>
      <point x="223" y="288" type="curve" smooth="yes"/>
      <point x="199" y="261" type="line" smooth="yes"/>
      <point x="168" y="228"/>
      <point x="137" y="194"/>
      <point x="137" y="144" type="curve" smooth="yes"/>
      <point x="137" y="114"/>
      <point x="142" y="81"/>
    </contour>
    <contour>
      <point x="147" y="520" type="curve"/>
      <point x="412" y="521" type="line"/>
      <point x="824" y="520" type="line"/>
      <point x="831" y="545"/>
      <point x="834" y="582"/>
      <point x="834" y="614" type="curve" smooth="yes"/>
      <point x="834" y="647"/>
      <point x="831" y="683"/>
      <point x="824" y="707" type="curve"/>
      <point x="412" y="705" type="line"/>
      <point x="147" y="707" type="line"/>
      <point x="140" y="682"/>
      <point x="137" y="649"/>
      <point x="137" y="613" type="curve" smooth="yes"/>
      <point x="137" y="578"/>
      <point x="140" y="545"/>
    </contour>
  </outline>
</glyph>
<glyph name="currency" format="2">
  <advance width="1080"/>
  <unicode hex="00A4"/>
  <outline>
    <contour>
      <point x="538" y="236" type="curve" smooth="yes"/>
      <point x="773" y="236"/>
      <point x="937" y="396"/>
      <point x="937" y="632" type="curve" smooth="yes"/>
      <point x="937" y="870"/>
      <point x="773" y="1030"/>
      <point x="538" y="1030" type="curve" smooth="yes"/>
      <point x="305" y="1030"/>
      <point x="141" y="870"/>
      <point x="141" y="632" type="curve" smooth="yes"/>
      <point x="141" y="396"/>
      <point x="305" y="236"/>
    </contour>
    <contour>
      <point x="538" y="418" type="curve" smooth="yes"/>
      <point x="424" y="418"/>
      <point x="372" y="516"/>
      <point x="372" y="632" type="curve" smooth="yes"/>
      <point x="372" y="752"/>
      <point x="424" y="848"/>
      <point x="538" y="848" type="curve" smooth="yes"/>
      <point x="654" y="848"/>
      <point x="706" y="752"/>
      <point x="706" y="632" type="curve" smooth="yes"/>
      <point x="706" y="513"/>
      <point x="654" y="418"/>
    </contour>
    <contour>
      <point x="181" y="136" type="curve"/>
      <point x="421" y="350" type="line"/>
      <point x="261" y="510" type="line"/>
      <point x="45" y="272" type="line"/>
      <point x="77" y="219"/>
      <point x="129" y="165"/>
    </contour>
    <contour>
      <point x="261" y="752" type="line"/>
      <point x="418" y="912" type="line"/>
      <point x="181" y="1126" type="line"/>
      <point x="129" y="1096"/>
      <point x="73" y="1044"/>
      <point x="45" y="990" type="curve"/>
    </contour>
    <contour>
      <point x="820" y="755" type="line"/>
      <point x="1035" y="994" type="line"/>
      <point x="1003" y="1047"/>
      <point x="951" y="1100"/>
      <point x="899" y="1130" type="curve"/>
      <point x="660" y="915" type="line"/>
    </contour>
    <contour>
      <point x="895" y="134" type="line"/>
      <point x="950" y="166"/>
      <point x="1002" y="218"/>
      <point x="1031" y="270" type="curve"/>
      <point x="816" y="508" type="line"/>
      <point x="656" y="350" type="line"/>
    </contour>
  </outline>
</glyph>
<glyph name="yen" format="2">
  <advance width="1080"/>
  <unicode hex="00A5"/>
  <guideline x="668" y="919" angle="77.33911999999998"/>
  <outline>
    <contour>
      <point x="413" y="442" type="line"/>
      <point x="658" y="442" type="line"/>
      <point x="1012" y="1244" type="line"/>
      <point x="1002" y="1264" type="line"/>
      <point x="954" y="1277"/>
      <point x="910" y="1281"/>
      <point x="869" y="1281" type="curve" smooth="yes"/>
      <point x="837" y="1281"/>
      <point x="805" y="1279"/>
      <point x="770" y="1269" type="curve"/>
      <point x="643" y="948" type="line" smooth="yes"/>
      <point x="615" y="876"/>
      <point x="578" y="777"/>
      <point x="549" y="684" type="curve"/>
      <point x="539" y="684" type="line"/>
      <point x="511" y="788"/>
      <point x="481" y="874"/>
      <point x="453" y="948" type="curve" smooth="yes"/>
      <point x="357" y="1192" type="line" smooth="yes"/>
      <point x="332" y="1260"/>
      <point x="297" y="1289"/>
      <point x="236" y="1289" type="curve" smooth="yes"/>
      <point x="181" y="1289"/>
      <point x="117" y="1269"/>
      <point x="68" y="1243" type="curve"/>
    </contour>
    <contour>
      <point x="537" y="-10" type="curve" smooth="yes"/>
      <point x="572" y="-10"/>
      <point x="621" y="-8"/>
      <point x="664" y="0" type="curve"/>
      <point x="664" y="520" type="line"/>
      <point x="407" y="520" type="line"/>
      <point x="407" y="0" type="line"/>
      <point x="448" y="-8"/>
      <point x="506" y="-10"/>
    </contour>
    <contour>
      <point x="129" y="299" type="curve"/>
      <point x="942" y="299" type="line"/>
      <point x="949" y="326"/>
      <point x="953" y="357"/>
      <point x="953" y="388" type="curve" smooth="yes"/>
      <point x="953" y="418"/>
      <point x="949" y="449"/>
      <point x="942" y="474" type="curve"/>
      <point x="129" y="474" type="line"/>
      <point x="123" y="450"/>
      <point x="119" y="419"/>
      <point x="119" y="387" type="curve" smooth="yes"/>
      <point x="119" y="353"/>
      <point x="123" y="325"/>
    </contour>
    <contour>
      <point x="129" y="611" type="curve"/>
      <point x="406" y="611" type="line"/>
      <point x="406" y="788" type="line"/>
      <point x="129" y="788" type="line"/>
      <point x="123" y="763"/>
      <point x="119" y="733"/>
      <point x="119" y="700" type="curve" smooth="yes"/>
      <point x="119" y="666"/>
      <point x="123" y="636"/>
    </contour>
    <contour>
      <point x="665" y="611" type="line"/>
      <point x="942" y="611" type="line"/>
      <point x="949" y="638"/>
      <point x="953" y="668"/>
      <point x="953" y="700" type="curve" smooth="yes"/>
      <point x="953" y="736"/>
      <point x="948" y="767"/>
      <point x="942" y="788" type="curve"/>
      <point x="665" y="788" type="line"/>
    </contour>
  </outline>
</glyph>
<glyph name="brokenbar" format="2">
  <advance width="514"/>
  <unicode hex="00A6"/>
  <outline>
    <contour>
      <point x="136" y="491" type="curve"/>
      <point x="136" y="-283" type="line"/>
      <point x="174" y="-292"/>
      <point x="229" y="-294"/>
      <point x="259" y="-294" type="curve" smooth="yes"/>
      <point x="293" y="-294"/>
      <point x="338" y="-292"/>
      <point x="378" y="-283" type="curve"/>
      <point x="378" y="491" type="line"/>
      <point x="338" y="501"/>
      <point x="293" y="503"/>
      <point x="259" y="503" type="curve" smooth="yes"/>
      <point x="229" y="503"/>
      <point x="174" y="501"/>
    </contour>
    <contour>
      <point x="136" y="1547" type="curve"/>
      <point x="136" y="773" type="line"/>
      <point x="174" y="764"/>
      <point x="229" y="762"/>
      <point x="259" y="762" type="curve" smooth="yes"/>
      <point x="293" y="762"/>
      <point x="338" y="764"/>
      <point x="378" y="773" type="curve"/>
      <point x="378" y="1547" type="line"/>
      <point x="338" y="1557"/>
      <point x="293" y="1559"/>
      <point x="259" y="1559" type="curve" smooth="yes"/>
      <point x="229" y="1559"/>
      <point x="174" y="1557"/>
    </contour>
  </outline>
</glyph>
<glyph name="section" format="2">
  <advance width="986"/>
  <unicode hex="00A7"/>
  <outline>
    <contour>
      <point x="511" y="385" type="curve"/>
      <point x="593" y="260" type="line"/>
      <point x="773" y="319"/>
      <point x="931" y="452"/>
      <point x="931" y="616" type="curve" smooth="yes"/>
      <point x="931" y="797"/>
      <point x="780" y="885"/>
      <point x="605" y="957" type="curve" smooth="yes"/>
      <point x="490" y="1004" type="line" smooth="yes"/>
      <point x="424" y="1031"/>
      <point x="388" y="1060"/>
      <point x="388" y="1108" type="curve" smooth="yes"/>
      <point x="388" y="1165"/>
      <point x="440" y="1201"/>
      <point x="513" y="1201" type="curve" smooth="yes"/>
      <point x="594" y="1201"/>
      <point x="679" y="1172"/>
      <point x="755" y="1141" type="curve"/>
      <point x="799" y="1174"/>
      <point x="833" y="1259"/>
      <point x="829" y="1322" type="curve"/>
      <point x="744" y="1361"/>
      <point x="618" y="1394"/>
      <point x="504" y="1394" type="curve" smooth="yes"/>
      <point x="282" y="1394"/>
      <point x="128" y="1261"/>
      <point x="128" y="1087" type="curve" smooth="yes"/>
      <point x="128" y="935"/>
      <point x="240" y="843"/>
      <point x="384" y="786" type="curve" smooth="yes"/>
      <point x="480" y="748" type="line" smooth="yes"/>
      <point x="590" y="705"/>
      <point x="678" y="654"/>
      <point x="678" y="571" type="curve" smooth="yes"/>
      <point x="678" y="485"/>
      <point x="599" y="417"/>
    </contour>
    <contour>
      <point x="478" y="786" type="curve"/>
      <point x="396" y="911" type="line"/>
      <point x="216" y="851"/>
      <point x="58" y="719"/>
      <point x="58" y="555" type="curve" smooth="yes"/>
      <point x="58" y="374"/>
      <point x="209" y="285"/>
      <point x="384" y="213" type="curve" smooth="yes"/>
      <point x="500" y="166" type="line" smooth="yes"/>
      <point x="566" y="140"/>
      <point x="602" y="108"/>
      <point x="602" y="60" type="curve" smooth="yes"/>
      <point x="602" y="3"/>
      <point x="550" y="-33"/>
      <point x="472" y="-33" type="curve" smooth="yes"/>
      <point x="373" y="-33"/>
      <point x="274" y="5"/>
      <point x="204" y="38" type="curve"/>
      <point x="161" y="6"/>
      <point x="124" y="-79"/>
      <point x="128" y="-142" type="curve"/>
      <point x="217" y="-195"/>
      <point x="353" y="-226"/>
      <point x="472" y="-226" type="curve" smooth="yes"/>
      <point x="708" y="-226"/>
      <point x="861" y="-93"/>
      <point x="861" y="81" type="curve" smooth="yes"/>
      <point x="861" y="233"/>
      <point x="749" y="328"/>
      <point x="605" y="385" type="curve" smooth="yes"/>
      <point x="509" y="422" type="line" smooth="yes"/>
      <point x="392" y="468"/>
      <point x="311" y="516"/>
      <point x="311" y="599" type="curve" smooth="yes"/>
      <point x="311" y="686"/>
      <point x="390" y="753"/>
    </contour>
  </outline>
</glyph>
<glyph name="copyright" format="2">
  <advance width="1591"/>
  <unicode hex="00A9"/>
  <outline>
    <contour>
      <point x="71" y="682" type="curve" smooth="yes"/>
      <point x="71" y="273"/>
      <point x="386" y="-41"/>
      <point x="794" y="-41" type="curve" smooth="yes"/>
      <point x="1203" y="-41"/>
      <point x="1520" y="273"/>
      <point x="1520" y="682" type="curve" smooth="yes"/>
      <point x="1520" y="1091"/>
      <point x="1203" y="1407"/>
      <point x="794" y="1407" type="curve" smooth="yes"/>
      <point x="386" y="1407"/>
      <point x="71" y="1091"/>
    </contour>
    <contour>
      <point x="275" y="682" type="curve" smooth="yes"/>
      <point x="275" y="985"/>
      <point x="491" y="1230"/>
      <point x="794" y="1230" type="curve" smooth="yes"/>
      <point x="1098" y="1230"/>
      <point x="1315" y="985"/>
      <point x="1315" y="682" type="curve" smooth="yes"/>
      <point x="1315" y="379"/>
      <point x="1098" y="136"/>
      <point x="794" y="136" type="curve" smooth="yes"/>
      <point x="491" y="136"/>
      <point x="275" y="379"/>
    </contour>
    <contour>
      <point x="909" y="744" type="curve"/>
      <point x="927" y="736"/>
      <point x="960" y="732"/>
      <point x="986" y="732" type="curve" smooth="yes"/>
      <point x="1063" y="732"/>
      <point x="1097" y="772"/>
      <point x="1097" y="841" type="curve" smooth="yes"/>
      <point x="1097" y="961"/>
      <point x="983" y="1076"/>
      <point x="800" y="1076" type="curve" smooth="yes"/>
      <point x="632" y="1076"/>
      <point x="450" y="965"/>
      <point x="450" y="683" type="curve" smooth="yes"/>
      <point x="450" y="478"/>
      <point x="545" y="292"/>
      <point x="796" y="292" type="curve" smooth="yes"/>
      <point x="899" y="292"/>
      <point x="1023" y="342"/>
      <point x="1087" y="407" type="curve"/>
      <point x="1078" y="450"/>
      <point x="1045" y="503"/>
      <point x="1009" y="526" type="curve"/>
      <point x="953" y="488"/>
      <point x="886" y="454"/>
      <point x="829" y="454" type="curve" smooth="yes"/>
      <point x="722" y="454"/>
      <point x="661" y="533"/>
      <point x="661" y="683" type="curve" smooth="yes"/>
      <point x="661" y="841"/>
      <point x="706" y="923"/>
      <point x="793" y="923" type="curve" smooth="yes"/>
      <point x="887" y="923"/>
      <point x="912" y="830"/>
    </contour>
  </outline>
</glyph>
<glyph name="ordfeminine" format="2">
  <advance width="883"/>
  <unicode hex="00AA"/>
  <outline>
    <contour>
      <point x="79" y="703" type="curve" smooth="yes"/>
      <point x="79" y="579"/>
      <point x="166" y="463"/>
      <point x="325" y="463" type="curve" smooth="yes"/>
      <point x="467" y="463"/>
      <point x="564" y="556"/>
      <point x="628" y="628" type="curve"/>
      <point x="593" y="771" type="line"/>
      <point x="540" y="684"/>
      <point x="450" y="626"/>
      <point x="384" y="626" type="curve" smooth="yes"/>
      <point x="328" y="626"/>
      <point x="293" y="668"/>
      <point x="293" y="717" type="curve" smooth="yes"/>
      <point x="293" y="785"/>
      <point x="334" y="827"/>
      <point x="409" y="827" type="curve" smooth="yes"/>
      <point x="466" y="827"/>
      <point x="541" y="821"/>
      <point x="595" y="815" type="curve"/>
      <point x="595" y="957" type="line"/>
      <point x="530" y="964"/>
      <point x="448" y="970"/>
      <point x="393" y="970" type="curve" smooth="yes"/>
      <point x="217" y="970"/>
      <point x="79" y="888"/>
    </contour>
    <contour>
      <point x="800" y="587" type="curve"/>
      <point x="759" y="612"/>
      <point x="748" y="654"/>
      <point x="748" y="710" type="curve" smooth="yes"/>
      <point x="748" y="1023" type="line" smooth="yes"/>
      <point x="748" y="1216"/>
      <point x="617" y="1294"/>
      <point x="468" y="1294" type="curve" smooth="yes"/>
      <point x="357" y="1294"/>
      <point x="215" y="1262"/>
      <point x="115" y="1221" type="curve"/>
      <point x="118" y="1165"/>
      <point x="139" y="1108"/>
      <point x="172" y="1073" type="curve"/>
      <point x="261" y="1103"/>
      <point x="334" y="1124"/>
      <point x="415" y="1124" type="curve" smooth="yes"/>
      <point x="471" y="1124"/>
      <point x="522" y="1093"/>
      <point x="522" y="1016" type="curve" smooth="yes"/>
      <point x="522" y="710" type="line" smooth="yes"/>
      <point x="522" y="570"/>
      <point x="595" y="481"/>
      <point x="716" y="471" type="curve"/>
      <point x="757" y="492"/>
      <point x="794" y="544"/>
    </contour>
  </outline>
</glyph>
<glyph name="logicalnot" format="2">
  <advance width="1080"/>
  <unicode hex="00AC"/>
  <outline>
    <contour>
      <point x="109" y="751" type="curve"/>
      <point x="949" y="751" type="line"/>
      <point x="962" y="738" type="line"/>
      <point x="962" y="536" type="line"/>
      <point x="743" y="538" type="line" smooth="yes"/>
      <point x="701" y="538"/>
      <point x="661" y="536"/>
      <point x="617" y="536" type="curve" smooth="yes"/>
      <point x="109" y="536" type="line"/>
      <point x="100" y="571"/>
      <point x="98" y="618"/>
      <point x="98" y="644" type="curve" smooth="yes"/>
      <point x="98" y="670"/>
      <point x="100" y="716"/>
    </contour>
    <contour>
      <point x="735" y="560" type="curve" smooth="yes"/>
      <point x="733" y="651" type="line"/>
      <point x="962" y="651" type="line"/>
      <point x="962" y="280" type="line"/>
      <point x="927" y="272"/>
      <point x="890" y="270"/>
      <point x="851" y="270" type="curve" smooth="yes"/>
      <point x="811" y="270"/>
      <point x="776" y="272"/>
      <point x="733" y="280" type="curve"/>
      <point x="733" y="428" type="line" smooth="yes"/>
      <point x="733" y="472"/>
      <point x="736" y="518"/>
    </contour>
  </outline>
</glyph>
<glyph name="registered" format="2">
  <advance width="1195"/>
  <unicode hex="00AE"/>
  <outline>
    <contour>
      <point x="61" y="950" type="curve" smooth="yes"/>
      <point x="61" y="649"/>
      <point x="296" y="415"/>
      <point x="596" y="415" type="curve" smooth="yes"/>
      <point x="897" y="415"/>
      <point x="1134" y="649"/>
      <point x="1134" y="950" type="curve" smooth="yes"/>
      <point x="1134" y="1251"/>
      <point x="897" y="1487"/>
      <point x="596" y="1487" type="curve" smooth="yes"/>
      <point x="296" y="1487"/>
      <point x="61" y="1251"/>
    </contour>
    <contour>
      <point x="221" y="950" type="curve" smooth="yes"/>
      <point x="221" y="1166"/>
      <point x="381" y="1342"/>
      <point x="596" y="1342" type="curve" smooth="yes"/>
      <point x="813" y="1342"/>
      <point x="974" y="1166"/>
      <point x="974" y="950" type="curve" smooth="yes"/>
      <point x="974" y="734"/>
      <point x="813" y="560"/>
      <point x="596" y="560" type="curve" smooth="yes"/>
      <point x="381" y="560"/>
      <point x="221" y="734"/>
    </contour>
    <contour>
      <point x="808" y="1065" type="curve" smooth="yes"/>
      <point x="808" y="1147"/>
      <point x="752" y="1213"/>
      <point x="610" y="1213" type="curve" smooth="yes"/>
      <point x="547" y="1213"/>
      <point x="471" y="1210"/>
      <point x="401" y="1208" type="curve"/>
      <point x="395" y="1203" type="line"/>
      <point x="395" y="709" type="line"/>
      <point x="413" y="704"/>
      <point x="439" y="701"/>
      <point x="465" y="701" type="curve" smooth="yes"/>
      <point x="491" y="701"/>
      <point x="517" y="704"/>
      <point x="535" y="709" type="curve"/>
      <point x="535" y="1107" type="line"/>
      <point x="555" y="1107"/>
      <point x="574" y="1107"/>
      <point x="597" y="1107" type="curve" smooth="yes"/>
      <point x="642" y="1107"/>
      <point x="662" y="1082"/>
      <point x="662" y="1052" type="curve" smooth="yes"/>
      <point x="662" y="1020"/>
      <point x="643" y="994"/>
      <point x="591" y="994" type="curve" smooth="yes"/>
      <point x="568" y="994"/>
      <point x="504" y="993"/>
      <point x="470" y="992" type="curve"/>
      <point x="470" y="886" type="line"/>
      <point x="562" y="886" type="line" smooth="yes"/>
      <point x="594" y="886"/>
      <point x="606" y="873"/>
      <point x="619" y="849" type="curve" smooth="yes"/>
      <point x="665" y="761" type="line" smooth="yes"/>
      <point x="685" y="719"/>
      <point x="707" y="699"/>
      <point x="746" y="699" type="curve" smooth="yes"/>
      <point x="784" y="699"/>
      <point x="824" y="721"/>
      <point x="843" y="750" type="curve"/>
      <point x="824" y="762"/>
      <point x="810" y="785"/>
      <point x="798" y="808" type="curve" smooth="yes"/>
      <point x="773" y="856" type="line" smooth="yes"/>
      <point x="754" y="893"/>
      <point x="738" y="918"/>
      <point x="707" y="931" type="curve"/>
      <point x="757" y="945"/>
      <point x="808" y="987"/>
    </contour>
  </outline>
</glyph>
<glyph name="degree" format="2">
  <advance width="772"/>
  <unicode hex="00B0"/>
  <outline>
    <contour>
      <point x="59" y="965" type="curve" smooth="yes"/>
      <point x="59" y="774"/>
      <point x="197" y="637"/>
      <point x="386" y="637" type="curve" smooth="yes"/>
      <point x="575" y="637"/>
      <point x="713" y="774"/>
      <point x="713" y="965" type="curve" smooth="yes"/>
      <point x="713" y="1156"/>
      <point x="575" y="1294"/>
      <point x="386" y="1294" type="curve" smooth="yes"/>
      <point x="197" y="1294"/>
      <point x="59" y="1156"/>
    </contour>
    <contour>
      <point x="246" y="965" type="curve" smooth="yes"/>
      <point x="246" y="1061"/>
      <point x="301" y="1126"/>
      <point x="386" y="1126" type="curve" smooth="yes"/>
      <point x="469" y="1126"/>
      <point x="523" y="1061"/>
      <point x="523" y="965" type="curve" smooth="yes"/>
      <point x="523" y="869"/>
      <point x="469" y="805"/>
      <point x="386" y="805" type="curve" smooth="yes"/>
      <point x="301" y="805"/>
      <point x="246" y="869"/>
    </contour>
  </outline>
</glyph>
<glyph name="plusminus" format="2">
  <advance width="1080"/>
  <unicode hex="00B1"/>
  <outline>
    <contour>
      <point x="140" y="809" type="curve"/>
      <point x="316" y="809" type="line" smooth="yes"/>
      <point x="358" y="809"/>
      <point x="398" y="807"/>
      <point x="438" y="807" type="curve" smooth="yes"/>
      <point x="642" y="807" type="line" smooth="yes"/>
      <point x="682" y="807"/>
      <point x="722" y="809"/>
      <point x="765" y="809" type="curve" smooth="yes"/>
      <point x="940" y="809" type="line"/>
      <point x="948" y="772"/>
      <point x="950" y="751"/>
      <point x="950" y="712" type="curve" smooth="yes"/>
      <point x="950" y="673"/>
      <point x="948" y="650"/>
      <point x="940" y="612" type="curve"/>
      <point x="765" y="612" type="line" smooth="yes"/>
      <point x="722" y="612"/>
      <point x="682" y="614"/>
      <point x="642" y="614" type="curve" smooth="yes"/>
      <point x="438" y="614" type="line" smooth="yes"/>
      <point x="398" y="614"/>
      <point x="358" y="612"/>
      <point x="316" y="612" type="curve" smooth="yes"/>
      <point x="140" y="612" type="line"/>
      <point x="132" y="650"/>
      <point x="130" y="673"/>
      <point x="130" y="712" type="curve" smooth="yes"/>
      <point x="130" y="751"/>
      <point x="132" y="772"/>
    </contour>
    <contour>
      <point x="428" y="930" type="curve" smooth="yes"/>
      <point x="428" y="1104" type="line"/>
      <point x="465" y="1111"/>
      <point x="503" y="1113"/>
      <point x="541" y="1113" type="curve" smooth="yes"/>
      <point x="579" y="1113"/>
      <point x="617" y="1111"/>
      <point x="653" y="1104" type="curve"/>
      <point x="653" y="930" type="line" smooth="yes"/>
      <point x="653" y="887"/>
      <point x="651" y="841"/>
      <point x="651" y="801" type="curve" smooth="yes"/>
      <point x="651" y="622" type="line" smooth="yes"/>
      <point x="651" y="582"/>
      <point x="653" y="536"/>
      <point x="653" y="494" type="curve" smooth="yes"/>
      <point x="653" y="332" type="line"/>
      <point x="617" y="324"/>
      <point x="579" y="322"/>
      <point x="541" y="322" type="curve" smooth="yes"/>
      <point x="503" y="322"/>
      <point x="465" y="324"/>
      <point x="428" y="332" type="curve"/>
      <point x="428" y="494" type="line" smooth="yes"/>
      <point x="428" y="536"/>
      <point x="430" y="582"/>
      <point x="430" y="622" type="curve" smooth="yes"/>
      <point x="430" y="801" type="line" smooth="yes"/>
      <point x="430" y="841"/>
      <point x="428" y="887"/>
    </contour>
    <contour>
      <point x="140" y="0" type="curve"/>
      <point x="940" y="0" type="line"/>
      <point x="948" y="38"/>
      <point x="950" y="65"/>
      <point x="950" y="102" type="curve" smooth="yes"/>
      <point x="950" y="142"/>
      <point x="948" y="165"/>
      <point x="940" y="204" type="curve"/>
      <point x="140" y="204" type="line"/>
      <point x="132" y="165"/>
      <point x="130" y="142"/>
      <point x="130" y="102" type="curve" smooth="yes"/>
      <point x="130" y="65"/>
      <point x="132" y="38"/>
    </contour>
  </outline>
</glyph>
<glyph name="twosuperior" format="2">
  <advance width="829"/>
  <unicode hex="00B2"/>
  <outline>
    <contour>
      <point x="101" y="1290" type="curve"/>
      <point x="127" y="1252"/>
      <point x="214" y="1219"/>
      <point x="267" y="1217" type="curve"/>
      <point x="284" y="1275"/>
      <point x="325" y="1323"/>
      <point x="380" y="1324" type="curve" smooth="yes"/>
      <point x="433" y="1325"/>
      <point x="468" y="1288"/>
      <point x="468" y="1235" type="curve" smooth="yes"/>
      <point x="468" y="1169"/>
      <point x="418" y="1127"/>
      <point x="369" y="1089" type="curve" smooth="yes"/>
      <point x="241" y="992" type="line" smooth="yes"/>
      <point x="161" y="930"/>
      <point x="91" y="846"/>
      <point x="91" y="766" type="curve" smooth="yes"/>
      <point x="91" y="728"/>
      <point x="107" y="697"/>
      <point x="161" y="633" type="curve"/>
      <point x="304" y="633" type="line"/>
      <point x="304" y="764" type="line" smooth="yes"/>
      <point x="304" y="802"/>
      <point x="358" y="847"/>
      <point x="434" y="901" type="curve" smooth="yes"/>
      <point x="520" y="962" type="line" smooth="yes"/>
      <point x="583" y="1006"/>
      <point x="690" y="1092"/>
      <point x="690" y="1241" type="curve" smooth="yes"/>
      <point x="690" y="1395"/>
      <point x="574" y="1511"/>
      <point x="400" y="1511" type="curve" smooth="yes"/>
      <point x="241" y="1511"/>
      <point x="133" y="1414"/>
    </contour>
    <contour>
      <point x="715" y="825" type="curve"/>
      <point x="552" y="825" type="line" smooth="yes"/>
      <point x="393" y="825"/>
      <point x="266" y="806"/>
      <point x="169" y="762" type="curve"/>
      <point x="193" y="633" type="line"/>
      <point x="584" y="633" type="line" smooth="yes"/>
      <point x="664" y="633"/>
      <point x="715" y="658"/>
    </contour>
  </outline>
</glyph>
<glyph name="threesuperior" format="2">
  <advance width="830"/>
  <unicode hex="00B3"/>
  <outline>
    <contour>
      <point x="492" y="912" type="curve" smooth="yes"/>
      <point x="492" y="840"/>
      <point x="439" y="795"/>
      <point x="361" y="795" type="curve" smooth="yes"/>
      <point x="290" y="795"/>
      <point x="231" y="823"/>
      <point x="180" y="858" type="curve"/>
      <point x="140" y="824"/>
      <point x="104" y="766"/>
      <point x="94" y="713" type="curve"/>
      <point x="157" y="660"/>
      <point x="258" y="622"/>
      <point x="375" y="622" type="curve" smooth="yes"/>
      <point x="549" y="622"/>
      <point x="713" y="719"/>
      <point x="713" y="910" type="curve" smooth="yes"/>
      <point x="713" y="1067"/>
      <point x="590" y="1164"/>
      <point x="456" y="1164" type="curve" smooth="yes"/>
      <point x="384" y="1164"/>
      <point x="300" y="1150"/>
      <point x="216" y="1127" type="curve"/>
      <point x="226" y="1081"/>
      <point x="264" y="1029"/>
      <point x="303" y="1012" type="curve"/>
      <point x="323" y="1021"/>
      <point x="348" y="1026"/>
      <point x="373" y="1026" type="curve" smooth="yes"/>
      <point x="438" y="1026"/>
      <point x="492" y="984"/>
    </contour>
    <contour>
      <point x="547" y="1198" type="curve" smooth="yes"/>
      <point x="625" y="1273" type="line"/>
      <point x="659" y="1301"/>
      <point x="678" y="1326"/>
      <point x="678" y="1369" type="curve" smooth="yes"/>
      <point x="678" y="1411"/>
      <point x="654" y="1461"/>
      <point x="634" y="1497" type="curve"/>
      <point x="144" y="1497" type="line"/>
      <point x="129" y="1461"/>
      <point x="125" y="1424"/>
      <point x="125" y="1396" type="curve" smooth="yes"/>
      <point x="125" y="1373"/>
      <point x="128" y="1348"/>
      <point x="135" y="1318" type="curve"/>
      <point x="279" y="1318" type="line" smooth="yes"/>
      <point x="317" y="1318"/>
      <point x="396" y="1321"/>
      <point x="431" y="1328" type="curve"/>
      <point x="436" y="1322" type="line"/>
      <point x="411" y="1305"/>
      <point x="379" y="1278"/>
      <point x="355" y="1257" type="curve" smooth="yes"/>
      <point x="216" y="1127" type="line"/>
      <point x="333" y="1085" type="line"/>
      <point x="416" y="1110"/>
      <point x="505" y="1162"/>
    </contour>
  </outline>
</glyph>
<glyph name="micro" format="2">
  <advance width="1106"/>
  <unicode hex="00B5"/>
  <outline>
    <contour>
      <point x="229" y="469" type="line"/>
      <point x="394" y="469" type="line"/>
      <point x="394" y="375" type="line" smooth="yes"/>
      <point x="394" y="270"/>
      <point x="445" y="204"/>
      <point x="539" y="204" type="curve" smooth="yes"/>
      <point x="635" y="204"/>
      <point x="706" y="277"/>
      <point x="757" y="392" type="curve"/>
      <point x="775" y="174" type="line"/>
      <point x="730" y="64"/>
      <point x="638" y="-19"/>
      <point x="509" y="-19" type="curve" smooth="yes"/>
      <point x="340" y="-19"/>
      <point x="229" y="150"/>
      <point x="229" y="336" type="curve" smooth="yes"/>
    </contour>
    <contour>
      <point x="963" y="993" type="curve"/>
      <point x="963" y="284" type="line" smooth="yes"/>
      <point x="963" y="213"/>
      <point x="981" y="148"/>
      <point x="1019" y="117" type="curve"/>
      <point x="1008" y="70"/>
      <point x="969" y="10"/>
      <point x="932" y="-15" type="curve"/>
      <point x="777" y="-1"/>
      <point x="702" y="123"/>
      <point x="702" y="272" type="curve" smooth="yes"/>
      <point x="702" y="993" type="line"/>
      <point x="738" y="1000"/>
      <point x="787" y="1003"/>
      <point x="832" y="1003" type="curve" smooth="yes"/>
      <point x="877" y="1003"/>
      <point x="926" y="1000"/>
    </contour>
    <contour>
      <point x="394" y="993" type="curve"/>
      <point x="394" y="162" type="line"/>
      <point x="378" y="162" type="line"/>
      <point x="378" y="-261" type="line" smooth="yes"/>
      <point x="378" y="-366"/>
      <point x="360" y="-437"/>
      <point x="253" y="-437" type="curve" smooth="yes"/>
      <point x="190" y="-437"/>
      <point x="138" y="-418"/>
      <point x="94" y="-385" type="curve"/>
      <point x="129" y="-330"/>
      <point x="136" y="-244"/>
      <point x="136" y="-192" type="curve" smooth="yes"/>
      <point x="136" y="993" type="line"/>
      <point x="172" y="1000"/>
      <point x="220" y="1003"/>
      <point x="266" y="1003" type="curve" smooth="yes"/>
      <point x="310" y="1003"/>
      <point x="357" y="1000"/>
    </contour>
  </outline>
</glyph>
<glyph name="paragraph" format="2">
  <advance width="1425"/>
  <unicode hex="00B6"/>
  <outline>
    <contour>
      <point x="562" y="124" type="curve" smooth="yes"/>
      <point x="562" y="487" type="line"/>
      <point x="532" y="487" type="line" smooth="yes"/>
      <point x="270" y="487"/>
      <point x="68" y="634"/>
      <point x="68" y="934" type="curve" smooth="yes"/>
      <point x="68" y="1246"/>
      <point x="270" y="1377"/>
      <point x="545" y="1377" type="curve" smooth="yes"/>
      <point x="637" y="1377"/>
      <point x="711" y="1372"/>
      <point x="812" y="1368" type="curve"/>
      <point x="826" y="1355" type="line"/>
      <point x="826" y="174" type="line" smooth="yes"/>
      <point x="826" y="-146"/>
      <point x="721" y="-315"/>
      <point x="401" y="-315" type="curve" smooth="yes"/>
      <point x="294" y="-315"/>
      <point x="185" y="-290"/>
      <point x="124" y="-266" type="curve"/>
      <point x="122" y="-215"/>
      <point x="144" y="-124"/>
      <point x="181" y="-74" type="curve"/>
      <point x="238" y="-94"/>
      <point x="312" y="-115"/>
      <point x="376" y="-115" type="curve" smooth="yes"/>
      <point x="524" y="-115"/>
      <point x="562" y="-34"/>
    </contour>
    <contour>
      <point x="951" y="1353" type="line"/>
      <point x="951" y="-263" type="line"/>
      <point x="993" y="-272"/>
      <point x="1051" y="-274"/>
      <point x="1086" y="-274" type="curve" smooth="yes"/>
      <point x="1125" y="-274"/>
      <point x="1174" y="-272"/>
      <point x="1217" y="-263" type="curve"/>
      <point x="1217" y="1366" type="line"/>
      <point x="965" y="1366" type="line"/>
    </contour>
    <contour>
      <point x="1086" y="1366" type="line"/>
      <point x="1086" y="1144" type="line"/>
      <point x="1172" y="1144" type="line" smooth="yes"/>
      <point x="1217" y="1144"/>
      <point x="1264" y="1139"/>
      <point x="1313" y="1139" type="curve" smooth="yes"/>
      <point x="1379" y="1139" type="line"/>
      <point x="1395" y="1190"/>
      <point x="1395" y="1315"/>
      <point x="1379" y="1366" type="curve"/>
    </contour>
  </outline>
</glyph>
<glyph name="onesuperior" format="2">
  <advance width="829"/>
  <unicode hex="00B9"/>
  <outline>
    <contour>
      <point x="564" y="731" type="line"/>
      <point x="564" y="1493" type="line"/>
      <point x="523" y="1500"/>
      <point x="496" y="1503"/>
      <point x="463" y="1503" type="curve" smooth="yes"/>
      <point x="430" y="1503"/>
      <point x="395" y="1500"/>
      <point x="359" y="1493" type="curve"/>
      <point x="361" y="1279" type="line" smooth="yes"/>
      <point x="361" y="1208"/>
      <point x="352" y="1100"/>
      <point x="352" y="1056" type="curve" smooth="yes"/>
      <point x="352" y="731" type="line"/>
    </contour>
    <contour>
      <point x="254" y="812" type="curve" smooth="yes"/>
      <point x="152" y="812" type="line"/>
      <point x="146" y="784"/>
      <point x="143" y="749"/>
      <point x="143" y="722" type="curve" smooth="yes"/>
      <point x="143" y="693"/>
      <point x="146" y="664"/>
      <point x="152" y="633" type="curve"/>
      <point x="724" y="633" type="line"/>
      <point x="733" y="662"/>
      <point x="736" y="695"/>
      <point x="736" y="722" type="curve" smooth="yes"/>
      <point x="736" y="753"/>
      <point x="732" y="784"/>
      <point x="724" y="812" type="curve"/>
      <point x="668" y="812" type="line" smooth="yes"/>
      <point x="645" y="812"/>
      <point x="587" y="811"/>
      <point x="564" y="811" type="curve" smooth="yes"/>
      <point x="352" y="811" type="line" smooth="yes"/>
      <point x="330" y="811"/>
      <point x="279" y="812"/>
    </contour>
    <contour>
      <point x="90" y="1211" type="curve"/>
      <point x="99" y="1162"/>
      <point x="138" y="1100"/>
      <point x="187" y="1077" type="curve"/>
      <point x="323" y="1140"/>
      <point x="394" y="1215"/>
      <point x="432" y="1358" type="curve"/>
      <point x="359" y="1493" type="line"/>
      <point x="303" y="1375"/>
      <point x="235" y="1298"/>
    </contour>
  </outline>
</glyph>
<glyph name="ordmasculine" format="2">
  <advance width="870"/>
  <unicode hex="00BA"/>
  <outline>
    <contour>
      <point x="793" y="879" type="curve" smooth="yes"/>
      <point x="793" y="1004"/>
      <point x="761" y="1120"/>
      <point x="676" y="1207" type="curve" smooth="yes"/>
      <point x="618" y="1266"/>
      <point x="530" y="1294"/>
      <point x="435" y="1294" type="curve" smooth="yes"/>
      <point x="338" y="1294"/>
      <point x="253" y="1265"/>
      <point x="194" y="1207" type="curve" smooth="yes"/>
      <point x="107" y="1122"/>
      <point x="77" y="1004"/>
      <point x="77" y="879" type="curve" smooth="yes"/>
      <point x="77" y="751"/>
      <point x="109" y="635"/>
      <point x="194" y="548" type="curve" smooth="yes"/>
      <point x="252" y="490"/>
      <point x="338" y="461"/>
      <point x="435" y="461" type="curve" smooth="yes"/>
      <point x="530" y="461"/>
      <point x="617" y="491"/>
      <point x="676" y="548" type="curve" smooth="yes"/>
      <point x="763" y="633"/>
      <point x="793" y="751"/>
    </contour>
    <contour>
      <point x="297" y="879" type="curve" smooth="yes"/>
      <point x="297" y="1019"/>
      <point x="332" y="1126"/>
      <point x="435" y="1126" type="curve" smooth="yes"/>
      <point x="538" y="1126"/>
      <point x="573" y="1019"/>
      <point x="573" y="879" type="curve" smooth="yes"/>
      <point x="573" y="738"/>
      <point x="538" y="630"/>
      <point x="435" y="630" type="curve" smooth="yes"/>
      <point x="332" y="630"/>
      <point x="297" y="738"/>
    </contour>
  </outline>
</glyph>
<glyph name="Aring" format="2">
  <advance width="1251"/>
  <unicode hex="00C5"/>
  <anchor x="629" y="0" name="bottom"/>
  <anchor x="1222" y="17" name="ogonek"/>
  <anchor x="629" y="1844" name="top"/>
  <outline>
    <contour>
      <point x="478" y="1376" type="line"/>
      <point x="28" y="20" type="line"/>
      <point x="37" y="6" type="line"/>
      <point x="70" y="-5"/>
      <point x="124" y="-12"/>
      <point x="167" y="-12" type="curve" smooth="yes"/>
      <point x="209" y="-12"/>
      <point x="248" y="-10"/>
      <point x="282" y="-2" type="curve"/>
      <point x="521" y="777" type="line" smooth="yes"/>
      <point x="547" y="868"/>
      <point x="589" y="1012"/>
      <point x="609" y="1113" type="curve"/>
      <point x="620" y="1113" type="line"/>
      <point x="650" y="994"/>
      <point x="694" y="840"/>
      <point x="727" y="726" type="curve" smooth="yes"/>
      <point x="907" y="128" type="line" smooth="yes"/>
      <point x="940" y="14"/>
      <point x="983" y="-16"/>
      <point x="1068" y="-16" type="curve" smooth="yes"/>
      <point x="1120" y="-16"/>
      <point x="1185" y="-5"/>
      <point x="1222" y="17" type="curve"/>
      <point x="780" y="1376" type="line"/>
    </contour>
    <contour>
      <point x="474" y="307" type="curve" smooth="yes"/>
      <point x="754" y="307" type="line" smooth="yes"/>
      <point x="778" y="307"/>
      <point x="848" y="309"/>
      <point x="872" y="309" type="curve" smooth="yes"/>
      <point x="1007" y="309" type="line"/>
      <point x="937" y="522" type="line"/>
      <point x="815" y="522" type="line" smooth="yes"/>
      <point x="791" y="522"/>
      <point x="728" y="524"/>
      <point x="704" y="524" type="curve" smooth="yes"/>
      <point x="532" y="524" type="line" smooth="yes"/>
      <point x="509" y="524"/>
      <point x="447" y="522"/>
      <point x="423" y="522" type="curve" smooth="yes"/>
      <point x="304" y="522" type="line"/>
      <point x="222" y="309" type="line"/>
      <point x="357" y="309" type="line" smooth="yes"/>
      <point x="381" y="309"/>
      <point x="450" y="307"/>
    </contour>
    <contour>
      <point x="366" y="1569" type="curve" smooth="yes"/>
      <point x="366" y="1435"/>
      <point x="471" y="1327"/>
      <point x="629" y="1327" type="curve" smooth="yes"/>
      <point x="787" y="1327"/>
      <point x="892" y="1435"/>
      <point x="892" y="1569" type="curve" smooth="yes"/>
      <point x="892" y="1702"/>
      <point x="787" y="1811"/>
      <point x="629" y="1811" type="curve" smooth="yes"/>
      <point x="471" y="1811"/>
      <point x="366" y="1702"/>
    </contour>
    <contour>
      <point x="530" y="1569" type="curve" smooth="yes"/>
      <point x="530" y="1628"/>
      <point x="570" y="1674"/>
      <point x="629" y="1674" type="curve" smooth="yes"/>
      <point x="688" y="1674"/>
      <point x="729" y="1628"/>
      <point x="729" y="1569" type="curve" smooth="yes"/>
      <point x="729" y="1509"/>
      <point x="688" y="1464"/>
      <point x="629" y="1464" type="curve" smooth="yes"/>
      <point x="570" y="1464"/>
      <point x="530" y="1509"/>
    </contour>
  </outline>
</glyph>
<glyph name="AE" format="2">
  <advance width="1763"/>
  <unicode hex="00C6"/>
  <anchor x="931" y="1464" name="top"/>
  <outline>
    <contour>
      <point x="642" y="1342" type="curve"/>
      <point x="19" y="21" type="line"/>
      <point x="29" y="7" type="line"/>
      <point x="62" y="-5"/>
      <point x="117" y="-11"/>
      <point x="164" y="-11" type="curve" smooth="yes"/>
      <point x="206" y="-11"/>
      <point x="251" y="-10"/>
      <point x="291" y="-1" type="curve"/>
      <point x="643" y="775" type="line" smooth="yes"/>
      <point x="688" y="877"/>
      <point x="741" y="1007"/>
      <point x="781" y="1113" type="curve"/>
      <point x="792" y="1113" type="line"/>
      <point x="975" y="1366" type="line"/>
      <point x="803" y="1366" type="line"/>
      <point x="753" y="1366"/>
      <point x="682" y="1361"/>
    </contour>
    <contour>
      <point x="524" y="307" type="curve" smooth="yes"/>
      <point x="702" y="307" type="line" smooth="yes"/>
      <point x="732" y="307"/>
      <point x="788" y="309"/>
      <point x="816" y="309" type="curve" smooth="yes"/>
      <point x="913" y="309" type="line"/>
      <point x="913" y="519" type="line"/>
      <point x="816" y="519" type="line" smooth="yes"/>
      <point x="788" y="519"/>
      <point x="732" y="521"/>
      <point x="701" y="521" type="curve" smooth="yes"/>
      <point x="598" y="521" type="line" smooth="yes"/>
      <point x="567" y="521"/>
      <point x="521" y="519"/>
      <point x="494" y="519" type="curve" smooth="yes"/>
      <point x="394" y="519" type="line"/>
      <point x="298" y="309" type="line"/>
      <point x="406" y="309" type="line" smooth="yes"/>
      <point x="434" y="309"/>
      <point x="493" y="307"/>
    </contour>
    <contour>
      <point x="790" y="1353" type="line"/>
      <point x="790" y="156" type="line" smooth="yes"/>
      <point x="790" y="57"/>
      <point x="847" y="-4"/>
      <point x="942" y="-4" type="curve" smooth="yes"/>
      <point x="1048" y="-4" type="line"/>
      <point x="1048" y="219" type="line" smooth="yes"/>
      <point x="1048" y="265"/>
      <point x="1050" y="301"/>
      <point x="1050" y="345" type="curve" smooth="yes"/>
      <point x="1050" y="1003" type="line" smooth="yes"/>
      <point x="1050" y="1057"/>
      <point x="1048" y="1089"/>
      <point x="1048" y="1145" type="curve" smooth="yes"/>
      <point x="1048" y="1366" type="line"/>
      <point x="803" y="1366" type="line"/>
    </contour>
    <contour>
      <point x="1523" y="798" type="curve"/>
      <point x="1179" y="798" type="line" smooth="yes"/>
      <point x="1131" y="798"/>
      <point x="1023" y="796"/>
      <point x="961" y="795" type="curve"/>
      <point x="961" y="581" type="line"/>
      <point x="1023" y="580"/>
      <point x="1131" y="578"/>
      <point x="1179" y="578" type="curve" smooth="yes"/>
      <point x="1523" y="578" type="line"/>
      <point x="1533" y="613"/>
      <point x="1538" y="658"/>
      <point x="1538" y="688" type="curve" smooth="yes"/>
      <point x="1538" y="717"/>
      <point x="1533" y="765"/>
    </contour>
    <contour>
      <point x="1636" y="1366" type="curve"/>
      <point x="961" y="1366" type="line"/>
      <point x="961" y="1144" type="line"/>
      <point x="1023" y="1142"/>
      <point x="1131" y="1141"/>
      <point x="1179" y="1141" type="curve" smooth="yes"/>
      <point x="1624" y="1141" type="line"/>
      <point x="1638" y="1181"/>
      <point x="1646" y="1230"/>
      <point x="1646" y="1260" type="curve" smooth="yes"/>
      <point x="1646" y="1290"/>
      <point x="1644" y="1326"/>
    </contour>
    <contour>
      <point x="1681" y="222" type="curve"/>
      <point x="1188" y="222" type="line" smooth="yes"/>
      <point x="1098" y="222"/>
      <point x="1037" y="217"/>
      <point x="961" y="213" type="curve"/>
      <point x="961" y="-4" type="line"/>
      <point x="1505" y="-4" type="line" smooth="yes"/>
      <point x="1631" y="-4"/>
      <point x="1681" y="51"/>
    </contour>
  </outline>
</glyph>
<glyph name="Eth" format="2">
  <advance width="1347"/>
  <unicode hex="00D0"/>
  <outline>
    <contour>
      <point x="1259" y="684" type="curve" smooth="yes"/>
      <point x="1259" y="916"/>
      <point x="1225" y="1127"/>
      <point x="1041" y="1275" type="curve" smooth="yes"/>
      <point x="952" y="1347"/>
      <point x="792" y="1376"/>
      <point x="684" y="1376" type="curve" smooth="yes"/>
      <point x="517" y="1376"/>
      <point x="384" y="1375"/>
      <point x="210" y="1369" type="curve"/>
      <point x="197" y="1355" type="line"/>
      <point x="197" y="11" type="line"/>
      <point x="210" y="-3" type="line"/>
      <point x="384" y="-7"/>
      <point x="517" y="-11"/>
      <point x="684" y="-11" type="curve" smooth="yes"/>
      <point x="792" y="-11"/>
      <point x="952" y="18"/>
      <point x="1041" y="90" type="curve" smooth="yes"/>
      <point x="1227" y="238"/>
      <point x="1259" y="450"/>
    </contour>
    <contour>
      <point x="983" y="684" type="curve" smooth="yes"/>
      <point x="983" y="464"/>
      <point x="944" y="201"/>
      <point x="684" y="201" type="curve" smooth="yes"/>
      <point x="607" y="201"/>
      <point x="540" y="202"/>
      <point x="459" y="201" type="curve"/>
      <point x="459" y="1166" type="line"/>
      <point x="540" y="1165"/>
      <point x="607" y="1164"/>
      <point x="684" y="1164" type="curve" smooth="yes"/>
      <point x="944" y="1164"/>
      <point x="983" y="904"/>
    </contour>
    <contour>
      <point x="53" y="583" type="curve"/>
      <point x="740" y="583" type="line"/>
      <point x="747" y="617"/>
      <point x="751" y="654"/>
      <point x="751" y="693" type="curve" smooth="yes"/>
      <point x="751" y="732"/>
      <point x="747" y="767"/>
      <point x="740" y="802" type="curve"/>
      <point x="53" y="802" type="line"/>
      <point x="44" y="767"/>
      <point x="42" y="726"/>
      <point x="42" y="690" type="curve" smooth="yes"/>
      <point x="42" y="652"/>
      <point x="44" y="617"/>
    </contour>
  </outline>
</glyph>
